<svg xmlns="http://www.w3.org/2000/svg" xmlns:xlink="http://www.w3.org/1999/xlink" version="1.1" class="marks" width="533" height="315" viewBox="0 0 533 315"><rect width="533" height="315" fill="white"/><g fill="none" stroke-miterlimit="10" transform="translate(130,42)"><g class="mark-group role-frame root" role="graphics-object" aria-roledescription="group mark container"><g transform="translate(0,0)"><path class="background" aria-hidden="true" d="M0,0h300v0h-300Z"/><g><g class="mark-group role-scope concat_0_group" role="graphics-object" aria-roledescription="group mark container"><g transform="translate(0,0)"><path class="background" aria-hidden="true" d="M0,0h300v30h-300Z"/><g><g class="mark-group role-axis" role="graphics-symbol" aria-roledescription="axis" aria-label="X-axis for a linear scale with values from −15 to 15"><g transform="translate(0.5,30.5)"><path class="background" aria-hidden="true" d="M0,0h0v0h0Z" pointer-events="none"/><g><g class="mark-rule role-axis-tick" pointer-events="none"><line transform="translate(0,0)" x2="0" y2="5" stroke="#888" stroke-width="1" opacity="1"/><line transform="translate(50,0)" x2="0" y2="5" stroke="#888" stroke-width="1" opacity="1"/><line transform="translate(100,0)" x2="0" y2="5" stroke="#888" stroke-width="1" opacity="1"/><line transform="translate(150,0)" x2="0" y2="5" stroke="#888" stroke-width="1" opacity="1"/><line transform="translate(200,0)" x2="0" y2="5" stroke="#888" stroke-width="1" opacity="1"/><line transform="translate(250,0)" x2="0" y2="5" stroke="#888" stroke-width="1" opacity="1"/><line transform="translate(300,0)" x2="0" y2="5" stroke="#888" stroke-width="1" opacity="1"/></g><g class="mark-rule role-axis-domain" pointer-events="none"><line transform="translate(0,0)" x2="300" y2="0" stroke="#888" stroke-width="1" opacity="1"/></g></g><path class="foreground" aria-hidden="true" d="" pointer-events="none" display="none"/></g></g><g class="mark-group role-axis" role="graphics-symbol" aria-roledescription="axis" aria-label="Y-axis titled 'density_normalized' for a linear scale with values from 0.0 to 1.0"><g transform="translate(0.5,0.5)"><path class="background" aria-hidden="true" d="M0,0h0v0h0Z" pointer-events="none"/><g><g class="mark-rule role-axis-tick" pointer-events="none"><line transform="translate(0,30)" x2="-5" y2="0" stroke="#888" stroke-width="1" opacity="1"/><line transform="translate(0,0)" x2="-5" y2="0" stroke="#888" stroke-width="1" opacity="1"/></g><g class="mark-text role-axis-label" pointer-events="none"><text text-anchor="end" transform="translate(-7,33)" font-family="sans-serif" font-size="10px" fill="#000" opacity="1">0</text><text text-anchor="end" transform="translate(-7,3)" font-family="sans-serif" font-size="10px" fill="#000" opacity="1">1</text></g><g class="mark-rule role-axis-domain" pointer-events="none"><line transform="translate(0,30)" x2="0" y2="-30" stroke="#888" stroke-width="1" opacity="1"/></g><g class="mark-text role-axis-title" pointer-events="none"><text text-anchor="middle" transform="translate(-16.5615234375,15) rotate(-90) translate(0,-2)" font-family="sans-serif" font-size="11px" font-weight="bold" fill="#000" opacity="1">density_normalized</text></g></g><path class="foreground" aria-hidden="true" d="" pointer-events="none" display="none"/></g></g><g class="mark-area role-mark concat_0_marks" role="graphics-object" aria-roledescription="area mark container"><path aria-label="BT16_average_zscore: −27.4637149389; density_normalized: 2.72205480148e-279" role="graphics-symbol" aria-roledescription="area mark" d="M-124.637,30L-123.591,30L-122.546,30L-121.5,30L-120.454,30L-119.408,30L-118.362,30L-117.317,30L-116.271,30L-115.225,30L-114.179,30L-113.133,30L-112.088,30L-111.042,30L-109.996,30L-108.95,30L-107.904,30L-106.859,30L-105.813,30L-104.767,30L-103.721,30L-102.675,30L-101.63,30L-100.584,30L-99.538,30L-98.492,30L-97.446,30L-96.401,30L-95.355,30L-94.309,30L-93.263,30L-92.217,30L-91.172,30L-90.126,30L-89.08,30L-88.034,30L-86.988,30L-85.943,30L-84.897,30L-83.851,30L-82.805,30L-81.759,30L-80.714,30L-79.668,30L-78.622,30L-77.576,30L-76.531,30L-75.485,30L-74.439,30L-73.393,30L-72.347,30L-71.302,30L-70.256,30L-69.21,30L-68.164,30L-67.118,30L-66.073,30L-65.027,30L-63.981,30L-62.935,30L-61.889,30L-60.844,30L-59.798,30L-58.752,30L-57.706,30L-56.66,30L-55.615,30L-54.569,30L-53.523,30L-52.477,30L-51.431,30L-50.386,30L-49.34,30L-48.294,30L-47.248,30L-46.202,30L-45.157,30L-44.111,30L-43.065,30L-42.019,30L-40.973,30L-39.928,30L-38.882,30L-37.836,30L-36.79,30L-35.744,30L-34.699,30L-33.653,30L-32.607,30L-31.561,30L-30.515,30L-29.47,30L-28.424,30L-27.378,30L-26.332,30L-25.286,30L-24.241,30L-23.195,30L-22.149,30L-21.103,30L-20.058,30L-19.012,30L-17.966,30L-16.92,30L-15.874,30L-14.829,30L-13.783,30L-12.737,30L-11.691,30L-10.645,30L-9.6,30L-8.554,30L-7.508,30L-6.462,30L-5.416,30L-4.371,30L-3.325,30L-2.279,30L-1.233,30L-0.187,30L0.858,30L1.904,30L2.95,30L3.996,30L5.042,30L6.087,30L7.133,30L8.179,30L9.225,30L10.271,30L11.316,30L12.362,30L13.408,30L14.454,30L15.5,30L16.545,30L17.591,30L18.637,30L19.683,30L20.729,30L21.774,30L22.82,30L23.866,30L24.912,30L25.958,30L27.003,30L28.049,30L29.095,30L30.141,30L31.187,30L32.232,30L33.278,30L34.324,30L35.37,30L36.416,30L37.461,30L38.507,30L39.553,30L40.599,30L41.644,30L42.69,30L43.736,30L44.782,30L45.828,30L46.873,30L47.919,30L48.965,30L50.011,30L51.057,30L52.102,30L53.148,30L54.194,29.999L55.24,29.999L56.286,29.998L57.331,29.996L58.377,29.993L59.423,29.989L60.469,29.983L61.515,29.975L62.56,29.963L63.606,29.948L64.652,29.93L65.698,29.909L66.744,29.885L67.789,29.86L68.835,29.835L69.881,29.813L70.927,29.795L71.973,29.784L73.018,29.78L74.064,29.784L75.11,29.795L76.156,29.812L77.202,29.834L78.247,29.858L79.293,29.883L80.339,29.907L81.385,29.929L82.431,29.948L83.476,29.963L84.522,29.974L85.568,29.983L86.614,29.989L87.66,29.993L88.705,29.995L89.751,29.996L90.797,29.995L91.843,29.994L92.889,29.991L93.934,29.986L94.98,29.978L96.026,29.968L97.072,29.954L98.117,29.937L99.163,29.917L100.209,29.894L101.255,29.869L102.301,29.844L103.346,29.82L104.392,29.8L105.438,29.786L106.484,29.777L107.53,29.776L108.575,29.781L109.621,29.791L110.667,29.804L111.713,29.817L112.759,29.828L113.804,29.834L114.85,29.833L115.896,29.824L116.942,29.807L117.988,29.781L119.033,29.747L120.079,29.705L121.125,29.654L122.171,29.595L123.217,29.523L124.262,29.437L125.308,29.333L126.354,29.204L127.4,29.045L128.446,28.85L129.491,28.614L130.537,28.329L131.583,27.993L132.629,27.603L133.675,27.157L134.72,26.658L135.766,26.111L136.812,25.523L137.858,24.902L138.904,24.261L139.949,23.61L140.995,22.96L142.041,22.321L143.087,21.701L144.133,21.104L145.178,20.532L146.224,19.984L147.27,19.452L148.316,18.929L149.362,18.404L150.407,17.864L151.453,17.297L152.499,16.691L153.545,16.037L154.59,15.33L155.636,14.566L156.682,13.746L157.728,12.875L158.774,11.954L159.819,10.989L160.865,9.981L161.911,8.935L162.957,7.854L164.003,6.75L165.048,5.635L166.094,4.534L167.14,3.475L168.186,2.494L169.232,1.63L170.277,0.92L171.323,0.397L172.369,0.086L173.415,0L174.461,0.145L175.506,0.516L176.552,1.099L177.598,1.874L178.644,2.817L179.69,3.899L180.735,5.089L181.781,6.356L182.827,7.667L183.873,8.995L184.919,10.313L185.964,11.605L187.01,12.857L188.056,14.064L189.102,15.227L190.148,16.349L191.193,17.437L192.239,18.495L193.285,19.526L194.331,20.529L195.377,21.499L196.422,22.427L197.468,23.305L198.514,24.122L199.56,24.868L200.606,25.536L201.651,26.122L202.697,26.627L203.743,27.053L204.789,27.405L205.835,27.691L206.88,27.92L207.926,28.098L208.972,28.235L210.018,28.337L211.064,28.409L212.109,28.457L213.155,28.486L214.201,28.498L215.247,28.5L216.292,28.495L217.338,28.488L218.384,28.484L219.43,28.487L220.476,28.503L221.521,28.534L222.567,28.583L223.613,28.649L224.659,28.734L225.705,28.834L226.75,28.946L227.796,29.066L228.842,29.19L229.888,29.314L230.934,29.432L231.979,29.541L233.025,29.639L234.071,29.724L235.117,29.794L236.163,29.851L237.208,29.895L238.254,29.929L239.3,29.953L240.346,29.97L241.392,29.981L242.437,29.987L243.483,29.991L244.529,29.992L245.575,29.99L246.621,29.987L247.666,29.98L248.712,29.971L249.758,29.959L250.804,29.943L251.85,29.924L252.895,29.901L253.941,29.877L254.987,29.852L256.033,29.828L257.079,29.807L258.124,29.791L259.17,29.782L260.216,29.78L261.262,29.786L262.308,29.799L263.353,29.818L264.399,29.841L265.445,29.866L266.491,29.891L267.537,29.914L268.582,29.935L269.628,29.953L270.674,29.967L271.72,29.977L272.765,29.985L273.811,29.99L274.857,29.994L275.903,29.997L276.949,29.998L277.994,29.999L279.04,29.999L280.086,30L281.132,30L282.178,30L283.223,30L284.269,30L285.315,30L286.361,30L287.407,30L288.452,30L289.498,30L290.544,30L291.59,30L292.636,30L293.681,30L294.727,30L295.773,30L296.819,30L297.865,30L298.91,30L299.956,30L301.002,30L302.048,30L303.094,30L304.139,30L305.185,30L306.231,30L307.277,30L308.323,30L309.368,30L310.414,30L311.46,30L312.506,30L313.552,30L314.597,30L315.643,30L316.689,30L317.735,30L318.781,30L319.826,30L320.872,30L321.918,30L322.964,30L324.01,30L325.055,30L326.101,30L327.147,30L328.193,30L329.239,30L330.284,30L331.33,30L332.376,30L333.422,30L334.467,30L335.513,30L336.559,30L337.605,30L338.651,30L339.696,30L340.742,30L341.788,30L342.834,30L343.88,30L344.925,30L345.971,30L347.017,30L348.063,30L349.109,30L350.154,30L351.2,30L352.246,30L353.292,30L354.338,30L355.383,30L356.429,30L357.475,30L358.521,30L359.567,30L360.612,30L361.658,30L362.704,30L363.75,30L364.796,30L365.841,30L366.887,30L367.933,30L368.979,30L370.025,30L371.07,30L372.116,30L373.162,30L374.208,30L375.254,30L376.299,30L377.345,30L378.391,30L379.437,30L380.483,30L381.528,30L382.574,30L383.62,30L384.666,30L385.712,30L386.757,30L387.803,30L388.849,30L389.895,30L390.94,30L391.986,30L393.032,30L394.078,30L395.124,30L396.169,30L397.215,30L397.215,30L396.169,30L395.124,30L394.078,30L393.032,30L391.986,30L390.94,30L389.895,30L388.849,30L387.803,30L386.757,30L385.712,30L384.666,30L383.62,30L382.574,30L381.528,30L380.483,30L379.437,30L378.391,30L377.345,30L376.299,30L375.254,30L374.208,30L373.162,30L372.116,30L371.07,30L370.025,30L368.979,30L367.933,30L366.887,30L365.841,30L364.796,30L363.75,30L362.704,30L361.658,30L360.612,30L359.567,30L358.521,30L357.475,30L356.429,30L355.383,30L354.338,30L353.292,30L352.246,30L351.2,30L350.154,30L349.109,30L348.063,30L347.017,30L345.971,30L344.925,30L343.88,30L342.834,30L341.788,30L340.742,30L339.696,30L338.651,30L337.605,30L336.559,30L335.513,30L334.467,30L333.422,30L332.376,30L331.33,30L330.284,30L329.239,30L328.193,30L327.147,30L326.101,30L325.055,30L324.01,30L322.964,30L321.918,30L320.872,30L319.826,30L318.781,30L317.735,30L316.689,30L315.643,30L314.597,30L313.552,30L312.506,30L311.46,30L310.414,30L309.368,30L308.323,30L307.277,30L306.231,30L305.185,30L304.139,30L303.094,30L302.048,30L301.002,30L299.956,30L298.91,30L297.865,30L296.819,30L295.773,30L294.727,30L293.681,30L292.636,30L291.59,30L290.544,30L289.498,30L288.452,30L287.407,30L286.361,30L285.315,30L284.269,30L283.223,30L282.178,30L281.132,30L280.086,30L279.04,30L277.994,30L276.949,30L275.903,30L274.857,30L273.811,30L272.765,30L271.72,30L270.674,30L269.628,30L268.582,30L267.537,30L266.491,30L265.445,30L264.399,30L263.353,30L262.308,30L261.262,30L260.216,30L259.17,30L258.124,30L257.079,30L256.033,30L254.987,30L253.941,30L252.895,30L251.85,30L250.804,30L249.758,30L248.712,30L247.666,30L246.621,30L245.575,30L244.529,30L243.483,30L242.437,30L241.392,30L240.346,30L239.3,30L238.254,30L237.208,30L236.163,30L235.117,30L234.071,30L233.025,30L231.979,30L230.934,30L229.888,30L228.842,30L227.796,30L226.75,30L225.705,30L224.659,30L223.613,30L222.567,30L221.521,30L220.476,30L219.43,30L218.384,30L217.338,30L216.292,30L215.247,30L214.201,30L213.155,30L212.109,30L211.064,30L210.018,30L208.972,30L207.926,30L206.88,30L205.835,30L204.789,30L203.743,30L202.697,30L201.651,30L200.606,30L199.56,30L198.514,30L197.468,30L196.422,30L195.377,30L194.331,30L193.285,30L192.239,30L191.193,30L190.148,30L189.102,30L188.056,30L187.01,30L185.964,30L184.919,30L183.873,30L182.827,30L181.781,30L180.735,30L179.69,30L178.644,30L177.598,30L176.552,30L175.506,30L174.461,30L173.415,30L172.369,30L171.323,30L170.277,30L169.232,30L168.186,30L167.14,30L166.094,30L165.048,30L164.003,30L162.957,30L161.911,30L160.865,30L159.819,30L158.774,30L157.728,30L156.682,30L155.636,30L154.59,30L153.545,30L152.499,30L151.453,30L150.407,30L149.362,30L148.316,30L147.27,30L146.224,30L145.178,30L144.133,30L143.087,30L142.041,30L140.995,30L139.949,30L138.904,30L137.858,30L136.812,30L135.766,30L134.72,30L133.675,30L132.629,30L131.583,30L130.537,30L129.491,30L128.446,30L127.4,30L126.354,30L125.308,30L124.262,30L123.217,30L122.171,30L121.125,30L120.079,30L119.033,30L117.988,30L116.942,30L115.896,30L114.85,30L113.804,30L112.759,30L111.713,30L110.667,30L109.621,30L108.575,30L107.53,30L106.484,30L105.438,30L104.392,30L103.346,30L102.301,30L101.255,30L100.209,30L99.163,30L98.117,30L97.072,30L96.026,30L94.98,30L93.934,30L92.889,30L91.843,30L90.797,30L89.751,30L88.705,30L87.66,30L86.614,30L85.568,30L84.522,30L83.476,30L82.431,30L81.385,30L80.339,30L79.293,30L78.247,30L77.202,30L76.156,30L75.11,30L74.064,30L73.018,30L71.973,30L70.927,30L69.881,30L68.835,30L67.789,30L66.744,30L65.698,30L64.652,30L63.606,30L62.56,30L61.515,30L60.469,30L59.423,30L58.377,30L57.331,30L56.286,30L55.24,30L54.194,30L53.148,30L52.102,30L51.057,30L50.011,30L48.965,30L47.919,30L46.873,30L45.828,30L44.782,30L43.736,30L42.69,30L41.644,30L40.599,30L39.553,30L38.507,30L37.461,30L36.416,30L35.37,30L34.324,30L33.278,30L32.232,30L31.187,30L30.141,30L29.095,30L28.049,30L27.003,30L25.958,30L24.912,30L23.866,30L22.82,30L21.774,30L20.729,30L19.683,30L18.637,30L17.591,30L16.545,30L15.5,30L14.454,30L13.408,30L12.362,30L11.316,30L10.271,30L9.225,30L8.179,30L7.133,30L6.087,30L5.042,30L3.996,30L2.95,30L1.904,30L0.858,30L-0.187,30L-1.233,30L-2.279,30L-3.325,30L-4.371,30L-5.416,30L-6.462,30L-7.508,30L-8.554,30L-9.6,30L-10.645,30L-11.691,30L-12.737,30L-13.783,30L-14.829,30L-15.874,30L-16.92,30L-17.966,30L-19.012,30L-20.058,30L-21.103,30L-22.149,30L-23.195,30L-24.241,30L-25.286,30L-26.332,30L-27.378,30L-28.424,30L-29.47,30L-30.515,30L-31.561,30L-32.607,30L-33.653,30L-34.699,30L-35.744,30L-36.79,30L-37.836,30L-38.882,30L-39.928,30L-40.973,30L-42.019,30L-43.065,30L-44.111,30L-45.157,30L-46.202,30L-47.248,30L-48.294,30L-49.34,30L-50.386,30L-51.431,30L-52.477,30L-53.523,30L-54.569,30L-55.615,30L-56.66,30L-57.706,30L-58.752,30L-59.798,30L-60.844,30L-61.889,30L-62.935,30L-63.981,30L-65.027,30L-66.073,30L-67.118,30L-68.164,30L-69.21,30L-70.256,30L-71.302,30L-72.347,30L-73.393,30L-74.439,30L-75.485,30L-76.531,30L-77.576,30L-78.622,30L-79.668,30L-80.714,30L-81.759,30L-82.805,30L-83.851,30L-84.897,30L-85.943,30L-86.988,30L-88.034,30L-89.08,30L-90.126,30L-91.172,30L-92.217,30L-93.263,30L-94.309,30L-95.355,30L-96.401,30L-97.446,30L-98.492,30L-99.538,30L-100.584,30L-101.63,30L-102.675,30L-103.721,30L-104.767,30L-105.813,30L-106.859,30L-107.904,30L-108.95,30L-109.996,30L-111.042,30L-112.088,30L-113.133,30L-114.179,30L-115.225,30L-116.271,30L-117.317,30L-118.362,30L-119.408,30L-120.454,30L-121.5,30L-122.546,30L-123.591,30L-124.637,30Z" fill="darkblue"/></g></g><path class="foreground" aria-hidden="true" d="" display="none"/></g></g><g class="mark-group role-scope concat_1_group" role="graphics-object" aria-roledescription="group mark container"><g transform="translate(0,67)"><path class="background" aria-hidden="true" d="M0,0h300v30h-300Z"/><g><g class="mark-group role-axis" role="graphics-symbol" aria-roledescription="axis" aria-label="X-axis for a linear scale with values from −15 to 15"><g transform="translate(0.5,30.5)"><path class="background" aria-hidden="true" d="M0,0h0v0h0Z" pointer-events="none"/><g><g class="mark-rule role-axis-tick" pointer-events="none"><line transform="translate(0,0)" x2="0" y2="5" stroke="#888" stroke-width="1" opacity="1"/><line transform="translate(50,0)" x2="0" y2="5" stroke="#888" stroke-width="1" opacity="1"/><line transform="translate(100,0)" x2="0" y2="5" stroke="#888" stroke-width="1" opacity="1"/><line transform="translate(150,0)" x2="0" y2="5" stroke="#888" stroke-width="1" opacity="1"/><line transform="translate(200,0)" x2="0" y2="5" stroke="#888" stroke-width="1" opacity="1"/><line transform="translate(250,0)" x2="0" y2="5" stroke="#888" stroke-width="1" opacity="1"/><line transform="translate(300,0)" x2="0" y2="5" stroke="#888" stroke-width="1" opacity="1"/></g><g class="mark-rule role-axis-domain" pointer-events="none"><line transform="translate(0,0)" x2="300" y2="0" stroke="#888" stroke-width="1" opacity="1"/></g></g><path class="foreground" aria-hidden="true" d="" pointer-events="none" display="none"/></g></g><g class="mark-group role-axis" role="graphics-symbol" aria-roledescription="axis" aria-label="Y-axis titled 'density_normalized' for a linear scale with values from 0.0 to 1.0"><g transform="translate(0.5,0.5)"><path class="background" aria-hidden="true" d="M0,0h0v0h0Z" pointer-events="none"/><g><g class="mark-rule role-axis-tick" pointer-events="none"><line transform="translate(0,30)" x2="-5" y2="0" stroke="#888" stroke-width="1" opacity="1"/><line transform="translate(0,0)" x2="-5" y2="0" stroke="#888" stroke-width="1" opacity="1"/></g><g class="mark-text role-axis-label" pointer-events="none"><text text-anchor="end" transform="translate(-7,33)" font-family="sans-serif" font-size="10px" fill="#000" opacity="1">0</text><text text-anchor="end" transform="translate(-7,3)" font-family="sans-serif" font-size="10px" fill="#000" opacity="1">1</text></g><g class="mark-rule role-axis-domain" pointer-events="none"><line transform="translate(0,30)" x2="0" y2="-30" stroke="#888" stroke-width="1" opacity="1"/></g><g class="mark-text role-axis-title" pointer-events="none"><text text-anchor="middle" transform="translate(-16.5615234375,15) rotate(-90) translate(0,-2)" font-family="sans-serif" font-size="11px" font-weight="bold" fill="#000" opacity="1">density_normalized</text></g></g><path class="foreground" aria-hidden="true" d="" pointer-events="none" display="none"/></g></g><g class="mark-area role-mark concat_1_marks" role="graphics-object" aria-roledescription="area mark container"><path aria-label="BT16_average_zscore: −27.4637149389; density_normalized: 5.33427868273e-94" role="graphics-symbol" aria-roledescription="area mark" d="M-124.637,30L-123.591,30L-122.546,30L-121.5,30L-120.454,30L-119.408,30L-118.362,30L-117.317,30L-116.271,30L-115.225,30L-114.179,30L-113.133,30L-112.088,30L-111.042,30L-109.996,30L-108.95,30L-107.904,30L-106.859,30L-105.813,30L-104.767,30L-103.721,30L-102.675,30L-101.63,30L-100.584,30L-99.538,30L-98.492,30L-97.446,30L-96.401,30L-95.355,30L-94.309,30L-93.263,30L-92.217,30L-91.172,30L-90.126,30L-89.08,30L-88.034,30L-86.988,30L-85.943,30L-84.897,30L-83.851,30L-82.805,30L-81.759,30L-80.714,30L-79.668,30L-78.622,30L-77.576,30L-76.531,30L-75.485,30L-74.439,30L-73.393,30L-72.347,30L-71.302,30L-70.256,30L-69.21,30L-68.164,30L-67.118,30L-66.073,30L-65.027,30L-63.981,30L-62.935,30L-61.889,30L-60.844,30L-59.798,30L-58.752,30L-57.706,30L-56.66,30L-55.615,30L-54.569,30L-53.523,30L-52.477,30L-51.431,30L-50.386,30L-49.34,30L-48.294,30L-47.248,30L-46.202,30L-45.157,30L-44.111,30L-43.065,30L-42.019,30L-40.973,30L-39.928,30L-38.882,30L-37.836,30L-36.79,30L-35.744,30L-34.699,30L-33.653,30L-32.607,30L-31.561,30L-30.515,30L-29.47,30L-28.424,30L-27.378,30L-26.332,30L-25.286,30L-24.241,30L-23.195,30L-22.149,30L-21.103,30L-20.058,30L-19.012,30L-17.966,30L-16.92,30L-15.874,30L-14.829,30L-13.783,30L-12.737,30L-11.691,30L-10.645,30L-9.6,30L-8.554,30L-7.508,30L-6.462,30L-5.416,30L-4.371,30L-3.325,30L-2.279,30L-1.233,30L-0.187,30L0.858,30L1.904,30L2.95,30L3.996,30L5.042,30L6.087,30L7.133,30L8.179,30L9.225,30L10.271,30L11.316,30L12.362,30L13.408,30L14.454,30L15.5,30L16.545,30L17.591,30L18.637,30L19.683,30L20.729,30L21.774,30L22.82,30L23.866,30L24.912,29.999L25.958,29.999L27.003,29.998L28.049,29.998L29.095,29.997L30.141,29.995L31.187,29.993L32.232,29.991L33.278,29.988L34.324,29.984L35.37,29.978L36.416,29.972L37.461,29.964L38.507,29.954L39.553,29.942L40.599,29.928L41.644,29.913L42.69,29.895L43.736,29.875L44.782,29.853L45.828,29.83L46.873,29.805L47.919,29.779L48.965,29.753L50.011,29.726L51.057,29.7L52.102,29.674L53.148,29.65L54.194,29.627L55.24,29.606L56.286,29.588L57.331,29.571L58.377,29.557L59.423,29.546L60.469,29.536L61.515,29.529L62.56,29.524L63.606,29.52L64.652,29.517L65.698,29.515L66.744,29.514L67.789,29.513L68.835,29.511L69.881,29.509L70.927,29.505L71.973,29.499L73.018,29.492L74.064,29.481L75.11,29.468L76.156,29.452L77.202,29.431L78.247,29.407L79.293,29.38L80.339,29.348L81.385,29.312L82.431,29.273L83.476,29.231L84.522,29.186L85.568,29.139L86.614,29.091L87.66,29.042L88.705,28.992L89.751,28.943L90.797,28.895L91.843,28.846L92.889,28.797L93.934,28.746L94.98,28.693L96.026,28.634L97.072,28.568L98.117,28.492L99.163,28.403L100.209,28.298L101.255,28.174L102.301,28.029L103.346,27.859L104.392,27.664L105.438,27.442L106.484,27.193L107.53,26.916L108.575,26.613L109.621,26.285L110.667,25.936L111.713,25.568L112.759,25.185L113.804,24.791L114.85,24.393L115.896,23.993L116.942,23.599L117.988,23.213L119.033,22.843L120.079,22.491L121.125,22.162L122.171,21.858L123.217,21.582L124.262,21.333L125.308,21.112L126.354,20.915L127.4,20.74L128.446,20.581L129.491,20.431L130.537,20.284L131.583,20.132L132.629,19.964L133.675,19.773L134.72,19.55L135.766,19.286L136.812,18.975L137.858,18.61L138.904,18.187L139.949,17.705L140.995,17.161L142.041,16.557L143.087,15.896L144.133,15.182L145.178,14.422L146.224,13.622L147.27,12.792L148.316,11.938L149.362,11.071L150.407,10.199L151.453,9.331L152.499,8.475L153.545,7.639L154.59,6.829L155.636,6.052L156.682,5.311L157.728,4.61L158.774,3.953L159.819,3.341L160.865,2.775L161.911,2.257L162.957,1.787L164.003,1.367L165.048,0.997L166.094,0.681L167.14,0.42L168.186,0.218L169.232,0.079L170.277,0.005L171.323,0L172.369,0.068L173.415,0.209L174.461,0.426L175.506,0.716L176.552,1.077L177.598,1.504L178.644,1.99L179.69,2.529L180.735,3.11L181.781,3.727L182.827,4.369L183.873,5.028L184.919,5.698L185.964,6.373L187.01,7.049L188.056,7.725L189.102,8.4L190.148,9.076L191.193,9.756L192.239,10.441L193.285,11.134L194.331,11.839L195.377,12.557L196.422,13.287L197.468,14.03L198.514,14.782L199.56,15.541L200.606,16.3L201.651,17.053L202.697,17.794L203.743,18.516L204.789,19.211L205.835,19.872L206.88,20.495L207.926,21.074L208.972,21.607L210.018,22.091L211.064,22.528L212.109,22.917L213.155,23.264L214.201,23.571L215.247,23.844L216.292,24.089L217.338,24.313L218.384,24.521L219.43,24.718L220.476,24.911L221.521,25.103L222.567,25.298L223.613,25.497L224.659,25.702L225.705,25.914L226.75,26.131L227.796,26.353L228.842,26.578L229.888,26.805L230.934,27.03L231.979,27.253L233.025,27.472L234.071,27.683L235.117,27.887L236.163,28.082L237.208,28.266L238.254,28.439L239.3,28.601L240.346,28.751L241.392,28.89L242.437,29.017L243.483,29.134L244.529,29.24L245.575,29.336L246.621,29.422L247.666,29.5L248.712,29.569L249.758,29.63L250.804,29.684L251.85,29.731L252.895,29.772L253.941,29.806L254.987,29.835L256.033,29.858L257.079,29.875L258.124,29.888L259.17,29.895L260.216,29.898L261.262,29.897L262.308,29.892L263.353,29.883L264.399,29.872L265.445,29.858L266.491,29.842L267.537,29.826L268.582,29.808L269.628,29.791L270.674,29.775L271.72,29.761L272.765,29.749L273.811,29.74L274.857,29.734L275.903,29.732L276.949,29.734L277.994,29.739L279.04,29.748L280.086,29.76L281.132,29.775L282.178,29.792L283.223,29.81L284.269,29.829L285.315,29.848L286.361,29.867L287.407,29.885L288.452,29.903L289.498,29.918L290.544,29.933L291.59,29.945L292.636,29.956L293.681,29.965L294.727,29.973L295.773,29.979L296.819,29.984L297.865,29.988L298.91,29.991L299.956,29.994L301.002,29.995L302.048,29.997L303.094,29.998L304.139,29.998L305.185,29.999L306.231,29.999L307.277,30L308.323,30L309.368,30L310.414,30L311.46,30L312.506,30L313.552,30L314.597,30L315.643,30L316.689,30L317.735,30L318.781,30L319.826,30L320.872,30L321.918,30L322.964,30L324.01,30L325.055,30L326.101,30L327.147,30L328.193,30L329.239,30L330.284,30L331.33,30L332.376,30L333.422,30L334.467,30L335.513,30L336.559,30L337.605,30L338.651,30L339.696,30L340.742,30L341.788,30L342.834,30L343.88,30L344.925,30L345.971,30L347.017,30L348.063,30L349.109,30L350.154,30L351.2,30L352.246,30L353.292,30L354.338,30L355.383,30L356.429,30L357.475,30L358.521,30L359.567,30L360.612,30L361.658,30L362.704,30L363.75,30L364.796,30L365.841,30L366.887,30L367.933,30L368.979,30L370.025,30L371.07,30L372.116,30L373.162,30L374.208,30L375.254,30L376.299,30L377.345,30L378.391,30L379.437,30L380.483,30L381.528,30L382.574,30L383.62,30L384.666,30L385.712,30L386.757,30L387.803,30L388.849,30L389.895,30L390.94,30L391.986,30L393.032,30L394.078,30L395.124,30L396.169,30L397.215,30L397.215,30L396.169,30L395.124,30L394.078,30L393.032,30L391.986,30L390.94,30L389.895,30L388.849,30L387.803,30L386.757,30L385.712,30L384.666,30L383.62,30L382.574,30L381.528,30L380.483,30L379.437,30L378.391,30L377.345,30L376.299,30L375.254,30L374.208,30L373.162,30L372.116,30L371.07,30L370.025,30L368.979,30L367.933,30L366.887,30L365.841,30L364.796,30L363.75,30L362.704,30L361.658,30L360.612,30L359.567,30L358.521,30L357.475,30L356.429,30L355.383,30L354.338,30L353.292,30L352.246,30L351.2,30L350.154,30L349.109,30L348.063,30L347.017,30L345.971,30L344.925,30L343.88,30L342.834,30L341.788,30L340.742,30L339.696,30L338.651,30L337.605,30L336.559,30L335.513,30L334.467,30L333.422,30L332.376,30L331.33,30L330.284,30L329.239,30L328.193,30L327.147,30L326.101,30L325.055,30L324.01,30L322.964,30L321.918,30L320.872,30L319.826,30L318.781,30L317.735,30L316.689,30L315.643,30L314.597,30L313.552,30L312.506,30L311.46,30L310.414,30L309.368,30L308.323,30L307.277,30L306.231,30L305.185,30L304.139,30L303.094,30L302.048,30L301.002,30L299.956,30L298.91,30L297.865,30L296.819,30L295.773,30L294.727,30L293.681,30L292.636,30L291.59,30L290.544,30L289.498,30L288.452,30L287.407,30L286.361,30L285.315,30L284.269,30L283.223,30L282.178,30L281.132,30L280.086,30L279.04,30L277.994,30L276.949,30L275.903,30L274.857,30L273.811,30L272.765,30L271.72,30L270.674,30L269.628,30L268.582,30L267.537,30L266.491,30L265.445,30L264.399,30L263.353,30L262.308,30L261.262,30L260.216,30L259.17,30L258.124,30L257.079,30L256.033,30L254.987,30L253.941,30L252.895,30L251.85,30L250.804,30L249.758,30L248.712,30L247.666,30L246.621,30L245.575,30L244.529,30L243.483,30L242.437,30L241.392,30L240.346,30L239.3,30L238.254,30L237.208,30L236.163,30L235.117,30L234.071,30L233.025,30L231.979,30L230.934,30L229.888,30L228.842,30L227.796,30L226.75,30L225.705,30L224.659,30L223.613,30L222.567,30L221.521,30L220.476,30L219.43,30L218.384,30L217.338,30L216.292,30L215.247,30L214.201,30L213.155,30L212.109,30L211.064,30L210.018,30L208.972,30L207.926,30L206.88,30L205.835,30L204.789,30L203.743,30L202.697,30L201.651,30L200.606,30L199.56,30L198.514,30L197.468,30L196.422,30L195.377,30L194.331,30L193.285,30L192.239,30L191.193,30L190.148,30L189.102,30L188.056,30L187.01,30L185.964,30L184.919,30L183.873,30L182.827,30L181.781,30L180.735,30L179.69,30L178.644,30L177.598,30L176.552,30L175.506,30L174.461,30L173.415,30L172.369,30L171.323,30L170.277,30L169.232,30L168.186,30L167.14,30L166.094,30L165.048,30L164.003,30L162.957,30L161.911,30L160.865,30L159.819,30L158.774,30L157.728,30L156.682,30L155.636,30L154.59,30L153.545,30L152.499,30L151.453,30L150.407,30L149.362,30L148.316,30L147.27,30L146.224,30L145.178,30L144.133,30L143.087,30L142.041,30L140.995,30L139.949,30L138.904,30L137.858,30L136.812,30L135.766,30L134.72,30L133.675,30L132.629,30L131.583,30L130.537,30L129.491,30L128.446,30L127.4,30L126.354,30L125.308,30L124.262,30L123.217,30L122.171,30L121.125,30L120.079,30L119.033,30L117.988,30L116.942,30L115.896,30L114.85,30L113.804,30L112.759,30L111.713,30L110.667,30L109.621,30L108.575,30L107.53,30L106.484,30L105.438,30L104.392,30L103.346,30L102.301,30L101.255,30L100.209,30L99.163,30L98.117,30L97.072,30L96.026,30L94.98,30L93.934,30L92.889,30L91.843,30L90.797,30L89.751,30L88.705,30L87.66,30L86.614,30L85.568,30L84.522,30L83.476,30L82.431,30L81.385,30L80.339,30L79.293,30L78.247,30L77.202,30L76.156,30L75.11,30L74.064,30L73.018,30L71.973,30L70.927,30L69.881,30L68.835,30L67.789,30L66.744,30L65.698,30L64.652,30L63.606,30L62.56,30L61.515,30L60.469,30L59.423,30L58.377,30L57.331,30L56.286,30L55.24,30L54.194,30L53.148,30L52.102,30L51.057,30L50.011,30L48.965,30L47.919,30L46.873,30L45.828,30L44.782,30L43.736,30L42.69,30L41.644,30L40.599,30L39.553,30L38.507,30L37.461,30L36.416,30L35.37,30L34.324,30L33.278,30L32.232,30L31.187,30L30.141,30L29.095,30L28.049,30L27.003,30L25.958,30L24.912,30L23.866,30L22.82,30L21.774,30L20.729,30L19.683,30L18.637,30L17.591,30L16.545,30L15.5,30L14.454,30L13.408,30L12.362,30L11.316,30L10.271,30L9.225,30L8.179,30L7.133,30L6.087,30L5.042,30L3.996,30L2.95,30L1.904,30L0.858,30L-0.187,30L-1.233,30L-2.279,30L-3.325,30L-4.371,30L-5.416,30L-6.462,30L-7.508,30L-8.554,30L-9.6,30L-10.645,30L-11.691,30L-12.737,30L-13.783,30L-14.829,30L-15.874,30L-16.92,30L-17.966,30L-19.012,30L-20.058,30L-21.103,30L-22.149,30L-23.195,30L-24.241,30L-25.286,30L-26.332,30L-27.378,30L-28.424,30L-29.47,30L-30.515,30L-31.561,30L-32.607,30L-33.653,30L-34.699,30L-35.744,30L-36.79,30L-37.836,30L-38.882,30L-39.928,30L-40.973,30L-42.019,30L-43.065,30L-44.111,30L-45.157,30L-46.202,30L-47.248,30L-48.294,30L-49.34,30L-50.386,30L-51.431,30L-52.477,30L-53.523,30L-54.569,30L-55.615,30L-56.66,30L-57.706,30L-58.752,30L-59.798,30L-60.844,30L-61.889,30L-62.935,30L-63.981,30L-65.027,30L-66.073,30L-67.118,30L-68.164,30L-69.21,30L-70.256,30L-71.302,30L-72.347,30L-73.393,30L-74.439,30L-75.485,30L-76.531,30L-77.576,30L-78.622,30L-79.668,30L-80.714,30L-81.759,30L-82.805,30L-83.851,30L-84.897,30L-85.943,30L-86.988,30L-88.034,30L-89.08,30L-90.126,30L-91.172,30L-92.217,30L-93.263,30L-94.309,30L-95.355,30L-96.401,30L-97.446,30L-98.492,30L-99.538,30L-100.584,30L-101.63,30L-102.675,30L-103.721,30L-104.767,30L-105.813,30L-106.859,30L-107.904,30L-108.95,30L-109.996,30L-111.042,30L-112.088,30L-113.133,30L-114.179,30L-115.225,30L-116.271,30L-117.317,30L-118.362,30L-119.408,30L-120.454,30L-121.5,30L-122.546,30L-123.591,30L-124.637,30Z" fill="red"/></g></g><path class="foreground" aria-hidden="true" d="" display="none"/></g></g><g class="mark-group role-scope concat_2_group" role="graphics-object" aria-roledescription="group mark container"><g transform="translate(0,134)"><path class="background" aria-hidden="true" d="M0,0h300v30h-300Z"/><g><g class="mark-group role-axis" role="graphics-symbol" aria-roledescription="axis" aria-label="X-axis for a linear scale with values from −15 to 15"><g transform="translate(0.5,30.5)"><path class="background" aria-hidden="true" d="M0,0h0v0h0Z" pointer-events="none"/><g><g class="mark-rule role-axis-tick" pointer-events="none"><line transform="translate(0,0)" x2="0" y2="5" stroke="#888" stroke-width="1" opacity="1"/><line transform="translate(50,0)" x2="0" y2="5" stroke="#888" stroke-width="1" opacity="1"/><line transform="translate(100,0)" x2="0" y2="5" stroke="#888" stroke-width="1" opacity="1"/><line transform="translate(150,0)" x2="0" y2="5" stroke="#888" stroke-width="1" opacity="1"/><line transform="translate(200,0)" x2="0" y2="5" stroke="#888" stroke-width="1" opacity="1"/><line transform="translate(250,0)" x2="0" y2="5" stroke="#888" stroke-width="1" opacity="1"/><line transform="translate(300,0)" x2="0" y2="5" stroke="#888" stroke-width="1" opacity="1"/></g><g class="mark-rule role-axis-domain" pointer-events="none"><line transform="translate(0,0)" x2="300" y2="0" stroke="#888" stroke-width="1" opacity="1"/></g></g><path class="foreground" aria-hidden="true" d="" pointer-events="none" display="none"/></g></g><g class="mark-group role-axis" role="graphics-symbol" aria-roledescription="axis" aria-label="Y-axis titled 'density_normalized' for a linear scale with values from 0.0 to 1.0"><g transform="translate(0.5,0.5)"><path class="background" aria-hidden="true" d="M0,0h0v0h0Z" pointer-events="none"/><g><g class="mark-rule role-axis-tick" pointer-events="none"><line transform="translate(0,30)" x2="-5" y2="0" stroke="#888" stroke-width="1" opacity="1"/><line transform="translate(0,0)" x2="-5" y2="0" stroke="#888" stroke-width="1" opacity="1"/></g><g class="mark-text role-axis-label" pointer-events="none"><text text-anchor="end" transform="translate(-7,33)" font-family="sans-serif" font-size="10px" fill="#000" opacity="1">0</text><text text-anchor="end" transform="translate(-7,3)" font-family="sans-serif" font-size="10px" fill="#000" opacity="1">1</text></g><g class="mark-rule role-axis-domain" pointer-events="none"><line transform="translate(0,30)" x2="0" y2="-30" stroke="#888" stroke-width="1" opacity="1"/></g><g class="mark-text role-axis-title" pointer-events="none"><text text-anchor="middle" transform="translate(-16.5615234375,15) rotate(-90) translate(0,-2)" font-family="sans-serif" font-size="11px" font-weight="bold" fill="#000" opacity="1">density_normalized</text></g></g><path class="foreground" aria-hidden="true" d="" pointer-events="none" display="none"/></g></g><g class="mark-area role-mark concat_2_marks" role="graphics-object" aria-roledescription="area mark container"><path aria-label="BT16_average_zscore: −27.4637149389; density_normalized: 1.05768546146e-250" role="graphics-symbol" aria-roledescription="area mark" d="M-124.637,30L-123.591,30L-122.546,30L-121.5,30L-120.454,30L-119.408,30L-118.362,30L-117.317,30L-116.271,30L-115.225,30L-114.179,30L-113.133,30L-112.088,30L-111.042,30L-109.996,30L-108.95,30L-107.904,30L-106.859,30L-105.813,30L-104.767,30L-103.721,30L-102.675,30L-101.63,30L-100.584,30L-99.538,30L-98.492,30L-97.446,30L-96.401,30L-95.355,30L-94.309,30L-93.263,30L-92.217,30L-91.172,30L-90.126,30L-89.08,30L-88.034,30L-86.988,30L-85.943,30L-84.897,30L-83.851,30L-82.805,30L-81.759,30L-80.714,30L-79.668,30L-78.622,30L-77.576,30L-76.531,30L-75.485,30L-74.439,30L-73.393,30L-72.347,30L-71.302,30L-70.256,30L-69.21,30L-68.164,30L-67.118,30L-66.073,30L-65.027,30L-63.981,30L-62.935,30L-61.889,30L-60.844,30L-59.798,30L-58.752,30L-57.706,30L-56.66,30L-55.615,30L-54.569,30L-53.523,30L-52.477,30L-51.431,30L-50.386,30L-49.34,30L-48.294,30L-47.248,30L-46.202,30L-45.157,30L-44.111,30L-43.065,30L-42.019,30L-40.973,30L-39.928,30L-38.882,30L-37.836,30L-36.79,30L-35.744,30L-34.699,30L-33.653,30L-32.607,30L-31.561,30L-30.515,30L-29.47,30L-28.424,30L-27.378,30L-26.332,30L-25.286,30L-24.241,30L-23.195,30L-22.149,30L-21.103,30L-20.058,30L-19.012,30L-17.966,30L-16.92,30L-15.874,30L-14.829,30L-13.783,30L-12.737,30L-11.691,30L-10.645,30L-9.6,30L-8.554,30L-7.508,30L-6.462,30L-5.416,30L-4.371,30L-3.325,30L-2.279,30L-1.233,30L-0.187,30L0.858,30L1.904,29.999L2.95,29.999L3.996,29.998L5.042,29.997L6.087,29.996L7.133,29.994L8.179,29.993L9.225,29.991L10.271,29.989L11.316,29.988L12.362,29.988L13.408,29.988L14.454,29.988L15.5,29.988L16.545,29.988L17.591,29.988L18.637,29.988L19.683,29.987L20.729,29.986L21.774,29.985L22.82,29.984L23.866,29.983L24.912,29.982L25.958,29.981L27.003,29.98L28.049,29.978L29.095,29.978L30.141,29.978L31.187,29.978L32.232,29.98L33.278,29.982L34.324,29.985L35.37,29.987L36.416,29.988L37.461,29.989L38.507,29.989L39.553,29.989L40.599,29.988L41.644,29.988L42.69,29.988L43.736,29.989L44.782,29.99L45.828,29.991L46.873,29.992L47.919,29.993L48.965,29.993L50.011,29.992L51.057,29.991L52.102,29.99L53.148,29.989L54.194,29.988L55.24,29.988L56.286,29.987L57.331,29.987L58.377,29.985L59.423,29.983L60.469,29.979L61.515,29.974L62.56,29.967L63.606,29.959L64.652,29.952L65.698,29.945L66.744,29.941L67.789,29.938L68.835,29.938L69.881,29.94L70.927,29.943L71.973,29.946L73.018,29.948L74.064,29.95L75.11,29.951L76.156,29.95L77.202,29.948L78.247,29.943L79.293,29.937L80.339,29.929L81.385,29.918L82.431,29.905L83.476,29.89L84.522,29.874L85.568,29.858L86.614,29.842L87.66,29.827L88.705,29.815L89.751,29.803L90.797,29.79L91.843,29.777L92.889,29.762L93.934,29.743L94.98,29.721L96.026,29.695L97.072,29.665L98.117,29.632L99.163,29.597L100.209,29.56L101.255,29.521L102.301,29.483L103.346,29.444L104.392,29.405L105.438,29.365L106.484,29.32L107.53,29.268L108.575,29.204L109.621,29.127L110.667,29.032L111.713,28.918L112.759,28.786L113.804,28.634L114.85,28.464L115.896,28.276L116.942,28.071L117.988,27.846L119.033,27.598L120.079,27.324L121.125,27.019L122.171,26.676L123.217,26.289L124.262,25.852L125.308,25.356L126.354,24.793L127.4,24.15L128.446,23.417L129.491,22.581L130.537,21.632L131.583,20.566L132.629,19.382L133.675,18.091L134.72,16.708L135.766,15.253L136.812,13.75L137.858,12.221L138.904,10.684L139.949,9.157L140.995,7.658L142.041,6.207L143.087,4.828L144.133,3.552L145.178,2.413L146.224,1.448L147.27,0.699L148.316,0.203L149.362,0L150.407,0.122L151.453,0.594L152.499,1.424L153.545,2.601L154.59,4.093L155.636,5.845L156.682,7.787L157.728,9.838L158.774,11.916L159.819,13.947L160.865,15.873L161.911,17.65L162.957,19.257L164.003,20.688L165.048,21.948L166.094,23.052L167.14,24.019L168.186,24.866L169.232,25.61L170.277,26.265L171.323,26.841L172.369,27.343L173.415,27.778L174.461,28.148L175.506,28.457L176.552,28.712L177.598,28.917L178.644,29.081L179.69,29.211L180.735,29.315L181.781,29.4L182.827,29.471L183.873,29.533L184.919,29.586L185.964,29.633L187.01,29.673L188.056,29.708L189.102,29.737L190.148,29.761L191.193,29.783L192.239,29.803L193.285,29.823L194.331,29.842L195.377,29.861L196.422,29.879L197.468,29.895L198.514,29.909L199.56,29.92L200.606,29.929L201.651,29.937L202.697,29.943L203.743,29.948L204.789,29.951L205.835,29.954L206.88,29.957L207.926,29.959L208.972,29.962L210.018,29.966L211.064,29.97L212.109,29.974L213.155,29.978L214.201,29.981L215.247,29.983L216.292,29.983L217.338,29.983L218.384,29.982L219.43,29.98L220.476,29.978L221.521,29.977L222.567,29.977L223.613,29.977L224.659,29.978L225.705,29.979L226.75,29.98L227.796,29.981L228.842,29.982L229.888,29.983L230.934,29.983L231.979,29.984L233.025,29.984L234.071,29.985L235.117,29.985L236.163,29.986L237.208,29.986L238.254,29.988L239.3,29.989L240.346,29.991L241.392,29.993L242.437,29.995L243.483,29.996L244.529,29.998L245.575,29.999L246.621,29.999L247.666,30L248.712,30L249.758,30L250.804,30L251.85,30L252.895,30L253.941,30L254.987,30L256.033,30L257.079,30L258.124,30L259.17,30L260.216,30L261.262,30L262.308,30L263.353,30L264.399,30L265.445,30L266.491,30L267.537,30L268.582,30L269.628,30L270.674,30L271.72,30L272.765,30L273.811,30L274.857,30L275.903,30L276.949,30L277.994,30L279.04,30L280.086,30L281.132,30L282.178,30L283.223,30L284.269,30L285.315,30L286.361,30L287.407,30L288.452,30L289.498,30L290.544,30L291.59,30L292.636,30L293.681,30L294.727,30L295.773,30L296.819,30L297.865,30L298.91,30L299.956,30L301.002,30L302.048,30L303.094,30L304.139,30L305.185,30L306.231,30L307.277,30L308.323,30L309.368,30L310.414,30L311.46,30L312.506,30L313.552,30L314.597,30L315.643,30L316.689,30L317.735,30L318.781,30L319.826,30L320.872,30L321.918,30L322.964,30L324.01,30L325.055,30L326.101,30L327.147,30L328.193,30L329.239,30L330.284,30L331.33,30L332.376,30L333.422,30L334.467,30L335.513,30L336.559,30L337.605,30L338.651,30L339.696,30L340.742,30L341.788,30L342.834,30L343.88,30L344.925,30L345.971,30L347.017,30L348.063,30L349.109,30L350.154,30L351.2,30L352.246,30L353.292,30L354.338,30L355.383,30L356.429,30L357.475,30L358.521,30L359.567,30L360.612,30L361.658,30L362.704,30L363.75,30L364.796,30L365.841,30L366.887,30L367.933,30L368.979,30L370.025,30L371.07,30L372.116,30L373.162,30L374.208,30L375.254,30L376.299,30L377.345,30L378.391,30L379.437,30L380.483,30L381.528,30L382.574,30L383.62,30L384.666,30L385.712,30L386.757,30L387.803,30L388.849,30L389.895,30L390.94,30L391.986,30L393.032,30L394.078,30L395.124,30L396.169,30L397.215,30L397.215,30L396.169,30L395.124,30L394.078,30L393.032,30L391.986,30L390.94,30L389.895,30L388.849,30L387.803,30L386.757,30L385.712,30L384.666,30L383.62,30L382.574,30L381.528,30L380.483,30L379.437,30L378.391,30L377.345,30L376.299,30L375.254,30L374.208,30L373.162,30L372.116,30L371.07,30L370.025,30L368.979,30L367.933,30L366.887,30L365.841,30L364.796,30L363.75,30L362.704,30L361.658,30L360.612,30L359.567,30L358.521,30L357.475,30L356.429,30L355.383,30L354.338,30L353.292,30L352.246,30L351.2,30L350.154,30L349.109,30L348.063,30L347.017,30L345.971,30L344.925,30L343.88,30L342.834,30L341.788,30L340.742,30L339.696,30L338.651,30L337.605,30L336.559,30L335.513,30L334.467,30L333.422,30L332.376,30L331.33,30L330.284,30L329.239,30L328.193,30L327.147,30L326.101,30L325.055,30L324.01,30L322.964,30L321.918,30L320.872,30L319.826,30L318.781,30L317.735,30L316.689,30L315.643,30L314.597,30L313.552,30L312.506,30L311.46,30L310.414,30L309.368,30L308.323,30L307.277,30L306.231,30L305.185,30L304.139,30L303.094,30L302.048,30L301.002,30L299.956,30L298.91,30L297.865,30L296.819,30L295.773,30L294.727,30L293.681,30L292.636,30L291.59,30L290.544,30L289.498,30L288.452,30L287.407,30L286.361,30L285.315,30L284.269,30L283.223,30L282.178,30L281.132,30L280.086,30L279.04,30L277.994,30L276.949,30L275.903,30L274.857,30L273.811,30L272.765,30L271.72,30L270.674,30L269.628,30L268.582,30L267.537,30L266.491,30L265.445,30L264.399,30L263.353,30L262.308,30L261.262,30L260.216,30L259.17,30L258.124,30L257.079,30L256.033,30L254.987,30L253.941,30L252.895,30L251.85,30L250.804,30L249.758,30L248.712,30L247.666,30L246.621,30L245.575,30L244.529,30L243.483,30L242.437,30L241.392,30L240.346,30L239.3,30L238.254,30L237.208,30L236.163,30L235.117,30L234.071,30L233.025,30L231.979,30L230.934,30L229.888,30L228.842,30L227.796,30L226.75,30L225.705,30L224.659,30L223.613,30L222.567,30L221.521,30L220.476,30L219.43,30L218.384,30L217.338,30L216.292,30L215.247,30L214.201,30L213.155,30L212.109,30L211.064,30L210.018,30L208.972,30L207.926,30L206.88,30L205.835,30L204.789,30L203.743,30L202.697,30L201.651,30L200.606,30L199.56,30L198.514,30L197.468,30L196.422,30L195.377,30L194.331,30L193.285,30L192.239,30L191.193,30L190.148,30L189.102,30L188.056,30L187.01,30L185.964,30L184.919,30L183.873,30L182.827,30L181.781,30L180.735,30L179.69,30L178.644,30L177.598,30L176.552,30L175.506,30L174.461,30L173.415,30L172.369,30L171.323,30L170.277,30L169.232,30L168.186,30L167.14,30L166.094,30L165.048,30L164.003,30L162.957,30L161.911,30L160.865,30L159.819,30L158.774,30L157.728,30L156.682,30L155.636,30L154.59,30L153.545,30L152.499,30L151.453,30L150.407,30L149.362,30L148.316,30L147.27,30L146.224,30L145.178,30L144.133,30L143.087,30L142.041,30L140.995,30L139.949,30L138.904,30L137.858,30L136.812,30L135.766,30L134.72,30L133.675,30L132.629,30L131.583,30L130.537,30L129.491,30L128.446,30L127.4,30L126.354,30L125.308,30L124.262,30L123.217,30L122.171,30L121.125,30L120.079,30L119.033,30L117.988,30L116.942,30L115.896,30L114.85,30L113.804,30L112.759,30L111.713,30L110.667,30L109.621,30L108.575,30L107.53,30L106.484,30L105.438,30L104.392,30L103.346,30L102.301,30L101.255,30L100.209,30L99.163,30L98.117,30L97.072,30L96.026,30L94.98,30L93.934,30L92.889,30L91.843,30L90.797,30L89.751,30L88.705,30L87.66,30L86.614,30L85.568,30L84.522,30L83.476,30L82.431,30L81.385,30L80.339,30L79.293,30L78.247,30L77.202,30L76.156,30L75.11,30L74.064,30L73.018,30L71.973,30L70.927,30L69.881,30L68.835,30L67.789,30L66.744,30L65.698,30L64.652,30L63.606,30L62.56,30L61.515,30L60.469,30L59.423,30L58.377,30L57.331,30L56.286,30L55.24,30L54.194,30L53.148,30L52.102,30L51.057,30L50.011,30L48.965,30L47.919,30L46.873,30L45.828,30L44.782,30L43.736,30L42.69,30L41.644,30L40.599,30L39.553,30L38.507,30L37.461,30L36.416,30L35.37,30L34.324,30L33.278,30L32.232,30L31.187,30L30.141,30L29.095,30L28.049,30L27.003,30L25.958,30L24.912,30L23.866,30L22.82,30L21.774,30L20.729,30L19.683,30L18.637,30L17.591,30L16.545,30L15.5,30L14.454,30L13.408,30L12.362,30L11.316,30L10.271,30L9.225,30L8.179,30L7.133,30L6.087,30L5.042,30L3.996,30L2.95,30L1.904,30L0.858,30L-0.187,30L-1.233,30L-2.279,30L-3.325,30L-4.371,30L-5.416,30L-6.462,30L-7.508,30L-8.554,30L-9.6,30L-10.645,30L-11.691,30L-12.737,30L-13.783,30L-14.829,30L-15.874,30L-16.92,30L-17.966,30L-19.012,30L-20.058,30L-21.103,30L-22.149,30L-23.195,30L-24.241,30L-25.286,30L-26.332,30L-27.378,30L-28.424,30L-29.47,30L-30.515,30L-31.561,30L-32.607,30L-33.653,30L-34.699,30L-35.744,30L-36.79,30L-37.836,30L-38.882,30L-39.928,30L-40.973,30L-42.019,30L-43.065,30L-44.111,30L-45.157,30L-46.202,30L-47.248,30L-48.294,30L-49.34,30L-50.386,30L-51.431,30L-52.477,30L-53.523,30L-54.569,30L-55.615,30L-56.66,30L-57.706,30L-58.752,30L-59.798,30L-60.844,30L-61.889,30L-62.935,30L-63.981,30L-65.027,30L-66.073,30L-67.118,30L-68.164,30L-69.21,30L-70.256,30L-71.302,30L-72.347,30L-73.393,30L-74.439,30L-75.485,30L-76.531,30L-77.576,30L-78.622,30L-79.668,30L-80.714,30L-81.759,30L-82.805,30L-83.851,30L-84.897,30L-85.943,30L-86.988,30L-88.034,30L-89.08,30L-90.126,30L-91.172,30L-92.217,30L-93.263,30L-94.309,30L-95.355,30L-96.401,30L-97.446,30L-98.492,30L-99.538,30L-100.584,30L-101.63,30L-102.675,30L-103.721,30L-104.767,30L-105.813,30L-106.859,30L-107.904,30L-108.95,30L-109.996,30L-111.042,30L-112.088,30L-113.133,30L-114.179,30L-115.225,30L-116.271,30L-117.317,30L-118.362,30L-119.408,30L-120.454,30L-121.5,30L-122.546,30L-123.591,30L-124.637,30Z" fill="gray"/></g></g><path class="foreground" aria-hidden="true" d="" display="none"/></g></g><g class="mark-group role-scope concat_3_group" role="graphics-object" aria-roledescription="group mark container"><g transform="translate(0,201)"><path class="background" aria-hidden="true" d="M0,0h300v30h-300Z"/><g><g class="mark-group role-axis" role="graphics-symbol" aria-roledescription="axis" aria-label="X-axis for a linear scale with values from −15 to 15"><g transform="translate(0.5,30.5)"><path class="background" aria-hidden="true" d="M0,0h0v0h0Z" pointer-events="none"/><g><g class="mark-rule role-axis-tick" pointer-events="none"><line transform="translate(0,0)" x2="0" y2="5" stroke="#888" stroke-width="1" opacity="1"/><line transform="translate(50,0)" x2="0" y2="5" stroke="#888" stroke-width="1" opacity="1"/><line transform="translate(100,0)" x2="0" y2="5" stroke="#888" stroke-width="1" opacity="1"/><line transform="translate(150,0)" x2="0" y2="5" stroke="#888" stroke-width="1" opacity="1"/><line transform="translate(200,0)" x2="0" y2="5" stroke="#888" stroke-width="1" opacity="1"/><line transform="translate(250,0)" x2="0" y2="5" stroke="#888" stroke-width="1" opacity="1"/><line transform="translate(300,0)" x2="0" y2="5" stroke="#888" stroke-width="1" opacity="1"/></g><g class="mark-text role-axis-label" pointer-events="none"><text text-anchor="start" transform="translate(0,15)" font-family="sans-serif" font-size="10px" fill="#000" opacity="1">−15</text><text text-anchor="middle" transform="translate(50,15)" font-family="sans-serif" font-size="10px" fill="#000" opacity="1">−10</text><text text-anchor="middle" transform="translate(100,15)" font-family="sans-serif" font-size="10px" fill="#000" opacity="1">−5</text><text text-anchor="middle" transform="translate(150,15)" font-family="sans-serif" font-size="10px" fill="#000" opacity="1">0</text><text text-anchor="middle" transform="translate(200,15)" font-family="sans-serif" font-size="10px" fill="#000" opacity="1">5</text><text text-anchor="middle" transform="translate(250,15)" font-family="sans-serif" font-size="10px" fill="#000" opacity="1">10</text><text text-anchor="end" transform="translate(300,15)" font-family="sans-serif" font-size="10px" fill="#000" opacity="1">15</text></g><g class="mark-rule role-axis-domain" pointer-events="none"><line transform="translate(0,0)" x2="300" y2="0" stroke="#888" stroke-width="1" opacity="1"/></g></g><path class="foreground" aria-hidden="true" d="" pointer-events="none" display="none"/></g></g><g class="mark-group role-axis" role="graphics-symbol" aria-roledescription="axis" aria-label="Y-axis titled 'density_normalized' for a linear scale with values from 0.0 to 1.0"><g transform="translate(0.5,0.5)"><path class="background" aria-hidden="true" d="M0,0h0v0h0Z" pointer-events="none"/><g><g class="mark-rule role-axis-tick" pointer-events="none"><line transform="translate(0,30)" x2="-5" y2="0" stroke="#888" stroke-width="1" opacity="1"/><line transform="translate(0,0)" x2="-5" y2="0" stroke="#888" stroke-width="1" opacity="1"/></g><g class="mark-text role-axis-label" pointer-events="none"><text text-anchor="end" transform="translate(-7,33)" font-family="sans-serif" font-size="10px" fill="#000" opacity="1">0</text><text text-anchor="end" transform="translate(-7,3)" font-family="sans-serif" font-size="10px" fill="#000" opacity="1">1</text></g><g class="mark-rule role-axis-domain" pointer-events="none"><line transform="translate(0,30)" x2="0" y2="-30" stroke="#888" stroke-width="1" opacity="1"/></g><g class="mark-text role-axis-title" pointer-events="none"><text text-anchor="middle" transform="translate(-16.5615234375,15) rotate(-90) translate(0,-2)" font-family="sans-serif" font-size="11px" font-weight="bold" fill="#000" opacity="1">density_normalized</text></g></g><path class="foreground" aria-hidden="true" d="" pointer-events="none" display="none"/></g></g><g class="mark-area role-mark concat_3_marks" role="graphics-object" aria-roledescription="area mark container"><path aria-label="BT16_average_zscore: −27.4637149389; density_normalized: 0" role="graphics-symbol" aria-roledescription="area mark" d="M-124.637,30L-123.591,30L-122.546,30L-121.5,30L-120.454,30L-119.408,30L-118.362,30L-117.317,30L-116.271,30L-115.225,30L-114.179,30L-113.133,30L-112.088,30L-111.042,30L-109.996,30L-108.95,30L-107.904,30L-106.859,30L-105.813,30L-104.767,30L-103.721,30L-102.675,30L-101.63,30L-100.584,30L-99.538,30L-98.492,30L-97.446,30L-96.401,30L-95.355,30L-94.309,30L-93.263,30L-92.217,30L-91.172,30L-90.126,30L-89.08,30L-88.034,30L-86.988,30L-85.943,30L-84.897,30L-83.851,30L-82.805,30L-81.759,30L-80.714,30L-79.668,30L-78.622,30L-77.576,30L-76.531,30L-75.485,30L-74.439,30L-73.393,30L-72.347,30L-71.302,30L-70.256,30L-69.21,30L-68.164,30L-67.118,30L-66.073,30L-65.027,30L-63.981,30L-62.935,30L-61.889,30L-60.844,30L-59.798,30L-58.752,30L-57.706,30L-56.66,30L-55.615,30L-54.569,30L-53.523,30L-52.477,30L-51.431,30L-50.386,30L-49.34,30L-48.294,30L-47.248,30L-46.202,30L-45.157,30L-44.111,30L-43.065,30L-42.019,30L-40.973,30L-39.928,30L-38.882,30L-37.836,30L-36.79,30L-35.744,30L-34.699,30L-33.653,30L-32.607,30L-31.561,30L-30.515,30L-29.47,30L-28.424,30L-27.378,30L-26.332,30L-25.286,30L-24.241,30L-23.195,30L-22.149,30L-21.103,30L-20.058,30L-19.012,30L-17.966,30L-16.92,30L-15.874,30L-14.829,30L-13.783,30L-12.737,30L-11.691,30L-10.645,30L-9.6,30L-8.554,30L-7.508,30L-6.462,30L-5.416,30L-4.371,30L-3.325,30L-2.279,30L-1.233,30L-0.187,30L0.858,30L1.904,30L2.95,30L3.996,30L5.042,30L6.087,30L7.133,30L8.179,30L9.225,30L10.271,30L11.316,30L12.362,30L13.408,30L14.454,30L15.5,30L16.545,30L17.591,30L18.637,30L19.683,30L20.729,30L21.774,30L22.82,30L23.866,30L24.912,30L25.958,30L27.003,30L28.049,30L29.095,30L30.141,30L31.187,30L32.232,30L33.278,30L34.324,30L35.37,30L36.416,30L37.461,30L38.507,30L39.553,30L40.599,30L41.644,30L42.69,30L43.736,30L44.782,30L45.828,30L46.873,30L47.919,30L48.965,30L50.011,30L51.057,30L52.102,30L53.148,30L54.194,30L55.24,30L56.286,30L57.331,30L58.377,30L59.423,30L60.469,30L61.515,30L62.56,30L63.606,30L64.652,30L65.698,30L66.744,30L67.789,30L68.835,30L69.881,30L70.927,30L71.973,30L73.018,30L74.064,30L75.11,30L76.156,30L77.202,30L78.247,30L79.293,30L80.339,30L81.385,30L82.431,30L83.476,30L84.522,30L85.568,30L86.614,30L87.66,30L88.705,30L89.751,30L90.797,30L91.843,30L92.889,30L93.934,30L94.98,30L96.026,30L97.072,30L98.117,30L99.163,30L100.209,30L101.255,30L102.301,30L103.346,30L104.392,30L105.438,30L106.484,30L107.53,30L108.575,30L109.621,30L110.667,30L111.713,30L112.759,30L113.804,30L114.85,30L115.896,30L116.942,30L117.988,30L119.033,30L120.079,30L121.125,30L122.171,30L123.217,30L124.262,30L125.308,30L126.354,30L127.4,29.997L128.446,29.981L129.491,29.927L130.537,29.827L131.583,29.748L132.629,29.772L133.675,29.858L134.72,29.872L135.766,29.694L136.812,29.292L137.858,28.741L138.904,28.147L139.949,27.533L140.995,26.755L142.041,25.371L143.087,23.043L144.133,20.069L145.178,16.693L146.224,12.546L147.27,7.696L148.316,3.337L149.362,0.673L150.407,0L151.453,1.276L152.499,4.295L153.545,8.173L154.59,11.895L155.636,14.889L156.682,16.914L157.728,18.365L158.774,20.211L159.819,22.662L160.865,24.792L161.911,26.072L162.957,27.037L164.003,28.152L165.048,29.16L166.094,29.737L167.14,29.944L168.186,29.992L169.232,29.999L170.277,30L171.323,30L172.369,30L173.415,30L174.461,30L175.506,30L176.552,30L177.598,30L178.644,30L179.69,30L180.735,30L181.781,30L182.827,30L183.873,30L184.919,30L185.964,30L187.01,30L188.056,30L189.102,30L190.148,30L191.193,30L192.239,30L193.285,30L194.331,30L195.377,30L196.422,30L197.468,30L198.514,30L199.56,30L200.606,30L201.651,30L202.697,30L203.743,30L204.789,30L205.835,30L206.88,30L207.926,30L208.972,30L210.018,30L211.064,30L212.109,30L213.155,30L214.201,30L215.247,30L216.292,30L217.338,30L218.384,30L219.43,30L220.476,30L221.521,30L222.567,30L223.613,30L224.659,30L225.705,30L226.75,30L227.796,30L228.842,30L229.888,30L230.934,30L231.979,30L233.025,30L234.071,30L235.117,30L236.163,30L237.208,30L238.254,30L239.3,30L240.346,30L241.392,30L242.437,30L243.483,30L244.529,30L245.575,30L246.621,30L247.666,30L248.712,30L249.758,30L250.804,30L251.85,30L252.895,30L253.941,30L254.987,30L256.033,30L257.079,30L258.124,30L259.17,30L260.216,30L261.262,30L262.308,30L263.353,30L264.399,30L265.445,30L266.491,30L267.537,30L268.582,30L269.628,30L270.674,30L271.72,30L272.765,30L273.811,30L274.857,30L275.903,30L276.949,30L277.994,30L279.04,30L280.086,30L281.132,30L282.178,30L283.223,30L284.269,30L285.315,30L286.361,30L287.407,30L288.452,30L289.498,30L290.544,30L291.59,30L292.636,30L293.681,30L294.727,30L295.773,30L296.819,30L297.865,30L298.91,30L299.956,30L301.002,30L302.048,30L303.094,30L304.139,30L305.185,30L306.231,30L307.277,30L308.323,30L309.368,30L310.414,30L311.46,30L312.506,30L313.552,30L314.597,30L315.643,30L316.689,30L317.735,30L318.781,30L319.826,30L320.872,30L321.918,30L322.964,30L324.01,30L325.055,30L326.101,30L327.147,30L328.193,30L329.239,30L330.284,30L331.33,30L332.376,30L333.422,30L334.467,30L335.513,30L336.559,30L337.605,30L338.651,30L339.696,30L340.742,30L341.788,30L342.834,30L343.88,30L344.925,30L345.971,30L347.017,30L348.063,30L349.109,30L350.154,30L351.2,30L352.246,30L353.292,30L354.338,30L355.383,30L356.429,30L357.475,30L358.521,30L359.567,30L360.612,30L361.658,30L362.704,30L363.75,30L364.796,30L365.841,30L366.887,30L367.933,30L368.979,30L370.025,30L371.07,30L372.116,30L373.162,30L374.208,30L375.254,30L376.299,30L377.345,30L378.391,30L379.437,30L380.483,30L381.528,30L382.574,30L383.62,30L384.666,30L385.712,30L386.757,30L387.803,30L388.849,30L389.895,30L390.94,30L391.986,30L393.032,30L394.078,30L395.124,30L396.169,30L397.215,30L397.215,30L396.169,30L395.124,30L394.078,30L393.032,30L391.986,30L390.94,30L389.895,30L388.849,30L387.803,30L386.757,30L385.712,30L384.666,30L383.62,30L382.574,30L381.528,30L380.483,30L379.437,30L378.391,30L377.345,30L376.299,30L375.254,30L374.208,30L373.162,30L372.116,30L371.07,30L370.025,30L368.979,30L367.933,30L366.887,30L365.841,30L364.796,30L363.75,30L362.704,30L361.658,30L360.612,30L359.567,30L358.521,30L357.475,30L356.429,30L355.383,30L354.338,30L353.292,30L352.246,30L351.2,30L350.154,30L349.109,30L348.063,30L347.017,30L345.971,30L344.925,30L343.88,30L342.834,30L341.788,30L340.742,30L339.696,30L338.651,30L337.605,30L336.559,30L335.513,30L334.467,30L333.422,30L332.376,30L331.33,30L330.284,30L329.239,30L328.193,30L327.147,30L326.101,30L325.055,30L324.01,30L322.964,30L321.918,30L320.872,30L319.826,30L318.781,30L317.735,30L316.689,30L315.643,30L314.597,30L313.552,30L312.506,30L311.46,30L310.414,30L309.368,30L308.323,30L307.277,30L306.231,30L305.185,30L304.139,30L303.094,30L302.048,30L301.002,30L299.956,30L298.91,30L297.865,30L296.819,30L295.773,30L294.727,30L293.681,30L292.636,30L291.59,30L290.544,30L289.498,30L288.452,30L287.407,30L286.361,30L285.315,30L284.269,30L283.223,30L282.178,30L281.132,30L280.086,30L279.04,30L277.994,30L276.949,30L275.903,30L274.857,30L273.811,30L272.765,30L271.72,30L270.674,30L269.628,30L268.582,30L267.537,30L266.491,30L265.445,30L264.399,30L263.353,30L262.308,30L261.262,30L260.216,30L259.17,30L258.124,30L257.079,30L256.033,30L254.987,30L253.941,30L252.895,30L251.85,30L250.804,30L249.758,30L248.712,30L247.666,30L246.621,30L245.575,30L244.529,30L243.483,30L242.437,30L241.392,30L240.346,30L239.3,30L238.254,30L237.208,30L236.163,30L235.117,30L234.071,30L233.025,30L231.979,30L230.934,30L229.888,30L228.842,30L227.796,30L226.75,30L225.705,30L224.659,30L223.613,30L222.567,30L221.521,30L220.476,30L219.43,30L218.384,30L217.338,30L216.292,30L215.247,30L214.201,30L213.155,30L212.109,30L211.064,30L210.018,30L208.972,30L207.926,30L206.88,30L205.835,30L204.789,30L203.743,30L202.697,30L201.651,30L200.606,30L199.56,30L198.514,30L197.468,30L196.422,30L195.377,30L194.331,30L193.285,30L192.239,30L191.193,30L190.148,30L189.102,30L188.056,30L187.01,30L185.964,30L184.919,30L183.873,30L182.827,30L181.781,30L180.735,30L179.69,30L178.644,30L177.598,30L176.552,30L175.506,30L174.461,30L173.415,30L172.369,30L171.323,30L170.277,30L169.232,30L168.186,30L167.14,30L166.094,30L165.048,30L164.003,30L162.957,30L161.911,30L160.865,30L159.819,30L158.774,30L157.728,30L156.682,30L155.636,30L154.59,30L153.545,30L152.499,30L151.453,30L150.407,30L149.362,30L148.316,30L147.27,30L146.224,30L145.178,30L144.133,30L143.087,30L142.041,30L140.995,30L139.949,30L138.904,30L137.858,30L136.812,30L135.766,30L134.72,30L133.675,30L132.629,30L131.583,30L130.537,30L129.491,30L128.446,30L127.4,30L126.354,30L125.308,30L124.262,30L123.217,30L122.171,30L121.125,30L120.079,30L119.033,30L117.988,30L116.942,30L115.896,30L114.85,30L113.804,30L112.759,30L111.713,30L110.667,30L109.621,30L108.575,30L107.53,30L106.484,30L105.438,30L104.392,30L103.346,30L102.301,30L101.255,30L100.209,30L99.163,30L98.117,30L97.072,30L96.026,30L94.98,30L93.934,30L92.889,30L91.843,30L90.797,30L89.751,30L88.705,30L87.66,30L86.614,30L85.568,30L84.522,30L83.476,30L82.431,30L81.385,30L80.339,30L79.293,30L78.247,30L77.202,30L76.156,30L75.11,30L74.064,30L73.018,30L71.973,30L70.927,30L69.881,30L68.835,30L67.789,30L66.744,30L65.698,30L64.652,30L63.606,30L62.56,30L61.515,30L60.469,30L59.423,30L58.377,30L57.331,30L56.286,30L55.24,30L54.194,30L53.148,30L52.102,30L51.057,30L50.011,30L48.965,30L47.919,30L46.873,30L45.828,30L44.782,30L43.736,30L42.69,30L41.644,30L40.599,30L39.553,30L38.507,30L37.461,30L36.416,30L35.37,30L34.324,30L33.278,30L32.232,30L31.187,30L30.141,30L29.095,30L28.049,30L27.003,30L25.958,30L24.912,30L23.866,30L22.82,30L21.774,30L20.729,30L19.683,30L18.637,30L17.591,30L16.545,30L15.5,30L14.454,30L13.408,30L12.362,30L11.316,30L10.271,30L9.225,30L8.179,30L7.133,30L6.087,30L5.042,30L3.996,30L2.95,30L1.904,30L0.858,30L-0.187,30L-1.233,30L-2.279,30L-3.325,30L-4.371,30L-5.416,30L-6.462,30L-7.508,30L-8.554,30L-9.6,30L-10.645,30L-11.691,30L-12.737,30L-13.783,30L-14.829,30L-15.874,30L-16.92,30L-17.966,30L-19.012,30L-20.058,30L-21.103,30L-22.149,30L-23.195,30L-24.241,30L-25.286,30L-26.332,30L-27.378,30L-28.424,30L-29.47,30L-30.515,30L-31.561,30L-32.607,30L-33.653,30L-34.699,30L-35.744,30L-36.79,30L-37.836,30L-38.882,30L-39.928,30L-40.973,30L-42.019,30L-43.065,30L-44.111,30L-45.157,30L-46.202,30L-47.248,30L-48.294,30L-49.34,30L-50.386,30L-51.431,30L-52.477,30L-53.523,30L-54.569,30L-55.615,30L-56.66,30L-57.706,30L-58.752,30L-59.798,30L-60.844,30L-61.889,30L-62.935,30L-63.981,30L-65.027,30L-66.073,30L-67.118,30L-68.164,30L-69.21,30L-70.256,30L-71.302,30L-72.347,30L-73.393,30L-74.439,30L-75.485,30L-76.531,30L-77.576,30L-78.622,30L-79.668,30L-80.714,30L-81.759,30L-82.805,30L-83.851,30L-84.897,30L-85.943,30L-86.988,30L-88.034,30L-89.08,30L-90.126,30L-91.172,30L-92.217,30L-93.263,30L-94.309,30L-95.355,30L-96.401,30L-97.446,30L-98.492,30L-99.538,30L-100.584,30L-101.63,30L-102.675,30L-103.721,30L-104.767,30L-105.813,30L-106.859,30L-107.904,30L-108.95,30L-109.996,30L-111.042,30L-112.088,30L-113.133,30L-114.179,30L-115.225,30L-116.271,30L-117.317,30L-118.362,30L-119.408,30L-120.454,30L-121.5,30L-122.546,30L-123.591,30L-124.637,30Z" fill="black"/></g></g><path class="foreground" aria-hidden="true" d="" display="none"/></g></g></g><path class="foreground" aria-hidden="true" d="" display="none"/></g></g></g></svg>