<svg xmlns="http://www.w3.org/2000/svg" xmlns:xlink="http://www.w3.org/1999/xlink" version="1.1" class="marks" width="397" height="315" viewBox="0 0 397 315"><rect width="397" height="315" fill="white"/><g fill="none" stroke-miterlimit="10" transform="translate(33,42)"><g class="mark-group role-frame root" role="graphics-object" aria-roledescription="group mark container"><g transform="translate(0,0)"><path class="background" aria-hidden="true" d="M0,0h300v0h-300Z"/><g><g class="mark-group role-scope concat_0_group" role="graphics-object" aria-roledescription="group mark container"><g transform="translate(0,0)"><path class="background" aria-hidden="true" d="M0,0h300v30h-300Z"/><g><g class="mark-group role-axis" role="graphics-symbol" aria-roledescription="axis" aria-label="X-axis for a linear scale with values from −15 to 15"><g transform="translate(0.5,30.5)"><path class="background" aria-hidden="true" d="M0,0h0v0h0Z" pointer-events="none"/><g><g class="mark-rule role-axis-tick" pointer-events="none"><line transform="translate(0,0)" x2="0" y2="5" stroke="#888" stroke-width="1" opacity="1"/><line transform="translate(50,0)" x2="0" y2="5" stroke="#888" stroke-width="1" opacity="1"/><line transform="translate(100,0)" x2="0" y2="5" stroke="#888" stroke-width="1" opacity="1"/><line transform="translate(150,0)" x2="0" y2="5" stroke="#888" stroke-width="1" opacity="1"/><line transform="translate(200,0)" x2="0" y2="5" stroke="#888" stroke-width="1" opacity="1"/><line transform="translate(250,0)" x2="0" y2="5" stroke="#888" stroke-width="1" opacity="1"/><line transform="translate(300,0)" x2="0" y2="5" stroke="#888" stroke-width="1" opacity="1"/></g><g class="mark-rule role-axis-domain" pointer-events="none"><line transform="translate(0,0)" x2="300" y2="0" stroke="#888" stroke-width="1" opacity="1"/></g></g><path class="foreground" aria-hidden="true" d="" pointer-events="none" display="none"/></g></g><g class="mark-group role-axis" role="graphics-symbol" aria-roledescription="axis" aria-label="Y-axis titled 'density_normalized' for a linear scale with values from 0.0 to 1.0"><g transform="translate(0.5,0.5)"><path class="background" aria-hidden="true" d="M0,0h0v0h0Z" pointer-events="none"/><g><g class="mark-rule role-axis-tick" pointer-events="none"><line transform="translate(0,30)" x2="-5" y2="0" stroke="#888" stroke-width="1" opacity="1"/><line transform="translate(0,0)" x2="-5" y2="0" stroke="#888" stroke-width="1" opacity="1"/></g><g class="mark-text role-axis-label" pointer-events="none"><text text-anchor="end" transform="translate(-7,33)" font-family="sans-serif" font-size="10px" fill="#000" opacity="1">0</text><text text-anchor="end" transform="translate(-7,3)" font-family="sans-serif" font-size="10px" fill="#000" opacity="1">1</text></g><g class="mark-rule role-axis-domain" pointer-events="none"><line transform="translate(0,30)" x2="0" y2="-30" stroke="#888" stroke-width="1" opacity="1"/></g><g class="mark-text role-axis-title" pointer-events="none"><text text-anchor="middle" transform="translate(-16.5615234375,15) rotate(-90) translate(0,-2)" font-family="sans-serif" font-size="11px" font-weight="bold" fill="#000" opacity="1">density_normalized</text></g></g><path class="foreground" aria-hidden="true" d="" pointer-events="none" display="none"/></g></g><g class="mark-area role-mark concat_0_marks" role="graphics-object" aria-roledescription="area mark container"><path aria-label="RCRF1009T_average_zscore: −14.9358909437; density_normalized: 1.41501213739e-106" role="graphics-symbol" aria-roledescription="area mark" d="M0.641,30L1.357,30L2.074,30L2.79,30L3.507,30L4.223,30L4.939,30L5.656,30L6.372,30L7.089,30L7.805,30L8.521,30L9.238,30L9.954,30L10.671,30L11.387,30L12.103,30L12.82,30L13.536,30L14.253,30L14.969,30L15.685,30L16.402,30L17.118,30L17.835,30L18.551,30L19.267,30L19.984,30L20.7,30L21.417,30L22.133,30L22.849,30L23.566,30L24.282,30L24.999,30L25.715,30L26.431,30L27.148,30L27.864,30L28.58,30L29.297,30L30.013,30L30.73,30L31.446,30L32.162,30L32.879,30L33.595,30L34.312,30L35.028,30L35.744,30L36.461,30L37.177,30L37.894,30L38.61,30L39.326,30L40.043,30L40.759,30L41.476,30L42.192,30L42.908,30L43.625,30L44.341,30L45.058,30L45.774,30L46.49,30L47.207,30L47.923,30L48.64,30L49.356,30L50.072,30L50.789,30L51.505,30L52.221,30L52.938,30L53.654,30L54.371,30L55.087,30L55.803,30L56.52,30L57.236,30L57.953,30L58.669,30L59.385,30L60.102,30L60.818,30L61.535,30L62.251,30L62.967,30L63.684,30L64.4,30L65.117,30L65.833,30L66.549,30L67.266,30L67.982,30L68.699,30L69.415,30L70.131,30L70.848,30L71.564,30L72.281,30L72.997,30L73.713,30L74.43,30L75.146,30L75.863,30L76.579,30L77.295,30L78.012,30L78.728,30L79.444,30L80.161,30L80.877,30L81.594,30L82.31,30L83.026,30L83.743,30L84.459,30L85.176,30L85.892,30L86.608,30L87.325,30L88.041,30L88.758,30L89.474,30L90.19,30L90.907,30L91.623,30L92.34,30L93.056,30L93.772,30L94.489,30L95.205,30L95.922,30L96.638,30L97.354,30L98.071,30L98.787,30L99.504,30L100.22,30L100.936,30L101.653,30L102.369,30L103.086,30L103.802,30L104.518,30L105.235,30L105.951,30L106.667,30L107.384,30L108.1,30L108.817,30L109.533,30L110.249,29.999L110.966,29.999L111.682,29.999L112.399,29.998L113.115,29.997L113.831,29.996L114.548,29.994L115.264,29.991L115.981,29.988L116.697,29.983L117.413,29.977L118.13,29.969L118.846,29.958L119.563,29.944L120.279,29.927L120.995,29.905L121.712,29.878L122.428,29.844L123.145,29.804L123.861,29.755L124.577,29.697L125.294,29.628L126.01,29.548L126.727,29.455L127.443,29.348L128.159,29.227L128.876,29.091L129.592,28.938L130.309,28.768L131.025,28.58L131.741,28.375L132.458,28.151L133.174,27.909L133.89,27.647L134.607,27.365L135.323,27.062L136.04,26.738L136.756,26.391L137.472,26.021L138.189,25.628L138.905,25.209L139.622,24.766L140.338,24.299L141.054,23.808L141.771,23.295L142.487,22.764L143.204,22.217L143.92,21.661L144.636,21.1L145.353,20.541L146.069,19.99L146.786,19.454L147.502,18.94L148.218,18.453L148.935,17.998L149.651,17.578L150.368,17.192L151.084,16.841L151.8,16.519L152.517,16.223L153.233,15.942L153.95,15.668L154.666,15.389L155.382,15.095L156.099,14.772L156.815,14.411L157.532,14.003L158.248,13.54L158.964,13.019L159.681,12.438L160.397,11.8L161.113,11.11L161.83,10.376L162.546,9.609L163.263,8.822L163.979,8.027L164.695,7.238L165.412,6.468L166.128,5.727L166.845,5.024L167.561,4.367L168.277,3.76L168.994,3.205L169.71,2.702L170.427,2.251L171.143,1.847L171.859,1.49L172.576,1.174L173.292,0.898L174.009,0.66L174.725,0.458L175.441,0.292L176.158,0.162L176.874,0.069L177.591,0.015L178.307,0L179.023,0.025L179.74,0.092L180.456,0.198L181.173,0.345L181.889,0.531L182.605,0.755L183.322,1.015L184.038,1.311L184.754,1.64L185.471,2.004L186.187,2.402L186.904,2.835L187.62,3.302L188.336,3.805L189.053,4.344L189.769,4.917L190.486,5.526L191.202,6.166L191.918,6.835L192.635,7.529L193.351,8.243L194.068,8.973L194.784,9.714L195.5,10.461L196.217,11.211L196.933,11.959L197.65,12.705L198.366,13.448L199.082,14.186L199.799,14.92L200.515,15.652L201.232,16.381L201.948,17.109L202.664,17.834L203.381,18.556L204.097,19.272L204.814,19.981L205.53,20.677L206.246,21.356L206.963,22.013L207.679,22.642L208.396,23.239L209.112,23.799L209.828,24.318L210.545,24.793L211.261,25.221L211.977,25.603L212.694,25.939L213.41,26.23L214.127,26.48L214.843,26.69L215.559,26.867L216.276,27.014L216.992,27.137L217.709,27.24L218.425,27.328L219.141,27.405L219.858,27.476L220.574,27.544L221.291,27.612L222.007,27.682L222.723,27.756L223.44,27.836L224.156,27.922L224.873,28.013L225.589,28.111L226.305,28.214L227.022,28.321L227.738,28.432L228.455,28.544L229.171,28.656L229.887,28.768L230.604,28.876L231.32,28.98L232.037,29.077L232.753,29.168L233.469,29.251L234.186,29.324L234.902,29.388L235.619,29.441L236.335,29.485L237.051,29.519L237.768,29.544L238.484,29.56L239.2,29.568L239.917,29.57L240.633,29.566L241.35,29.558L242.066,29.546L242.782,29.531L243.499,29.516L244.215,29.499L244.932,29.483L245.648,29.468L246.364,29.454L247.081,29.443L247.797,29.434L248.514,29.429L249.23,29.427L249.946,29.429L250.663,29.435L251.379,29.445L252.096,29.459L252.812,29.477L253.528,29.499L254.245,29.525L254.961,29.554L255.678,29.585L256.394,29.618L257.11,29.652L257.827,29.686L258.543,29.721L259.26,29.754L259.976,29.786L260.692,29.815L261.409,29.843L262.125,29.867L262.842,29.889L263.558,29.908L264.274,29.924L264.991,29.936L265.707,29.946L266.423,29.953L267.14,29.957L267.856,29.959L268.573,29.957L269.289,29.954L270.005,29.948L270.722,29.939L271.438,29.929L272.155,29.916L272.871,29.902L273.587,29.886L274.304,29.869L275.02,29.851L275.737,29.833L276.453,29.816L277.169,29.799L277.886,29.784L278.602,29.771L279.319,29.761L280.035,29.753L280.751,29.75L281.468,29.749L282.184,29.753L282.901,29.759L283.617,29.769L284.333,29.782L285.05,29.797L285.766,29.814L286.483,29.831L287.199,29.849L287.915,29.868L288.632,29.885L289.348,29.902L290.064,29.917L290.781,29.931L291.497,29.944L292.214,29.955L292.93,29.964L293.646,29.972L294.363,29.978L295.079,29.983L295.796,29.987L296.512,29.991L297.228,29.993L297.945,29.995L298.661,29.997L299.378,29.998L300.094,29.998L300.81,29.999L301.527,29.999L302.243,30L302.96,30L303.676,30L304.392,30L305.109,30L305.825,30L306.542,30L307.258,30L307.974,30L308.691,30L309.407,30L310.124,30L310.84,30L311.556,30L312.273,30L312.989,30L313.706,30L314.422,30L315.138,30L315.855,30L316.571,30L317.287,30L318.004,30L318.72,30L319.437,30L320.153,30L320.869,30L321.586,30L322.302,30L323.019,30L323.735,30L324.451,30L325.168,30L325.884,30L326.601,30L327.317,30L328.033,30L328.75,30L329.466,30L330.183,30L330.899,30L331.615,30L332.332,30L333.048,30L333.765,30L334.481,30L335.197,30L335.914,30L336.63,30L337.347,30L338.063,30L338.779,30L339.496,30L340.212,30L340.929,30L341.645,30L342.361,30L343.078,30L343.794,30L344.51,30L345.227,30L345.943,30L346.66,30L347.376,30L348.092,30L348.809,30L349.525,30L350.242,30L350.958,30L351.674,30L352.391,30L353.107,30L353.824,30L354.54,30L355.256,30L355.973,30L356.689,30L357.406,30L358.122,30L358.122,30L357.406,30L356.689,30L355.973,30L355.256,30L354.54,30L353.824,30L353.107,30L352.391,30L351.674,30L350.958,30L350.242,30L349.525,30L348.809,30L348.092,30L347.376,30L346.66,30L345.943,30L345.227,30L344.51,30L343.794,30L343.078,30L342.361,30L341.645,30L340.929,30L340.212,30L339.496,30L338.779,30L338.063,30L337.347,30L336.63,30L335.914,30L335.197,30L334.481,30L333.765,30L333.048,30L332.332,30L331.615,30L330.899,30L330.183,30L329.466,30L328.75,30L328.033,30L327.317,30L326.601,30L325.884,30L325.168,30L324.451,30L323.735,30L323.019,30L322.302,30L321.586,30L320.869,30L320.153,30L319.437,30L318.72,30L318.004,30L317.287,30L316.571,30L315.855,30L315.138,30L314.422,30L313.706,30L312.989,30L312.273,30L311.556,30L310.84,30L310.124,30L309.407,30L308.691,30L307.974,30L307.258,30L306.542,30L305.825,30L305.109,30L304.392,30L303.676,30L302.96,30L302.243,30L301.527,30L300.81,30L300.094,30L299.378,30L298.661,30L297.945,30L297.228,30L296.512,30L295.796,30L295.079,30L294.363,30L293.646,30L292.93,30L292.214,30L291.497,30L290.781,30L290.064,30L289.348,30L288.632,30L287.915,30L287.199,30L286.483,30L285.766,30L285.05,30L284.333,30L283.617,30L282.901,30L282.184,30L281.468,30L280.751,30L280.035,30L279.319,30L278.602,30L277.886,30L277.169,30L276.453,30L275.737,30L275.02,30L274.304,30L273.587,30L272.871,30L272.155,30L271.438,30L270.722,30L270.005,30L269.289,30L268.573,30L267.856,30L267.14,30L266.423,30L265.707,30L264.991,30L264.274,30L263.558,30L262.842,30L262.125,30L261.409,30L260.692,30L259.976,30L259.26,30L258.543,30L257.827,30L257.11,30L256.394,30L255.678,30L254.961,30L254.245,30L253.528,30L252.812,30L252.096,30L251.379,30L250.663,30L249.946,30L249.23,30L248.514,30L247.797,30L247.081,30L246.364,30L245.648,30L244.932,30L244.215,30L243.499,30L242.782,30L242.066,30L241.35,30L240.633,30L239.917,30L239.2,30L238.484,30L237.768,30L237.051,30L236.335,30L235.619,30L234.902,30L234.186,30L233.469,30L232.753,30L232.037,30L231.32,30L230.604,30L229.887,30L229.171,30L228.455,30L227.738,30L227.022,30L226.305,30L225.589,30L224.873,30L224.156,30L223.44,30L222.723,30L222.007,30L221.291,30L220.574,30L219.858,30L219.141,30L218.425,30L217.709,30L216.992,30L216.276,30L215.559,30L214.843,30L214.127,30L213.41,30L212.694,30L211.977,30L211.261,30L210.545,30L209.828,30L209.112,30L208.396,30L207.679,30L206.963,30L206.246,30L205.53,30L204.814,30L204.097,30L203.381,30L202.664,30L201.948,30L201.232,30L200.515,30L199.799,30L199.082,30L198.366,30L197.65,30L196.933,30L196.217,30L195.5,30L194.784,30L194.068,30L193.351,30L192.635,30L191.918,30L191.202,30L190.486,30L189.769,30L189.053,30L188.336,30L187.62,30L186.904,30L186.187,30L185.471,30L184.754,30L184.038,30L183.322,30L182.605,30L181.889,30L181.173,30L180.456,30L179.74,30L179.023,30L178.307,30L177.591,30L176.874,30L176.158,30L175.441,30L174.725,30L174.009,30L173.292,30L172.576,30L171.859,30L171.143,30L170.427,30L169.71,30L168.994,30L168.277,30L167.561,30L166.845,30L166.128,30L165.412,30L164.695,30L163.979,30L163.263,30L162.546,30L161.83,30L161.113,30L160.397,30L159.681,30L158.964,30L158.248,30L157.532,30L156.815,30L156.099,30L155.382,30L154.666,30L153.95,30L153.233,30L152.517,30L151.8,30L151.084,30L150.368,30L149.651,30L148.935,30L148.218,30L147.502,30L146.786,30L146.069,30L145.353,30L144.636,30L143.92,30L143.204,30L142.487,30L141.771,30L141.054,30L140.338,30L139.622,30L138.905,30L138.189,30L137.472,30L136.756,30L136.04,30L135.323,30L134.607,30L133.89,30L133.174,30L132.458,30L131.741,30L131.025,30L130.309,30L129.592,30L128.876,30L128.159,30L127.443,30L126.727,30L126.01,30L125.294,30L124.577,30L123.861,30L123.145,30L122.428,30L121.712,30L120.995,30L120.279,30L119.563,30L118.846,30L118.13,30L117.413,30L116.697,30L115.981,30L115.264,30L114.548,30L113.831,30L113.115,30L112.399,30L111.682,30L110.966,30L110.249,30L109.533,30L108.817,30L108.1,30L107.384,30L106.667,30L105.951,30L105.235,30L104.518,30L103.802,30L103.086,30L102.369,30L101.653,30L100.936,30L100.22,30L99.504,30L98.787,30L98.071,30L97.354,30L96.638,30L95.922,30L95.205,30L94.489,30L93.772,30L93.056,30L92.34,30L91.623,30L90.907,30L90.19,30L89.474,30L88.758,30L88.041,30L87.325,30L86.608,30L85.892,30L85.176,30L84.459,30L83.743,30L83.026,30L82.31,30L81.594,30L80.877,30L80.161,30L79.444,30L78.728,30L78.012,30L77.295,30L76.579,30L75.863,30L75.146,30L74.43,30L73.713,30L72.997,30L72.281,30L71.564,30L70.848,30L70.131,30L69.415,30L68.699,30L67.982,30L67.266,30L66.549,30L65.833,30L65.117,30L64.4,30L63.684,30L62.967,30L62.251,30L61.535,30L60.818,30L60.102,30L59.385,30L58.669,30L57.953,30L57.236,30L56.52,30L55.803,30L55.087,30L54.371,30L53.654,30L52.938,30L52.221,30L51.505,30L50.789,30L50.072,30L49.356,30L48.64,30L47.923,30L47.207,30L46.49,30L45.774,30L45.058,30L44.341,30L43.625,30L42.908,30L42.192,30L41.476,30L40.759,30L40.043,30L39.326,30L38.61,30L37.894,30L37.177,30L36.461,30L35.744,30L35.028,30L34.312,30L33.595,30L32.879,30L32.162,30L31.446,30L30.73,30L30.013,30L29.297,30L28.58,30L27.864,30L27.148,30L26.431,30L25.715,30L24.999,30L24.282,30L23.566,30L22.849,30L22.133,30L21.417,30L20.7,30L19.984,30L19.267,30L18.551,30L17.835,30L17.118,30L16.402,30L15.685,30L14.969,30L14.253,30L13.536,30L12.82,30L12.103,30L11.387,30L10.671,30L9.954,30L9.238,30L8.521,30L7.805,30L7.089,30L6.372,30L5.656,30L4.939,30L4.223,30L3.507,30L2.79,30L2.074,30L1.357,30L0.641,30Z" fill="darkblue"/></g></g><path class="foreground" aria-hidden="true" d="" display="none"/></g></g><g class="mark-group role-scope concat_1_group" role="graphics-object" aria-roledescription="group mark container"><g transform="translate(0,67)"><path class="background" aria-hidden="true" d="M0,0h300v30h-300Z"/><g><g class="mark-group role-axis" role="graphics-symbol" aria-roledescription="axis" aria-label="X-axis for a linear scale with values from −15 to 15"><g transform="translate(0.5,30.5)"><path class="background" aria-hidden="true" d="M0,0h0v0h0Z" pointer-events="none"/><g><g class="mark-rule role-axis-tick" pointer-events="none"><line transform="translate(0,0)" x2="0" y2="5" stroke="#888" stroke-width="1" opacity="1"/><line transform="translate(50,0)" x2="0" y2="5" stroke="#888" stroke-width="1" opacity="1"/><line transform="translate(100,0)" x2="0" y2="5" stroke="#888" stroke-width="1" opacity="1"/><line transform="translate(150,0)" x2="0" y2="5" stroke="#888" stroke-width="1" opacity="1"/><line transform="translate(200,0)" x2="0" y2="5" stroke="#888" stroke-width="1" opacity="1"/><line transform="translate(250,0)" x2="0" y2="5" stroke="#888" stroke-width="1" opacity="1"/><line transform="translate(300,0)" x2="0" y2="5" stroke="#888" stroke-width="1" opacity="1"/></g><g class="mark-rule role-axis-domain" pointer-events="none"><line transform="translate(0,0)" x2="300" y2="0" stroke="#888" stroke-width="1" opacity="1"/></g></g><path class="foreground" aria-hidden="true" d="" pointer-events="none" display="none"/></g></g><g class="mark-group role-axis" role="graphics-symbol" aria-roledescription="axis" aria-label="Y-axis titled 'density_normalized' for a linear scale with values from 0.0 to 1.0"><g transform="translate(0.5,0.5)"><path class="background" aria-hidden="true" d="M0,0h0v0h0Z" pointer-events="none"/><g><g class="mark-rule role-axis-tick" pointer-events="none"><line transform="translate(0,30)" x2="-5" y2="0" stroke="#888" stroke-width="1" opacity="1"/><line transform="translate(0,0)" x2="-5" y2="0" stroke="#888" stroke-width="1" opacity="1"/></g><g class="mark-text role-axis-label" pointer-events="none"><text text-anchor="end" transform="translate(-7,33)" font-family="sans-serif" font-size="10px" fill="#000" opacity="1">0</text><text text-anchor="end" transform="translate(-7,3)" font-family="sans-serif" font-size="10px" fill="#000" opacity="1">1</text></g><g class="mark-rule role-axis-domain" pointer-events="none"><line transform="translate(0,30)" x2="0" y2="-30" stroke="#888" stroke-width="1" opacity="1"/></g><g class="mark-text role-axis-title" pointer-events="none"><text text-anchor="middle" transform="translate(-16.5615234375,15) rotate(-90) translate(0,-2)" font-family="sans-serif" font-size="11px" font-weight="bold" fill="#000" opacity="1">density_normalized</text></g></g><path class="foreground" aria-hidden="true" d="" pointer-events="none" display="none"/></g></g><g class="mark-area role-mark concat_1_marks" role="graphics-object" aria-roledescription="area mark container"><path aria-label="RCRF1009T_average_zscore: −14.9358909437; density_normalized: 0.0107594935867" role="graphics-symbol" aria-roledescription="area mark" d="M0.641,29.677L1.357,29.678L2.074,29.681L2.79,29.685L3.507,29.69L4.223,29.698L4.939,29.706L5.656,29.716L6.372,29.727L7.089,29.739L7.805,29.751L8.521,29.764L9.238,29.778L9.954,29.792L10.671,29.806L11.387,29.82L12.103,29.834L12.82,29.848L13.536,29.861L14.253,29.874L14.969,29.886L15.685,29.897L16.402,29.908L17.118,29.918L17.835,29.928L18.551,29.936L19.267,29.944L19.984,29.952L20.7,29.958L21.417,29.964L22.133,29.969L22.849,29.973L23.566,29.977L24.282,29.981L24.999,29.984L25.715,29.987L26.431,29.989L27.148,29.991L27.864,29.992L28.58,29.994L29.297,29.995L30.013,29.996L30.73,29.997L31.446,29.997L32.162,29.998L32.879,29.998L33.595,29.999L34.312,29.999L35.028,29.999L35.744,29.999L36.461,30L37.177,30L37.894,30L38.61,30L39.326,30L40.043,30L40.759,30L41.476,30L42.192,30L42.908,30L43.625,30L44.341,30L45.058,30L45.774,30L46.49,30L47.207,30L47.923,30L48.64,30L49.356,30L50.072,30L50.789,30L51.505,30L52.221,30L52.938,30L53.654,30L54.371,30L55.087,30L55.803,30L56.52,30L57.236,30L57.953,29.999L58.669,29.999L59.385,29.999L60.102,29.999L60.818,29.998L61.535,29.998L62.251,29.997L62.967,29.997L63.684,29.996L64.4,29.995L65.117,29.994L65.833,29.992L66.549,29.991L67.266,29.989L67.982,29.986L68.699,29.984L69.415,29.98L70.131,29.977L70.848,29.972L71.564,29.967L72.281,29.962L72.997,29.955L73.713,29.948L74.43,29.939L75.146,29.93L75.863,29.919L76.579,29.908L77.295,29.895L78.012,29.88L78.728,29.865L79.444,29.848L80.161,29.83L80.877,29.81L81.594,29.789L82.31,29.766L83.026,29.742L83.743,29.716L84.459,29.689L85.176,29.661L85.892,29.631L86.608,29.6L87.325,29.568L88.041,29.535L88.758,29.501L89.474,29.466L90.19,29.431L90.907,29.394L91.623,29.357L92.34,29.319L93.056,29.281L93.772,29.243L94.489,29.204L95.205,29.164L95.922,29.125L96.638,29.084L97.354,29.044L98.071,29.003L98.787,28.961L99.504,28.918L100.22,28.875L100.936,28.83L101.653,28.784L102.369,28.736L103.086,28.686L103.802,28.633L104.518,28.578L105.235,28.519L105.951,28.456L106.667,28.389L107.384,28.317L108.1,28.24L108.817,28.156L109.533,28.066L110.249,27.968L110.966,27.863L111.682,27.748L112.399,27.624L113.115,27.49L113.831,27.346L114.548,27.19L115.264,27.022L115.981,26.842L116.697,26.649L117.413,26.443L118.13,26.223L118.846,25.988L119.563,25.74L120.279,25.477L120.995,25.199L121.712,24.906L122.428,24.599L123.145,24.277L123.861,23.94L124.577,23.589L125.294,23.225L126.01,22.846L126.727,22.455L127.443,22.051L128.159,21.634L128.876,21.206L129.592,20.767L130.309,20.317L131.025,19.857L131.741,19.387L132.458,18.909L133.174,18.422L133.89,17.926L134.607,17.423L135.323,16.913L136.04,16.396L136.756,15.873L137.472,15.344L138.189,14.81L138.905,14.271L139.622,13.728L140.338,13.181L141.054,12.631L141.771,12.079L142.487,11.525L143.204,10.971L143.92,10.417L144.636,9.865L145.353,9.315L146.069,8.768L146.786,8.227L147.502,7.692L148.218,7.165L148.935,6.646L149.651,6.138L150.368,5.642L151.084,5.16L151.8,4.692L152.517,4.24L153.233,3.805L153.95,3.389L154.666,2.994L155.382,2.619L156.099,2.266L156.815,1.937L157.532,1.632L158.248,1.352L158.964,1.097L159.681,0.869L160.397,0.667L161.113,0.492L161.83,0.345L162.546,0.224L163.263,0.129L163.979,0.061L164.695,0.018L165.412,0L166.128,0.005L166.845,0.032L167.561,0.078L168.277,0.144L168.994,0.225L169.71,0.32L170.427,0.427L171.143,0.542L171.859,0.664L172.576,0.789L173.292,0.915L174.009,1.039L174.725,1.157L175.441,1.269L176.158,1.371L176.874,1.461L177.591,1.537L178.307,1.598L179.023,1.643L179.74,1.67L180.456,1.679L181.173,1.671L181.889,1.645L182.605,1.603L183.322,1.545L184.038,1.473L184.754,1.389L185.471,1.295L186.187,1.194L186.904,1.088L187.62,0.98L188.336,0.872L189.053,0.769L189.769,0.672L190.486,0.585L191.202,0.51L191.918,0.451L192.635,0.408L193.351,0.386L194.068,0.385L194.784,0.408L195.5,0.455L196.217,0.528L196.933,0.627L197.65,0.754L198.366,0.908L199.082,1.09L199.799,1.299L200.515,1.535L201.232,1.797L201.948,2.086L202.664,2.399L203.381,2.737L204.097,3.097L204.814,3.481L205.53,3.886L206.246,4.311L206.963,4.755L207.679,5.218L208.396,5.697L209.112,6.193L209.828,6.703L210.545,7.227L211.261,7.762L211.977,8.308L212.694,8.863L213.41,9.426L214.127,9.994L214.843,10.566L215.559,11.139L216.276,11.713L216.992,12.285L217.709,12.852L218.425,13.413L219.141,13.966L219.858,14.508L220.574,15.038L221.291,15.555L222.007,16.056L222.723,16.539L223.44,17.005L224.156,17.452L224.873,17.879L225.589,18.286L226.305,18.672L227.022,19.038L227.738,19.385L228.455,19.712L229.171,20.022L229.887,20.314L230.604,20.59L231.32,20.852L232.037,21.101L232.753,21.339L233.469,21.567L234.186,21.787L234.902,22.001L235.619,22.209L236.335,22.414L237.051,22.616L237.768,22.816L238.484,23.016L239.2,23.216L239.917,23.416L240.633,23.617L241.35,23.819L242.066,24.022L242.782,24.225L243.499,24.429L244.215,24.633L244.932,24.837L245.648,25.039L246.364,25.24L247.081,25.439L247.797,25.635L248.514,25.828L249.23,26.017L249.946,26.202L250.663,26.382L251.379,26.557L252.096,26.727L252.812,26.891L253.528,27.05L254.245,27.202L254.961,27.349L255.678,27.489L256.394,27.624L257.11,27.752L257.827,27.874L258.543,27.99L259.26,28.1L259.976,28.204L260.692,28.301L261.409,28.393L262.125,28.478L262.842,28.558L263.558,28.632L264.274,28.699L264.991,28.761L265.707,28.817L266.423,28.867L267.14,28.911L267.856,28.95L268.573,28.983L269.289,29.012L270.005,29.035L270.722,29.054L271.438,29.069L272.155,29.08L272.871,29.087L273.587,29.091L274.304,29.093L275.02,29.092L275.737,29.09L276.453,29.087L277.169,29.083L277.886,29.079L278.602,29.076L279.319,29.073L280.035,29.071L280.751,29.071L281.468,29.073L282.184,29.077L282.901,29.083L283.617,29.092L284.333,29.103L285.05,29.118L285.766,29.135L286.483,29.155L287.199,29.177L287.915,29.202L288.632,29.229L289.348,29.259L290.064,29.29L290.781,29.322L291.497,29.356L292.214,29.391L292.93,29.427L293.646,29.462L294.363,29.498L295.079,29.534L295.796,29.569L296.512,29.603L297.228,29.636L297.945,29.668L298.661,29.698L299.378,29.727L300.094,29.755L300.81,29.781L301.527,29.804L302.243,29.827L302.96,29.847L303.676,29.866L304.392,29.882L305.109,29.898L305.825,29.911L306.542,29.924L307.258,29.935L307.974,29.944L308.691,29.953L309.407,29.96L310.124,29.966L310.84,29.972L311.556,29.977L312.273,29.981L312.989,29.984L313.706,29.987L314.422,29.989L315.138,29.991L315.855,29.993L316.571,29.994L317.287,29.996L318.004,29.996L318.72,29.997L319.437,29.998L320.153,29.998L320.869,29.999L321.586,29.999L322.302,29.999L323.019,29.999L323.735,30L324.451,30L325.168,30L325.884,30L326.601,30L327.317,30L328.033,30L328.75,30L329.466,30L330.183,30L330.899,30L331.615,30L332.332,30L333.048,30L333.765,30L334.481,30L335.197,30L335.914,30L336.63,30L337.347,30L338.063,30L338.779,30L339.496,30L340.212,30L340.929,30L341.645,30L342.361,30L343.078,30L343.794,30L344.51,30L345.227,30L345.943,30L346.66,30L347.376,30L348.092,30L348.809,30L349.525,30L350.242,30L350.958,30L351.674,30L352.391,30L353.107,30L353.824,30L354.54,30L355.256,30L355.973,30L356.689,30L357.406,30L358.122,30L358.122,30L357.406,30L356.689,30L355.973,30L355.256,30L354.54,30L353.824,30L353.107,30L352.391,30L351.674,30L350.958,30L350.242,30L349.525,30L348.809,30L348.092,30L347.376,30L346.66,30L345.943,30L345.227,30L344.51,30L343.794,30L343.078,30L342.361,30L341.645,30L340.929,30L340.212,30L339.496,30L338.779,30L338.063,30L337.347,30L336.63,30L335.914,30L335.197,30L334.481,30L333.765,30L333.048,30L332.332,30L331.615,30L330.899,30L330.183,30L329.466,30L328.75,30L328.033,30L327.317,30L326.601,30L325.884,30L325.168,30L324.451,30L323.735,30L323.019,30L322.302,30L321.586,30L320.869,30L320.153,30L319.437,30L318.72,30L318.004,30L317.287,30L316.571,30L315.855,30L315.138,30L314.422,30L313.706,30L312.989,30L312.273,30L311.556,30L310.84,30L310.124,30L309.407,30L308.691,30L307.974,30L307.258,30L306.542,30L305.825,30L305.109,30L304.392,30L303.676,30L302.96,30L302.243,30L301.527,30L300.81,30L300.094,30L299.378,30L298.661,30L297.945,30L297.228,30L296.512,30L295.796,30L295.079,30L294.363,30L293.646,30L292.93,30L292.214,30L291.497,30L290.781,30L290.064,30L289.348,30L288.632,30L287.915,30L287.199,30L286.483,30L285.766,30L285.05,30L284.333,30L283.617,30L282.901,30L282.184,30L281.468,30L280.751,30L280.035,30L279.319,30L278.602,30L277.886,30L277.169,30L276.453,30L275.737,30L275.02,30L274.304,30L273.587,30L272.871,30L272.155,30L271.438,30L270.722,30L270.005,30L269.289,30L268.573,30L267.856,30L267.14,30L266.423,30L265.707,30L264.991,30L264.274,30L263.558,30L262.842,30L262.125,30L261.409,30L260.692,30L259.976,30L259.26,30L258.543,30L257.827,30L257.11,30L256.394,30L255.678,30L254.961,30L254.245,30L253.528,30L252.812,30L252.096,30L251.379,30L250.663,30L249.946,30L249.23,30L248.514,30L247.797,30L247.081,30L246.364,30L245.648,30L244.932,30L244.215,30L243.499,30L242.782,30L242.066,30L241.35,30L240.633,30L239.917,30L239.2,30L238.484,30L237.768,30L237.051,30L236.335,30L235.619,30L234.902,30L234.186,30L233.469,30L232.753,30L232.037,30L231.32,30L230.604,30L229.887,30L229.171,30L228.455,30L227.738,30L227.022,30L226.305,30L225.589,30L224.873,30L224.156,30L223.44,30L222.723,30L222.007,30L221.291,30L220.574,30L219.858,30L219.141,30L218.425,30L217.709,30L216.992,30L216.276,30L215.559,30L214.843,30L214.127,30L213.41,30L212.694,30L211.977,30L211.261,30L210.545,30L209.828,30L209.112,30L208.396,30L207.679,30L206.963,30L206.246,30L205.53,30L204.814,30L204.097,30L203.381,30L202.664,30L201.948,30L201.232,30L200.515,30L199.799,30L199.082,30L198.366,30L197.65,30L196.933,30L196.217,30L195.5,30L194.784,30L194.068,30L193.351,30L192.635,30L191.918,30L191.202,30L190.486,30L189.769,30L189.053,30L188.336,30L187.62,30L186.904,30L186.187,30L185.471,30L184.754,30L184.038,30L183.322,30L182.605,30L181.889,30L181.173,30L180.456,30L179.74,30L179.023,30L178.307,30L177.591,30L176.874,30L176.158,30L175.441,30L174.725,30L174.009,30L173.292,30L172.576,30L171.859,30L171.143,30L170.427,30L169.71,30L168.994,30L168.277,30L167.561,30L166.845,30L166.128,30L165.412,30L164.695,30L163.979,30L163.263,30L162.546,30L161.83,30L161.113,30L160.397,30L159.681,30L158.964,30L158.248,30L157.532,30L156.815,30L156.099,30L155.382,30L154.666,30L153.95,30L153.233,30L152.517,30L151.8,30L151.084,30L150.368,30L149.651,30L148.935,30L148.218,30L147.502,30L146.786,30L146.069,30L145.353,30L144.636,30L143.92,30L143.204,30L142.487,30L141.771,30L141.054,30L140.338,30L139.622,30L138.905,30L138.189,30L137.472,30L136.756,30L136.04,30L135.323,30L134.607,30L133.89,30L133.174,30L132.458,30L131.741,30L131.025,30L130.309,30L129.592,30L128.876,30L128.159,30L127.443,30L126.727,30L126.01,30L125.294,30L124.577,30L123.861,30L123.145,30L122.428,30L121.712,30L120.995,30L120.279,30L119.563,30L118.846,30L118.13,30L117.413,30L116.697,30L115.981,30L115.264,30L114.548,30L113.831,30L113.115,30L112.399,30L111.682,30L110.966,30L110.249,30L109.533,30L108.817,30L108.1,30L107.384,30L106.667,30L105.951,30L105.235,30L104.518,30L103.802,30L103.086,30L102.369,30L101.653,30L100.936,30L100.22,30L99.504,30L98.787,30L98.071,30L97.354,30L96.638,30L95.922,30L95.205,30L94.489,30L93.772,30L93.056,30L92.34,30L91.623,30L90.907,30L90.19,30L89.474,30L88.758,30L88.041,30L87.325,30L86.608,30L85.892,30L85.176,30L84.459,30L83.743,30L83.026,30L82.31,30L81.594,30L80.877,30L80.161,30L79.444,30L78.728,30L78.012,30L77.295,30L76.579,30L75.863,30L75.146,30L74.43,30L73.713,30L72.997,30L72.281,30L71.564,30L70.848,30L70.131,30L69.415,30L68.699,30L67.982,30L67.266,30L66.549,30L65.833,30L65.117,30L64.4,30L63.684,30L62.967,30L62.251,30L61.535,30L60.818,30L60.102,30L59.385,30L58.669,30L57.953,30L57.236,30L56.52,30L55.803,30L55.087,30L54.371,30L53.654,30L52.938,30L52.221,30L51.505,30L50.789,30L50.072,30L49.356,30L48.64,30L47.923,30L47.207,30L46.49,30L45.774,30L45.058,30L44.341,30L43.625,30L42.908,30L42.192,30L41.476,30L40.759,30L40.043,30L39.326,30L38.61,30L37.894,30L37.177,30L36.461,30L35.744,30L35.028,30L34.312,30L33.595,30L32.879,30L32.162,30L31.446,30L30.73,30L30.013,30L29.297,30L28.58,30L27.864,30L27.148,30L26.431,30L25.715,30L24.999,30L24.282,30L23.566,30L22.849,30L22.133,30L21.417,30L20.7,30L19.984,30L19.267,30L18.551,30L17.835,30L17.118,30L16.402,30L15.685,30L14.969,30L14.253,30L13.536,30L12.82,30L12.103,30L11.387,30L10.671,30L9.954,30L9.238,30L8.521,30L7.805,30L7.089,30L6.372,30L5.656,30L4.939,30L4.223,30L3.507,30L2.79,30L2.074,30L1.357,30L0.641,30Z" fill="red"/></g></g><path class="foreground" aria-hidden="true" d="" display="none"/></g></g><g class="mark-group role-scope concat_2_group" role="graphics-object" aria-roledescription="group mark container"><g transform="translate(0,134)"><path class="background" aria-hidden="true" d="M0,0h300v30h-300Z"/><g><g class="mark-group role-axis" role="graphics-symbol" aria-roledescription="axis" aria-label="X-axis for a linear scale with values from −15 to 15"><g transform="translate(0.5,30.5)"><path class="background" aria-hidden="true" d="M0,0h0v0h0Z" pointer-events="none"/><g><g class="mark-rule role-axis-tick" pointer-events="none"><line transform="translate(0,0)" x2="0" y2="5" stroke="#888" stroke-width="1" opacity="1"/><line transform="translate(50,0)" x2="0" y2="5" stroke="#888" stroke-width="1" opacity="1"/><line transform="translate(100,0)" x2="0" y2="5" stroke="#888" stroke-width="1" opacity="1"/><line transform="translate(150,0)" x2="0" y2="5" stroke="#888" stroke-width="1" opacity="1"/><line transform="translate(200,0)" x2="0" y2="5" stroke="#888" stroke-width="1" opacity="1"/><line transform="translate(250,0)" x2="0" y2="5" stroke="#888" stroke-width="1" opacity="1"/><line transform="translate(300,0)" x2="0" y2="5" stroke="#888" stroke-width="1" opacity="1"/></g><g class="mark-rule role-axis-domain" pointer-events="none"><line transform="translate(0,0)" x2="300" y2="0" stroke="#888" stroke-width="1" opacity="1"/></g></g><path class="foreground" aria-hidden="true" d="" pointer-events="none" display="none"/></g></g><g class="mark-group role-axis" role="graphics-symbol" aria-roledescription="axis" aria-label="Y-axis titled 'density_normalized' for a linear scale with values from 0.0 to 1.0"><g transform="translate(0.5,0.5)"><path class="background" aria-hidden="true" d="M0,0h0v0h0Z" pointer-events="none"/><g><g class="mark-rule role-axis-tick" pointer-events="none"><line transform="translate(0,30)" x2="-5" y2="0" stroke="#888" stroke-width="1" opacity="1"/><line transform="translate(0,0)" x2="-5" y2="0" stroke="#888" stroke-width="1" opacity="1"/></g><g class="mark-text role-axis-label" pointer-events="none"><text text-anchor="end" transform="translate(-7,33)" font-family="sans-serif" font-size="10px" fill="#000" opacity="1">0</text><text text-anchor="end" transform="translate(-7,3)" font-family="sans-serif" font-size="10px" fill="#000" opacity="1">1</text></g><g class="mark-rule role-axis-domain" pointer-events="none"><line transform="translate(0,30)" x2="0" y2="-30" stroke="#888" stroke-width="1" opacity="1"/></g><g class="mark-text role-axis-title" pointer-events="none"><text text-anchor="middle" transform="translate(-16.5615234375,15) rotate(-90) translate(0,-2)" font-family="sans-serif" font-size="11px" font-weight="bold" fill="#000" opacity="1">density_normalized</text></g></g><path class="foreground" aria-hidden="true" d="" pointer-events="none" display="none"/></g></g><g class="mark-area role-mark concat_2_marks" role="graphics-object" aria-roledescription="area mark container"><path aria-label="RCRF1009T_average_zscore: −14.9358909437; density_normalized: 1.57218520313e-83" role="graphics-symbol" aria-roledescription="area mark" d="M0.641,30L1.357,30L2.074,30L2.79,30L3.507,30L4.223,30L4.939,30L5.656,30L6.372,30L7.089,30L7.805,30L8.521,30L9.238,30L9.954,30L10.671,30L11.387,30L12.103,30L12.82,30L13.536,30L14.253,30L14.969,30L15.685,30L16.402,30L17.118,30L17.835,30L18.551,30L19.267,30L19.984,30L20.7,30L21.417,30L22.133,30L22.849,30L23.566,30L24.282,30L24.999,30L25.715,30L26.431,30L27.148,30L27.864,30L28.58,30L29.297,30L30.013,30L30.73,30L31.446,30L32.162,30L32.879,30L33.595,30L34.312,30L35.028,30L35.744,30L36.461,30L37.177,30L37.894,30L38.61,30L39.326,30L40.043,30L40.759,30L41.476,30L42.192,30L42.908,30L43.625,30L44.341,30L45.058,30L45.774,30L46.49,30L47.207,30L47.923,30L48.64,30L49.356,30L50.072,30L50.789,30L51.505,30L52.221,30L52.938,30L53.654,30L54.371,30L55.087,30L55.803,30L56.52,30L57.236,30L57.953,30L58.669,29.999L59.385,29.999L60.102,29.998L60.818,29.997L61.535,29.996L62.251,29.995L62.967,29.993L63.684,29.992L64.4,29.991L65.117,29.99L65.833,29.989L66.549,29.989L67.266,29.989L67.982,29.99L68.699,29.991L69.415,29.992L70.131,29.993L70.848,29.994L71.564,29.995L72.281,29.996L72.997,29.996L73.713,29.996L74.43,29.996L75.146,29.994L75.863,29.993L76.579,29.991L77.295,29.988L78.012,29.985L78.728,29.982L79.444,29.979L80.161,29.975L80.877,29.972L81.594,29.968L82.31,29.963L83.026,29.959L83.743,29.954L84.459,29.95L85.176,29.946L85.892,29.942L86.608,29.939L87.325,29.937L88.041,29.936L88.758,29.935L89.474,29.936L90.19,29.937L90.907,29.938L91.623,29.938L92.34,29.938L93.056,29.936L93.772,29.933L94.489,29.929L95.205,29.923L95.922,29.917L96.638,29.909L97.354,29.9L98.071,29.891L98.787,29.882L99.504,29.871L100.22,29.86L100.936,29.847L101.653,29.834L102.369,29.82L103.086,29.805L103.802,29.789L104.518,29.773L105.235,29.757L105.951,29.74L106.667,29.724L107.384,29.708L108.1,29.691L108.817,29.674L109.533,29.656L110.249,29.637L110.966,29.616L111.682,29.593L112.399,29.569L113.115,29.541L113.831,29.511L114.548,29.476L115.264,29.435L115.981,29.387L116.697,29.33L117.413,29.262L118.13,29.182L118.846,29.089L119.563,28.982L120.279,28.86L120.995,28.724L121.712,28.573L122.428,28.41L123.145,28.235L123.861,28.05L124.577,27.855L125.294,27.649L126.01,27.432L126.727,27.198L127.443,26.945L128.159,26.663L128.876,26.348L129.592,25.989L130.309,25.578L131.025,25.107L131.741,24.569L132.458,23.955L133.174,23.261L133.89,22.484L134.607,21.622L135.323,20.677L136.04,19.653L136.756,18.557L137.472,17.396L138.189,16.18L138.905,14.916L139.622,13.613L140.338,12.277L141.054,10.916L141.771,9.539L142.487,8.159L143.204,6.793L143.92,5.464L144.636,4.202L145.353,3.043L146.069,2.023L146.786,1.18L147.502,0.546L148.218,0.147L148.935,0L149.651,0.109L150.368,0.468L151.084,1.059L151.8,1.859L152.517,2.837L153.233,3.957L153.95,5.187L154.666,6.493L155.382,7.846L156.099,9.218L156.815,10.589L157.532,11.94L158.248,13.257L158.964,14.529L159.681,15.746L160.397,16.903L161.113,17.994L161.83,19.018L162.546,19.972L163.263,20.856L163.979,21.672L164.695,22.421L165.412,23.108L166.128,23.736L166.845,24.31L167.561,24.834L168.277,25.314L168.994,25.755L169.71,26.16L170.427,26.533L171.143,26.875L171.859,27.189L172.576,27.475L173.292,27.733L174.009,27.966L174.725,28.173L175.441,28.357L176.158,28.52L176.874,28.665L177.591,28.794L178.307,28.91L179.023,29.016L179.74,29.111L180.456,29.196L181.173,29.273L181.889,29.34L182.605,29.398L183.322,29.448L184.038,29.491L184.754,29.529L185.471,29.562L186.187,29.594L186.904,29.624L187.62,29.653L188.336,29.683L189.053,29.712L189.769,29.741L190.486,29.769L191.202,29.796L191.918,29.821L192.635,29.845L193.351,29.866L194.068,29.885L194.784,29.9L195.5,29.913L196.217,29.924L196.933,29.931L197.65,29.937L198.366,29.941L199.082,29.944L199.799,29.947L200.515,29.949L201.232,29.951L201.948,29.953L202.664,29.955L203.381,29.957L204.097,29.958L204.814,29.959L205.53,29.959L206.246,29.959L206.963,29.959L207.679,29.96L208.396,29.96L209.112,29.961L209.828,29.963L210.545,29.965L211.261,29.967L211.977,29.97L212.694,29.972L213.41,29.974L214.127,29.976L214.843,29.977L215.559,29.978L216.276,29.979L216.992,29.979L217.709,29.979L218.425,29.979L219.141,29.979L219.858,29.979L220.574,29.979L221.291,29.979L222.007,29.98L222.723,29.98L223.44,29.981L224.156,29.981L224.873,29.982L225.589,29.983L226.305,29.985L227.022,29.986L227.738,29.987L228.455,29.988L229.171,29.989L229.887,29.989L230.604,29.989L231.32,29.989L232.037,29.988L232.753,29.988L233.469,29.988L234.186,29.988L234.902,29.989L235.619,29.99L236.335,29.991L237.051,29.992L237.768,29.994L238.484,29.995L239.2,29.996L239.917,29.997L240.633,29.998L241.35,29.999L242.066,29.999L242.782,29.999L243.499,29.999L244.215,29.998L244.932,29.997L245.648,29.996L246.364,29.995L247.081,29.994L247.797,29.992L248.514,29.991L249.23,29.99L249.946,29.989L250.663,29.989L251.379,29.989L252.096,29.989L252.812,29.99L253.528,29.992L254.245,29.993L254.961,29.994L255.678,29.996L256.394,29.997L257.11,29.998L257.827,29.999L258.543,29.999L259.26,29.999L259.976,30L260.692,30L261.409,30L262.125,30L262.842,30L263.558,30L264.274,30L264.991,30L265.707,30L266.423,30L267.14,30L267.856,30L268.573,30L269.289,30L270.005,30L270.722,30L271.438,30L272.155,30L272.871,30L273.587,30L274.304,30L275.02,30L275.737,30L276.453,30L277.169,30L277.886,30L278.602,30L279.319,30L280.035,30L280.751,30L281.468,30L282.184,30L282.901,30L283.617,30L284.333,30L285.05,30L285.766,30L286.483,30L287.199,30L287.915,30L288.632,30L289.348,30L290.064,30L290.781,30L291.497,30L292.214,30L292.93,30L293.646,30L294.363,30L295.079,30L295.796,30L296.512,30L297.228,30L297.945,30L298.661,30L299.378,30L300.094,30L300.81,30L301.527,30L302.243,30L302.96,30L303.676,30L304.392,30L305.109,30L305.825,30L306.542,30L307.258,30L307.974,30L308.691,30L309.407,30L310.124,30L310.84,30L311.556,30L312.273,30L312.989,30L313.706,30L314.422,30L315.138,30L315.855,30L316.571,30L317.287,30L318.004,30L318.72,30L319.437,30L320.153,30L320.869,30L321.586,30L322.302,30L323.019,30L323.735,30L324.451,30L325.168,30L325.884,30L326.601,30L327.317,30L328.033,30L328.75,30L329.466,30L330.183,30L330.899,30L331.615,30L332.332,30L333.048,30L333.765,30L334.481,30L335.197,30L335.914,30L336.63,30L337.347,30L338.063,30L338.779,30L339.496,30L340.212,30L340.929,30L341.645,30L342.361,30L343.078,30L343.794,30L344.51,30L345.227,30L345.943,30L346.66,30L347.376,30L348.092,30L348.809,30L349.525,30L350.242,30L350.958,30L351.674,30L352.391,30L353.107,30L353.824,30L354.54,30L355.256,30L355.973,30L356.689,30L357.406,30L358.122,30L358.122,30L357.406,30L356.689,30L355.973,30L355.256,30L354.54,30L353.824,30L353.107,30L352.391,30L351.674,30L350.958,30L350.242,30L349.525,30L348.809,30L348.092,30L347.376,30L346.66,30L345.943,30L345.227,30L344.51,30L343.794,30L343.078,30L342.361,30L341.645,30L340.929,30L340.212,30L339.496,30L338.779,30L338.063,30L337.347,30L336.63,30L335.914,30L335.197,30L334.481,30L333.765,30L333.048,30L332.332,30L331.615,30L330.899,30L330.183,30L329.466,30L328.75,30L328.033,30L327.317,30L326.601,30L325.884,30L325.168,30L324.451,30L323.735,30L323.019,30L322.302,30L321.586,30L320.869,30L320.153,30L319.437,30L318.72,30L318.004,30L317.287,30L316.571,30L315.855,30L315.138,30L314.422,30L313.706,30L312.989,30L312.273,30L311.556,30L310.84,30L310.124,30L309.407,30L308.691,30L307.974,30L307.258,30L306.542,30L305.825,30L305.109,30L304.392,30L303.676,30L302.96,30L302.243,30L301.527,30L300.81,30L300.094,30L299.378,30L298.661,30L297.945,30L297.228,30L296.512,30L295.796,30L295.079,30L294.363,30L293.646,30L292.93,30L292.214,30L291.497,30L290.781,30L290.064,30L289.348,30L288.632,30L287.915,30L287.199,30L286.483,30L285.766,30L285.05,30L284.333,30L283.617,30L282.901,30L282.184,30L281.468,30L280.751,30L280.035,30L279.319,30L278.602,30L277.886,30L277.169,30L276.453,30L275.737,30L275.02,30L274.304,30L273.587,30L272.871,30L272.155,30L271.438,30L270.722,30L270.005,30L269.289,30L268.573,30L267.856,30L267.14,30L266.423,30L265.707,30L264.991,30L264.274,30L263.558,30L262.842,30L262.125,30L261.409,30L260.692,30L259.976,30L259.26,30L258.543,30L257.827,30L257.11,30L256.394,30L255.678,30L254.961,30L254.245,30L253.528,30L252.812,30L252.096,30L251.379,30L250.663,30L249.946,30L249.23,30L248.514,30L247.797,30L247.081,30L246.364,30L245.648,30L244.932,30L244.215,30L243.499,30L242.782,30L242.066,30L241.35,30L240.633,30L239.917,30L239.2,30L238.484,30L237.768,30L237.051,30L236.335,30L235.619,30L234.902,30L234.186,30L233.469,30L232.753,30L232.037,30L231.32,30L230.604,30L229.887,30L229.171,30L228.455,30L227.738,30L227.022,30L226.305,30L225.589,30L224.873,30L224.156,30L223.44,30L222.723,30L222.007,30L221.291,30L220.574,30L219.858,30L219.141,30L218.425,30L217.709,30L216.992,30L216.276,30L215.559,30L214.843,30L214.127,30L213.41,30L212.694,30L211.977,30L211.261,30L210.545,30L209.828,30L209.112,30L208.396,30L207.679,30L206.963,30L206.246,30L205.53,30L204.814,30L204.097,30L203.381,30L202.664,30L201.948,30L201.232,30L200.515,30L199.799,30L199.082,30L198.366,30L197.65,30L196.933,30L196.217,30L195.5,30L194.784,30L194.068,30L193.351,30L192.635,30L191.918,30L191.202,30L190.486,30L189.769,30L189.053,30L188.336,30L187.62,30L186.904,30L186.187,30L185.471,30L184.754,30L184.038,30L183.322,30L182.605,30L181.889,30L181.173,30L180.456,30L179.74,30L179.023,30L178.307,30L177.591,30L176.874,30L176.158,30L175.441,30L174.725,30L174.009,30L173.292,30L172.576,30L171.859,30L171.143,30L170.427,30L169.71,30L168.994,30L168.277,30L167.561,30L166.845,30L166.128,30L165.412,30L164.695,30L163.979,30L163.263,30L162.546,30L161.83,30L161.113,30L160.397,30L159.681,30L158.964,30L158.248,30L157.532,30L156.815,30L156.099,30L155.382,30L154.666,30L153.95,30L153.233,30L152.517,30L151.8,30L151.084,30L150.368,30L149.651,30L148.935,30L148.218,30L147.502,30L146.786,30L146.069,30L145.353,30L144.636,30L143.92,30L143.204,30L142.487,30L141.771,30L141.054,30L140.338,30L139.622,30L138.905,30L138.189,30L137.472,30L136.756,30L136.04,30L135.323,30L134.607,30L133.89,30L133.174,30L132.458,30L131.741,30L131.025,30L130.309,30L129.592,30L128.876,30L128.159,30L127.443,30L126.727,30L126.01,30L125.294,30L124.577,30L123.861,30L123.145,30L122.428,30L121.712,30L120.995,30L120.279,30L119.563,30L118.846,30L118.13,30L117.413,30L116.697,30L115.981,30L115.264,30L114.548,30L113.831,30L113.115,30L112.399,30L111.682,30L110.966,30L110.249,30L109.533,30L108.817,30L108.1,30L107.384,30L106.667,30L105.951,30L105.235,30L104.518,30L103.802,30L103.086,30L102.369,30L101.653,30L100.936,30L100.22,30L99.504,30L98.787,30L98.071,30L97.354,30L96.638,30L95.922,30L95.205,30L94.489,30L93.772,30L93.056,30L92.34,30L91.623,30L90.907,30L90.19,30L89.474,30L88.758,30L88.041,30L87.325,30L86.608,30L85.892,30L85.176,30L84.459,30L83.743,30L83.026,30L82.31,30L81.594,30L80.877,30L80.161,30L79.444,30L78.728,30L78.012,30L77.295,30L76.579,30L75.863,30L75.146,30L74.43,30L73.713,30L72.997,30L72.281,30L71.564,30L70.848,30L70.131,30L69.415,30L68.699,30L67.982,30L67.266,30L66.549,30L65.833,30L65.117,30L64.4,30L63.684,30L62.967,30L62.251,30L61.535,30L60.818,30L60.102,30L59.385,30L58.669,30L57.953,30L57.236,30L56.52,30L55.803,30L55.087,30L54.371,30L53.654,30L52.938,30L52.221,30L51.505,30L50.789,30L50.072,30L49.356,30L48.64,30L47.923,30L47.207,30L46.49,30L45.774,30L45.058,30L44.341,30L43.625,30L42.908,30L42.192,30L41.476,30L40.759,30L40.043,30L39.326,30L38.61,30L37.894,30L37.177,30L36.461,30L35.744,30L35.028,30L34.312,30L33.595,30L32.879,30L32.162,30L31.446,30L30.73,30L30.013,30L29.297,30L28.58,30L27.864,30L27.148,30L26.431,30L25.715,30L24.999,30L24.282,30L23.566,30L22.849,30L22.133,30L21.417,30L20.7,30L19.984,30L19.267,30L18.551,30L17.835,30L17.118,30L16.402,30L15.685,30L14.969,30L14.253,30L13.536,30L12.82,30L12.103,30L11.387,30L10.671,30L9.954,30L9.238,30L8.521,30L7.805,30L7.089,30L6.372,30L5.656,30L4.939,30L4.223,30L3.507,30L2.79,30L2.074,30L1.357,30L0.641,30Z" fill="gray"/></g></g><path class="foreground" aria-hidden="true" d="" display="none"/></g></g><g class="mark-group role-scope concat_3_group" role="graphics-object" aria-roledescription="group mark container"><g transform="translate(0,201)"><path class="background" aria-hidden="true" d="M0,0h300v30h-300Z"/><g><g class="mark-group role-axis" role="graphics-symbol" aria-roledescription="axis" aria-label="X-axis for a linear scale with values from −15 to 15"><g transform="translate(0.5,30.5)"><path class="background" aria-hidden="true" d="M0,0h0v0h0Z" pointer-events="none"/><g><g class="mark-rule role-axis-tick" pointer-events="none"><line transform="translate(0,0)" x2="0" y2="5" stroke="#888" stroke-width="1" opacity="1"/><line transform="translate(50,0)" x2="0" y2="5" stroke="#888" stroke-width="1" opacity="1"/><line transform="translate(100,0)" x2="0" y2="5" stroke="#888" stroke-width="1" opacity="1"/><line transform="translate(150,0)" x2="0" y2="5" stroke="#888" stroke-width="1" opacity="1"/><line transform="translate(200,0)" x2="0" y2="5" stroke="#888" stroke-width="1" opacity="1"/><line transform="translate(250,0)" x2="0" y2="5" stroke="#888" stroke-width="1" opacity="1"/><line transform="translate(300,0)" x2="0" y2="5" stroke="#888" stroke-width="1" opacity="1"/></g><g class="mark-text role-axis-label" pointer-events="none"><text text-anchor="start" transform="translate(0,15)" font-family="sans-serif" font-size="10px" fill="#000" opacity="1">−15</text><text text-anchor="middle" transform="translate(50,15)" font-family="sans-serif" font-size="10px" fill="#000" opacity="1">−10</text><text text-anchor="middle" transform="translate(100,15)" font-family="sans-serif" font-size="10px" fill="#000" opacity="1">−5</text><text text-anchor="middle" transform="translate(150,15)" font-family="sans-serif" font-size="10px" fill="#000" opacity="1">0</text><text text-anchor="middle" transform="translate(200,15)" font-family="sans-serif" font-size="10px" fill="#000" opacity="1">5</text><text text-anchor="middle" transform="translate(250,15)" font-family="sans-serif" font-size="10px" fill="#000" opacity="1">10</text><text text-anchor="end" transform="translate(300,15)" font-family="sans-serif" font-size="10px" fill="#000" opacity="1">15</text></g><g class="mark-rule role-axis-domain" pointer-events="none"><line transform="translate(0,0)" x2="300" y2="0" stroke="#888" stroke-width="1" opacity="1"/></g></g><path class="foreground" aria-hidden="true" d="" pointer-events="none" display="none"/></g></g><g class="mark-group role-axis" role="graphics-symbol" aria-roledescription="axis" aria-label="Y-axis titled 'density_normalized' for a linear scale with values from 0.0 to 1.0"><g transform="translate(0.5,0.5)"><path class="background" aria-hidden="true" d="M0,0h0v0h0Z" pointer-events="none"/><g><g class="mark-rule role-axis-tick" pointer-events="none"><line transform="translate(0,30)" x2="-5" y2="0" stroke="#888" stroke-width="1" opacity="1"/><line transform="translate(0,0)" x2="-5" y2="0" stroke="#888" stroke-width="1" opacity="1"/></g><g class="mark-text role-axis-label" pointer-events="none"><text text-anchor="end" transform="translate(-7,33)" font-family="sans-serif" font-size="10px" fill="#000" opacity="1">0</text><text text-anchor="end" transform="translate(-7,3)" font-family="sans-serif" font-size="10px" fill="#000" opacity="1">1</text></g><g class="mark-rule role-axis-domain" pointer-events="none"><line transform="translate(0,30)" x2="0" y2="-30" stroke="#888" stroke-width="1" opacity="1"/></g><g class="mark-text role-axis-title" pointer-events="none"><text text-anchor="middle" transform="translate(-16.5615234375,15) rotate(-90) translate(0,-2)" font-family="sans-serif" font-size="11px" font-weight="bold" fill="#000" opacity="1">density_normalized</text></g></g><path class="foreground" aria-hidden="true" d="" pointer-events="none" display="none"/></g></g><g class="mark-area role-mark concat_3_marks" role="graphics-object" aria-roledescription="area mark container"><path aria-label="RCRF1009T_average_zscore: −14.9358909437; density_normalized: 0" role="graphics-symbol" aria-roledescription="area mark" d="M0.641,30L1.357,30L2.074,30L2.79,30L3.507,30L4.223,30L4.939,30L5.656,30L6.372,30L7.089,30L7.805,30L8.521,30L9.238,30L9.954,30L10.671,30L11.387,30L12.103,30L12.82,30L13.536,30L14.253,30L14.969,30L15.685,30L16.402,30L17.118,30L17.835,30L18.551,30L19.267,30L19.984,30L20.7,30L21.417,30L22.133,30L22.849,30L23.566,30L24.282,30L24.999,30L25.715,30L26.431,30L27.148,30L27.864,30L28.58,30L29.297,30L30.013,30L30.73,30L31.446,30L32.162,30L32.879,30L33.595,30L34.312,30L35.028,30L35.744,30L36.461,30L37.177,30L37.894,30L38.61,30L39.326,30L40.043,30L40.759,30L41.476,30L42.192,30L42.908,30L43.625,30L44.341,30L45.058,30L45.774,30L46.49,30L47.207,30L47.923,30L48.64,30L49.356,30L50.072,30L50.789,30L51.505,30L52.221,30L52.938,30L53.654,30L54.371,30L55.087,30L55.803,30L56.52,30L57.236,30L57.953,30L58.669,30L59.385,30L60.102,30L60.818,30L61.535,30L62.251,30L62.967,30L63.684,30L64.4,30L65.117,30L65.833,30L66.549,30L67.266,30L67.982,30L68.699,30L69.415,30L70.131,30L70.848,30L71.564,30L72.281,30L72.997,30L73.713,30L74.43,30L75.146,30L75.863,30L76.579,30L77.295,30L78.012,30L78.728,30L79.444,30L80.161,30L80.877,30L81.594,30L82.31,30L83.026,30L83.743,30L84.459,30L85.176,30L85.892,30L86.608,30L87.325,30L88.041,30L88.758,30L89.474,30L90.19,30L90.907,30L91.623,30L92.34,30L93.056,30L93.772,30L94.489,30L95.205,30L95.922,30L96.638,30L97.354,30L98.071,30L98.787,30L99.504,30L100.22,30L100.936,30L101.653,30L102.369,30L103.086,30L103.802,30L104.518,30L105.235,30L105.951,30L106.667,30L107.384,30L108.1,30L108.817,30L109.533,30L110.249,30L110.966,30L111.682,30L112.399,30L113.115,30L113.831,30L114.548,30L115.264,30L115.981,30L116.697,30L117.413,30L118.13,30L118.846,30L119.563,30L120.279,30L120.995,30L121.712,30L122.428,30L123.145,30L123.861,30L124.577,30L125.294,30L126.01,30L126.727,30L127.443,30L128.159,30L128.876,30L129.592,30L130.309,29.998L131.025,29.99L131.741,29.97L132.458,29.926L133.174,29.855L133.89,29.773L134.607,29.705L135.323,29.658L136.04,29.594L136.756,29.454L137.472,29.206L138.189,28.855L138.905,28.387L139.622,27.719L140.338,26.741L141.054,25.442L141.771,23.95L142.487,22.379L143.204,20.615L143.92,18.329L144.636,15.29L145.353,11.662L146.069,7.974L146.786,4.777L147.502,2.351L148.218,0.746L148.935,0L149.651,0.169L150.368,1.152L151.084,2.621L151.8,4.19L152.517,5.683L153.233,7.248L153.95,9.199L154.666,11.696L155.382,14.559L156.099,17.408L156.815,19.943L157.532,22.059L158.248,23.752L158.964,25.012L159.681,25.845L160.397,26.341L161.113,26.662L161.83,26.949L162.546,27.269L163.263,27.627L163.979,28.009L164.695,28.411L165.412,28.828L166.128,29.234L166.845,29.572L167.561,29.803L168.277,29.926L168.994,29.978L169.71,29.995L170.427,29.999L171.143,30L171.859,30L172.576,30L173.292,30L174.009,30L174.725,30L175.441,30L176.158,30L176.874,30L177.591,30L178.307,30L179.023,30L179.74,30L180.456,30L181.173,30L181.889,30L182.605,30L183.322,30L184.038,30L184.754,30L185.471,30L186.187,30L186.904,30L187.62,30L188.336,30L189.053,30L189.769,30L190.486,30L191.202,30L191.918,30L192.635,30L193.351,30L194.068,30L194.784,30L195.5,30L196.217,30L196.933,30L197.65,30L198.366,30L199.082,30L199.799,30L200.515,30L201.232,30L201.948,30L202.664,30L203.381,30L204.097,30L204.814,30L205.53,30L206.246,30L206.963,30L207.679,30L208.396,30L209.112,30L209.828,30L210.545,30L211.261,30L211.977,30L212.694,30L213.41,30L214.127,30L214.843,30L215.559,30L216.276,30L216.992,30L217.709,30L218.425,30L219.141,30L219.858,30L220.574,30L221.291,30L222.007,30L222.723,30L223.44,30L224.156,30L224.873,30L225.589,30L226.305,30L227.022,30L227.738,30L228.455,30L229.171,30L229.887,30L230.604,30L231.32,30L232.037,30L232.753,30L233.469,30L234.186,30L234.902,30L235.619,30L236.335,30L237.051,30L237.768,30L238.484,30L239.2,30L239.917,30L240.633,30L241.35,30L242.066,30L242.782,30L243.499,30L244.215,30L244.932,30L245.648,30L246.364,30L247.081,30L247.797,30L248.514,30L249.23,30L249.946,30L250.663,30L251.379,30L252.096,30L252.812,30L253.528,30L254.245,30L254.961,30L255.678,30L256.394,30L257.11,30L257.827,30L258.543,30L259.26,30L259.976,30L260.692,30L261.409,30L262.125,30L262.842,30L263.558,30L264.274,30L264.991,30L265.707,30L266.423,30L267.14,30L267.856,30L268.573,30L269.289,30L270.005,30L270.722,30L271.438,30L272.155,30L272.871,30L273.587,30L274.304,30L275.02,30L275.737,30L276.453,30L277.169,30L277.886,30L278.602,30L279.319,30L280.035,30L280.751,30L281.468,30L282.184,30L282.901,30L283.617,30L284.333,30L285.05,30L285.766,30L286.483,30L287.199,30L287.915,30L288.632,30L289.348,30L290.064,30L290.781,30L291.497,30L292.214,30L292.93,30L293.646,30L294.363,30L295.079,30L295.796,30L296.512,30L297.228,30L297.945,30L298.661,30L299.378,30L300.094,30L300.81,30L301.527,30L302.243,30L302.96,30L303.676,30L304.392,30L305.109,30L305.825,30L306.542,30L307.258,30L307.974,30L308.691,30L309.407,30L310.124,30L310.84,30L311.556,30L312.273,30L312.989,30L313.706,30L314.422,30L315.138,30L315.855,30L316.571,30L317.287,30L318.004,30L318.72,30L319.437,30L320.153,30L320.869,30L321.586,30L322.302,30L323.019,30L323.735,30L324.451,30L325.168,30L325.884,30L326.601,30L327.317,30L328.033,30L328.75,30L329.466,30L330.183,30L330.899,30L331.615,30L332.332,30L333.048,30L333.765,30L334.481,30L335.197,30L335.914,30L336.63,30L337.347,30L338.063,30L338.779,30L339.496,30L340.212,30L340.929,30L341.645,30L342.361,30L343.078,30L343.794,30L344.51,30L345.227,30L345.943,30L346.66,30L347.376,30L348.092,30L348.809,30L349.525,30L350.242,30L350.958,30L351.674,30L352.391,30L353.107,30L353.824,30L354.54,30L355.256,30L355.973,30L356.689,30L357.406,30L358.122,30L358.122,30L357.406,30L356.689,30L355.973,30L355.256,30L354.54,30L353.824,30L353.107,30L352.391,30L351.674,30L350.958,30L350.242,30L349.525,30L348.809,30L348.092,30L347.376,30L346.66,30L345.943,30L345.227,30L344.51,30L343.794,30L343.078,30L342.361,30L341.645,30L340.929,30L340.212,30L339.496,30L338.779,30L338.063,30L337.347,30L336.63,30L335.914,30L335.197,30L334.481,30L333.765,30L333.048,30L332.332,30L331.615,30L330.899,30L330.183,30L329.466,30L328.75,30L328.033,30L327.317,30L326.601,30L325.884,30L325.168,30L324.451,30L323.735,30L323.019,30L322.302,30L321.586,30L320.869,30L320.153,30L319.437,30L318.72,30L318.004,30L317.287,30L316.571,30L315.855,30L315.138,30L314.422,30L313.706,30L312.989,30L312.273,30L311.556,30L310.84,30L310.124,30L309.407,30L308.691,30L307.974,30L307.258,30L306.542,30L305.825,30L305.109,30L304.392,30L303.676,30L302.96,30L302.243,30L301.527,30L300.81,30L300.094,30L299.378,30L298.661,30L297.945,30L297.228,30L296.512,30L295.796,30L295.079,30L294.363,30L293.646,30L292.93,30L292.214,30L291.497,30L290.781,30L290.064,30L289.348,30L288.632,30L287.915,30L287.199,30L286.483,30L285.766,30L285.05,30L284.333,30L283.617,30L282.901,30L282.184,30L281.468,30L280.751,30L280.035,30L279.319,30L278.602,30L277.886,30L277.169,30L276.453,30L275.737,30L275.02,30L274.304,30L273.587,30L272.871,30L272.155,30L271.438,30L270.722,30L270.005,30L269.289,30L268.573,30L267.856,30L267.14,30L266.423,30L265.707,30L264.991,30L264.274,30L263.558,30L262.842,30L262.125,30L261.409,30L260.692,30L259.976,30L259.26,30L258.543,30L257.827,30L257.11,30L256.394,30L255.678,30L254.961,30L254.245,30L253.528,30L252.812,30L252.096,30L251.379,30L250.663,30L249.946,30L249.23,30L248.514,30L247.797,30L247.081,30L246.364,30L245.648,30L244.932,30L244.215,30L243.499,30L242.782,30L242.066,30L241.35,30L240.633,30L239.917,30L239.2,30L238.484,30L237.768,30L237.051,30L236.335,30L235.619,30L234.902,30L234.186,30L233.469,30L232.753,30L232.037,30L231.32,30L230.604,30L229.887,30L229.171,30L228.455,30L227.738,30L227.022,30L226.305,30L225.589,30L224.873,30L224.156,30L223.44,30L222.723,30L222.007,30L221.291,30L220.574,30L219.858,30L219.141,30L218.425,30L217.709,30L216.992,30L216.276,30L215.559,30L214.843,30L214.127,30L213.41,30L212.694,30L211.977,30L211.261,30L210.545,30L209.828,30L209.112,30L208.396,30L207.679,30L206.963,30L206.246,30L205.53,30L204.814,30L204.097,30L203.381,30L202.664,30L201.948,30L201.232,30L200.515,30L199.799,30L199.082,30L198.366,30L197.65,30L196.933,30L196.217,30L195.5,30L194.784,30L194.068,30L193.351,30L192.635,30L191.918,30L191.202,30L190.486,30L189.769,30L189.053,30L188.336,30L187.62,30L186.904,30L186.187,30L185.471,30L184.754,30L184.038,30L183.322,30L182.605,30L181.889,30L181.173,30L180.456,30L179.74,30L179.023,30L178.307,30L177.591,30L176.874,30L176.158,30L175.441,30L174.725,30L174.009,30L173.292,30L172.576,30L171.859,30L171.143,30L170.427,30L169.71,30L168.994,30L168.277,30L167.561,30L166.845,30L166.128,30L165.412,30L164.695,30L163.979,30L163.263,30L162.546,30L161.83,30L161.113,30L160.397,30L159.681,30L158.964,30L158.248,30L157.532,30L156.815,30L156.099,30L155.382,30L154.666,30L153.95,30L153.233,30L152.517,30L151.8,30L151.084,30L150.368,30L149.651,30L148.935,30L148.218,30L147.502,30L146.786,30L146.069,30L145.353,30L144.636,30L143.92,30L143.204,30L142.487,30L141.771,30L141.054,30L140.338,30L139.622,30L138.905,30L138.189,30L137.472,30L136.756,30L136.04,30L135.323,30L134.607,30L133.89,30L133.174,30L132.458,30L131.741,30L131.025,30L130.309,30L129.592,30L128.876,30L128.159,30L127.443,30L126.727,30L126.01,30L125.294,30L124.577,30L123.861,30L123.145,30L122.428,30L121.712,30L120.995,30L120.279,30L119.563,30L118.846,30L118.13,30L117.413,30L116.697,30L115.981,30L115.264,30L114.548,30L113.831,30L113.115,30L112.399,30L111.682,30L110.966,30L110.249,30L109.533,30L108.817,30L108.1,30L107.384,30L106.667,30L105.951,30L105.235,30L104.518,30L103.802,30L103.086,30L102.369,30L101.653,30L100.936,30L100.22,30L99.504,30L98.787,30L98.071,30L97.354,30L96.638,30L95.922,30L95.205,30L94.489,30L93.772,30L93.056,30L92.34,30L91.623,30L90.907,30L90.19,30L89.474,30L88.758,30L88.041,30L87.325,30L86.608,30L85.892,30L85.176,30L84.459,30L83.743,30L83.026,30L82.31,30L81.594,30L80.877,30L80.161,30L79.444,30L78.728,30L78.012,30L77.295,30L76.579,30L75.863,30L75.146,30L74.43,30L73.713,30L72.997,30L72.281,30L71.564,30L70.848,30L70.131,30L69.415,30L68.699,30L67.982,30L67.266,30L66.549,30L65.833,30L65.117,30L64.4,30L63.684,30L62.967,30L62.251,30L61.535,30L60.818,30L60.102,30L59.385,30L58.669,30L57.953,30L57.236,30L56.52,30L55.803,30L55.087,30L54.371,30L53.654,30L52.938,30L52.221,30L51.505,30L50.789,30L50.072,30L49.356,30L48.64,30L47.923,30L47.207,30L46.49,30L45.774,30L45.058,30L44.341,30L43.625,30L42.908,30L42.192,30L41.476,30L40.759,30L40.043,30L39.326,30L38.61,30L37.894,30L37.177,30L36.461,30L35.744,30L35.028,30L34.312,30L33.595,30L32.879,30L32.162,30L31.446,30L30.73,30L30.013,30L29.297,30L28.58,30L27.864,30L27.148,30L26.431,30L25.715,30L24.999,30L24.282,30L23.566,30L22.849,30L22.133,30L21.417,30L20.7,30L19.984,30L19.267,30L18.551,30L17.835,30L17.118,30L16.402,30L15.685,30L14.969,30L14.253,30L13.536,30L12.82,30L12.103,30L11.387,30L10.671,30L9.954,30L9.238,30L8.521,30L7.805,30L7.089,30L6.372,30L5.656,30L4.939,30L4.223,30L3.507,30L2.79,30L2.074,30L1.357,30L0.641,30Z" fill="black"/></g></g><path class="foreground" aria-hidden="true" d="" display="none"/></g></g></g><path class="foreground" aria-hidden="true" d="" display="none"/></g></g></g></svg>