<svg xmlns="http://www.w3.org/2000/svg" xmlns:xlink="http://www.w3.org/1999/xlink" version="1.1" class="marks" width="375" height="315" viewBox="0 0 375 315"><rect width="375" height="315" fill="white"/><g fill="none" stroke-miterlimit="10" transform="translate(69,42)"><g class="mark-group role-frame root" role="graphics-object" aria-roledescription="group mark container"><g transform="translate(0,0)"><path class="background" aria-hidden="true" d="M0,0h300v0h-300Z"/><g><g class="mark-group role-scope concat_0_group" role="graphics-object" aria-roledescription="group mark container"><g transform="translate(0,0)"><path class="background" aria-hidden="true" d="M0,0h300v30h-300Z"/><g><g class="mark-group role-axis" role="graphics-symbol" aria-roledescription="axis" aria-label="X-axis for a linear scale with values from −15 to 15"><g transform="translate(0.5,30.5)"><path class="background" aria-hidden="true" d="M0,0h0v0h0Z" pointer-events="none"/><g><g class="mark-rule role-axis-tick" pointer-events="none"><line transform="translate(0,0)" x2="0" y2="5" stroke="#888" stroke-width="1" opacity="1"/><line transform="translate(50,0)" x2="0" y2="5" stroke="#888" stroke-width="1" opacity="1"/><line transform="translate(100,0)" x2="0" y2="5" stroke="#888" stroke-width="1" opacity="1"/><line transform="translate(150,0)" x2="0" y2="5" stroke="#888" stroke-width="1" opacity="1"/><line transform="translate(200,0)" x2="0" y2="5" stroke="#888" stroke-width="1" opacity="1"/><line transform="translate(250,0)" x2="0" y2="5" stroke="#888" stroke-width="1" opacity="1"/><line transform="translate(300,0)" x2="0" y2="5" stroke="#888" stroke-width="1" opacity="1"/></g><g class="mark-rule role-axis-domain" pointer-events="none"><line transform="translate(0,0)" x2="300" y2="0" stroke="#888" stroke-width="1" opacity="1"/></g></g><path class="foreground" aria-hidden="true" d="" pointer-events="none" display="none"/></g></g><g class="mark-group role-axis" role="graphics-symbol" aria-roledescription="axis" aria-label="Y-axis titled 'density_normalized' for a linear scale with values from 0.0 to 1.0"><g transform="translate(0.5,0.5)"><path class="background" aria-hidden="true" d="M0,0h0v0h0Z" pointer-events="none"/><g><g class="mark-rule role-axis-tick" pointer-events="none"><line transform="translate(0,30)" x2="-5" y2="0" stroke="#888" stroke-width="1" opacity="1"/><line transform="translate(0,0)" x2="-5" y2="0" stroke="#888" stroke-width="1" opacity="1"/></g><g class="mark-text role-axis-label" pointer-events="none"><text text-anchor="end" transform="translate(-7,33)" font-family="sans-serif" font-size="10px" fill="#000" opacity="1">0</text><text text-anchor="end" transform="translate(-7,3)" font-family="sans-serif" font-size="10px" fill="#000" opacity="1">1</text></g><g class="mark-rule role-axis-domain" pointer-events="none"><line transform="translate(0,30)" x2="0" y2="-30" stroke="#888" stroke-width="1" opacity="1"/></g><g class="mark-text role-axis-title" pointer-events="none"><text text-anchor="middle" transform="translate(-16.5615234375,15) rotate(-90) translate(0,-2)" font-family="sans-serif" font-size="11px" font-weight="bold" fill="#000" opacity="1">density_normalized</text></g></g><path class="foreground" aria-hidden="true" d="" pointer-events="none" display="none"/></g></g><g class="mark-area role-mark concat_0_marks" role="graphics-object" aria-roledescription="area mark container"><path aria-label="G401_average_zscore: −21.3209681189; density_normalized: 1.33816300554e-57" role="graphics-symbol" aria-roledescription="area mark" d="M-63.21,30L-62.493,30L-61.777,30L-61.061,30L-60.345,30L-59.629,30L-58.912,30L-58.196,30L-57.48,30L-56.764,30L-56.048,30L-55.331,30L-54.615,30L-53.899,30L-53.183,30L-52.467,30L-51.75,30L-51.034,30L-50.318,30L-49.602,30L-48.886,30L-48.169,30L-47.453,30L-46.737,30L-46.021,30L-45.305,30L-44.588,30L-43.872,30L-43.156,30L-42.44,30L-41.723,30L-41.007,30L-40.291,30L-39.575,30L-38.859,30L-38.142,30L-37.426,30L-36.71,30L-35.994,30L-35.278,30L-34.561,30L-33.845,30L-33.129,30L-32.413,30L-31.697,30L-30.98,30L-30.264,30L-29.548,30L-28.832,30L-28.116,30L-27.399,30L-26.683,30L-25.967,30L-25.251,30L-24.535,30L-23.818,30L-23.102,30L-22.386,30L-21.67,30L-20.953,30L-20.237,30L-19.521,30L-18.805,30L-18.089,30L-17.372,30L-16.656,30L-15.94,30L-15.224,30L-14.508,30L-13.791,30L-13.075,30L-12.359,30L-11.643,30L-10.927,30L-10.21,30L-9.494,30L-8.778,30L-8.062,30L-7.346,30L-6.629,30L-5.913,30L-5.197,30L-4.481,30L-3.765,30L-3.048,30L-2.332,30L-1.616,30L-0.9,30L-0.183,30L0.533,30L1.249,30L1.965,30L2.681,30L3.398,30L4.114,30L4.83,30L5.546,30L6.262,30L6.979,30L7.695,30L8.411,30L9.127,30L9.843,30L10.56,30L11.276,30L11.992,30L12.708,30L13.424,30L14.141,30L14.857,30L15.573,30L16.289,30L17.005,30L17.722,30L18.438,30L19.154,30L19.87,30L20.587,30L21.303,30L22.019,30L22.735,30L23.451,30L24.168,30L24.884,30L25.6,30L26.316,30L27.032,30L27.749,30L28.465,30L29.181,30L29.897,30L30.613,30L31.33,30L32.046,30L32.762,30L33.478,30L34.194,30L34.911,30L35.627,30L36.343,30L37.059,30L37.775,30L38.492,30L39.208,30L39.924,30L40.64,30L41.357,30L42.073,30L42.789,30L43.505,30L44.221,30L44.938,30L45.654,30L46.37,30L47.086,30L47.802,30L48.519,30L49.235,30L49.951,30L50.667,30L51.383,30L52.1,30L52.816,30L53.532,30L54.248,30L54.964,30L55.681,30L56.397,30L57.113,30L57.829,30L58.545,30L59.262,30L59.978,30L60.694,30L61.41,30L62.127,30L62.843,30L63.559,30L64.275,30L64.991,30L65.708,30L66.424,30L67.14,30L67.856,30L68.572,30L69.289,30L70.005,30L70.721,30L71.437,30L72.153,30L72.87,30L73.586,30L74.302,30L75.018,30L75.734,30L76.451,30L77.167,29.999L77.883,29.999L78.599,29.999L79.315,29.999L80.032,29.999L80.748,29.998L81.464,29.998L82.18,29.998L82.896,29.997L83.613,29.997L84.329,29.996L85.045,29.995L85.761,29.994L86.478,29.993L87.194,29.992L87.91,29.991L88.626,29.99L89.342,29.988L90.059,29.986L90.775,29.984L91.491,29.982L92.207,29.979L92.923,29.977L93.64,29.974L94.356,29.97L95.072,29.967L95.788,29.963L96.504,29.959L97.221,29.955L97.937,29.95L98.653,29.945L99.369,29.94L100.085,29.934L100.802,29.928L101.518,29.922L102.234,29.916L102.95,29.909L103.666,29.903L104.383,29.896L105.099,29.888L105.815,29.881L106.531,29.873L107.248,29.865L107.964,29.856L108.68,29.847L109.396,29.838L110.112,29.828L110.829,29.817L111.545,29.806L112.261,29.794L112.977,29.781L113.693,29.766L114.41,29.75L115.126,29.733L115.842,29.714L116.558,29.693L117.274,29.67L117.991,29.644L118.707,29.615L119.423,29.582L120.139,29.547L120.855,29.507L121.572,29.463L122.288,29.414L123.004,29.36L123.72,29.3L124.436,29.234L125.153,29.162L125.869,29.083L126.585,28.996L127.301,28.901L128.018,28.798L128.734,28.685L129.45,28.564L130.166,28.432L130.882,28.289L131.599,28.136L132.315,27.97L133.031,27.793L133.747,27.602L134.463,27.399L135.18,27.181L135.896,26.95L136.612,26.703L137.328,26.442L138.044,26.165L138.761,25.872L139.477,25.563L140.193,25.237L140.909,24.894L141.625,24.534L142.342,24.157L143.058,23.763L143.774,23.351L144.49,22.923L145.206,22.477L145.923,22.014L146.639,21.535L147.355,21.039L148.071,20.528L148.788,20L149.504,19.458L150.22,18.902L150.936,18.332L151.652,17.749L152.369,17.154L153.085,16.548L153.801,15.932L154.517,15.307L155.233,14.674L155.95,14.033L156.666,13.388L157.382,12.738L158.098,12.085L158.814,11.431L159.531,10.776L160.247,10.124L160.963,9.475L161.679,8.832L162.395,8.195L163.112,7.567L163.828,6.951L164.544,6.347L165.26,5.758L165.976,5.186L166.693,4.633L167.409,4.101L168.125,3.592L168.841,3.109L169.558,2.654L170.274,2.228L170.99,1.833L171.706,1.473L172.422,1.148L173.139,0.86L173.855,0.611L174.571,0.403L175.287,0.236L176.003,0.113L176.72,0.034L177.436,0L178.152,0.012L178.868,0.07L179.584,0.174L180.301,0.325L181.017,0.522L181.733,0.764L182.449,1.051L183.165,1.381L183.882,1.754L184.598,2.167L185.314,2.619L186.03,3.108L186.746,3.631L187.463,4.186L188.179,4.77L188.895,5.381L189.611,6.016L190.328,6.671L191.044,7.344L191.76,8.031L192.476,8.73L193.192,9.437L193.909,10.15L194.625,10.865L195.341,11.58L196.057,12.291L196.773,12.997L197.49,13.695L198.206,14.383L198.922,15.058L199.638,15.72L200.354,16.367L201.071,16.997L201.787,17.608L202.503,18.202L203.219,18.775L203.935,19.329L204.652,19.862L205.368,20.374L206.084,20.865L206.8,21.336L207.516,21.787L208.233,22.217L208.949,22.627L209.665,23.018L210.381,23.39L211.098,23.744L211.814,24.079L212.53,24.398L213.246,24.699L213.962,24.985L214.679,25.256L215.395,25.511L216.111,25.753L216.827,25.981L217.543,26.196L218.26,26.399L218.976,26.59L219.692,26.769L220.408,26.938L221.124,27.097L221.841,27.247L222.557,27.387L223.273,27.519L223.989,27.642L224.705,27.757L225.422,27.866L226.138,27.967L226.854,28.061L227.57,28.15L228.286,28.232L229.003,28.309L229.719,28.38L230.435,28.447L231.151,28.509L231.868,28.566L232.584,28.619L233.3,28.668L234.016,28.714L234.732,28.756L235.449,28.795L236.165,28.831L236.881,28.864L237.597,28.895L238.313,28.924L239.03,28.951L239.746,28.976L240.462,28.999L241.178,29.021L241.894,29.042L242.611,29.062L243.327,29.082L244.043,29.101L244.759,29.119L245.475,29.138L246.192,29.156L246.908,29.175L247.624,29.193L248.34,29.213L249.056,29.232L249.773,29.252L250.489,29.273L251.205,29.294L251.921,29.316L252.638,29.338L253.354,29.36L254.07,29.383L254.786,29.407L255.502,29.431L256.219,29.455L256.935,29.479L257.651,29.504L258.367,29.528L259.083,29.552L259.8,29.576L260.516,29.6L261.232,29.624L261.948,29.647L262.664,29.669L263.381,29.691L264.097,29.713L264.813,29.733L265.529,29.753L266.245,29.772L266.962,29.79L267.678,29.808L268.394,29.824L269.11,29.839L269.826,29.854L270.543,29.868L271.259,29.88L271.975,29.892L272.691,29.903L273.408,29.913L274.124,29.923L274.84,29.931L275.556,29.939L276.272,29.946L276.989,29.953L277.705,29.958L278.421,29.964L279.137,29.968L279.853,29.972L280.57,29.976L281.286,29.979L282.002,29.982L282.718,29.985L283.434,29.987L284.151,29.989L284.867,29.991L285.583,29.992L286.299,29.993L287.015,29.994L287.732,29.995L288.448,29.996L289.164,29.997L289.88,29.997L290.596,29.998L291.313,29.998L292.029,29.999L292.745,29.999L293.461,29.999L294.177,29.999L294.177,30L293.461,30L292.745,30L292.029,30L291.313,30L290.596,30L289.88,30L289.164,30L288.448,30L287.732,30L287.015,30L286.299,30L285.583,30L284.867,30L284.151,30L283.434,30L282.718,30L282.002,30L281.286,30L280.57,30L279.853,30L279.137,30L278.421,30L277.705,30L276.989,30L276.272,30L275.556,30L274.84,30L274.124,30L273.408,30L272.691,30L271.975,30L271.259,30L270.543,30L269.826,30L269.11,30L268.394,30L267.678,30L266.962,30L266.245,30L265.529,30L264.813,30L264.097,30L263.381,30L262.664,30L261.948,30L261.232,30L260.516,30L259.8,30L259.083,30L258.367,30L257.651,30L256.935,30L256.219,30L255.502,30L254.786,30L254.07,30L253.354,30L252.638,30L251.921,30L251.205,30L250.489,30L249.773,30L249.056,30L248.34,30L247.624,30L246.908,30L246.192,30L245.475,30L244.759,30L244.043,30L243.327,30L242.611,30L241.894,30L241.178,30L240.462,30L239.746,30L239.03,30L238.313,30L237.597,30L236.881,30L236.165,30L235.449,30L234.732,30L234.016,30L233.3,30L232.584,30L231.868,30L231.151,30L230.435,30L229.719,30L229.003,30L228.286,30L227.57,30L226.854,30L226.138,30L225.422,30L224.705,30L223.989,30L223.273,30L222.557,30L221.841,30L221.124,30L220.408,30L219.692,30L218.976,30L218.26,30L217.543,30L216.827,30L216.111,30L215.395,30L214.679,30L213.962,30L213.246,30L212.53,30L211.814,30L211.098,30L210.381,30L209.665,30L208.949,30L208.233,30L207.516,30L206.8,30L206.084,30L205.368,30L204.652,30L203.935,30L203.219,30L202.503,30L201.787,30L201.071,30L200.354,30L199.638,30L198.922,30L198.206,30L197.49,30L196.773,30L196.057,30L195.341,30L194.625,30L193.909,30L193.192,30L192.476,30L191.76,30L191.044,30L190.328,30L189.611,30L188.895,30L188.179,30L187.463,30L186.746,30L186.03,30L185.314,30L184.598,30L183.882,30L183.165,30L182.449,30L181.733,30L181.017,30L180.301,30L179.584,30L178.868,30L178.152,30L177.436,30L176.72,30L176.003,30L175.287,30L174.571,30L173.855,30L173.139,30L172.422,30L171.706,30L170.99,30L170.274,30L169.558,30L168.841,30L168.125,30L167.409,30L166.693,30L165.976,30L165.26,30L164.544,30L163.828,30L163.112,30L162.395,30L161.679,30L160.963,30L160.247,30L159.531,30L158.814,30L158.098,30L157.382,30L156.666,30L155.95,30L155.233,30L154.517,30L153.801,30L153.085,30L152.369,30L151.652,30L150.936,30L150.22,30L149.504,30L148.788,30L148.071,30L147.355,30L146.639,30L145.923,30L145.206,30L144.49,30L143.774,30L143.058,30L142.342,30L141.625,30L140.909,30L140.193,30L139.477,30L138.761,30L138.044,30L137.328,30L136.612,30L135.896,30L135.18,30L134.463,30L133.747,30L133.031,30L132.315,30L131.599,30L130.882,30L130.166,30L129.45,30L128.734,30L128.018,30L127.301,30L126.585,30L125.869,30L125.153,30L124.436,30L123.72,30L123.004,30L122.288,30L121.572,30L120.855,30L120.139,30L119.423,30L118.707,30L117.991,30L117.274,30L116.558,30L115.842,30L115.126,30L114.41,30L113.693,30L112.977,30L112.261,30L111.545,30L110.829,30L110.112,30L109.396,30L108.68,30L107.964,30L107.248,30L106.531,30L105.815,30L105.099,30L104.383,30L103.666,30L102.95,30L102.234,30L101.518,30L100.802,30L100.085,30L99.369,30L98.653,30L97.937,30L97.221,30L96.504,30L95.788,30L95.072,30L94.356,30L93.64,30L92.923,30L92.207,30L91.491,30L90.775,30L90.059,30L89.342,30L88.626,30L87.91,30L87.194,30L86.478,30L85.761,30L85.045,30L84.329,30L83.613,30L82.896,30L82.18,30L81.464,30L80.748,30L80.032,30L79.315,30L78.599,30L77.883,30L77.167,30L76.451,30L75.734,30L75.018,30L74.302,30L73.586,30L72.87,30L72.153,30L71.437,30L70.721,30L70.005,30L69.289,30L68.572,30L67.856,30L67.14,30L66.424,30L65.708,30L64.991,30L64.275,30L63.559,30L62.843,30L62.127,30L61.41,30L60.694,30L59.978,30L59.262,30L58.545,30L57.829,30L57.113,30L56.397,30L55.681,30L54.964,30L54.248,30L53.532,30L52.816,30L52.1,30L51.383,30L50.667,30L49.951,30L49.235,30L48.519,30L47.802,30L47.086,30L46.37,30L45.654,30L44.938,30L44.221,30L43.505,30L42.789,30L42.073,30L41.357,30L40.64,30L39.924,30L39.208,30L38.492,30L37.775,30L37.059,30L36.343,30L35.627,30L34.911,30L34.194,30L33.478,30L32.762,30L32.046,30L31.33,30L30.613,30L29.897,30L29.181,30L28.465,30L27.749,30L27.032,30L26.316,30L25.6,30L24.884,30L24.168,30L23.451,30L22.735,30L22.019,30L21.303,30L20.587,30L19.87,30L19.154,30L18.438,30L17.722,30L17.005,30L16.289,30L15.573,30L14.857,30L14.141,30L13.424,30L12.708,30L11.992,30L11.276,30L10.56,30L9.843,30L9.127,30L8.411,30L7.695,30L6.979,30L6.262,30L5.546,30L4.83,30L4.114,30L3.398,30L2.681,30L1.965,30L1.249,30L0.533,30L-0.183,30L-0.9,30L-1.616,30L-2.332,30L-3.048,30L-3.765,30L-4.481,30L-5.197,30L-5.913,30L-6.629,30L-7.346,30L-8.062,30L-8.778,30L-9.494,30L-10.21,30L-10.927,30L-11.643,30L-12.359,30L-13.075,30L-13.791,30L-14.508,30L-15.224,30L-15.94,30L-16.656,30L-17.372,30L-18.089,30L-18.805,30L-19.521,30L-20.237,30L-20.953,30L-21.67,30L-22.386,30L-23.102,30L-23.818,30L-24.535,30L-25.251,30L-25.967,30L-26.683,30L-27.399,30L-28.116,30L-28.832,30L-29.548,30L-30.264,30L-30.98,30L-31.697,30L-32.413,30L-33.129,30L-33.845,30L-34.561,30L-35.278,30L-35.994,30L-36.71,30L-37.426,30L-38.142,30L-38.859,30L-39.575,30L-40.291,30L-41.007,30L-41.723,30L-42.44,30L-43.156,30L-43.872,30L-44.588,30L-45.305,30L-46.021,30L-46.737,30L-47.453,30L-48.169,30L-48.886,30L-49.602,30L-50.318,30L-51.034,30L-51.75,30L-52.467,30L-53.183,30L-53.899,30L-54.615,30L-55.331,30L-56.048,30L-56.764,30L-57.48,30L-58.196,30L-58.912,30L-59.629,30L-60.345,30L-61.061,30L-61.777,30L-62.493,30L-63.21,30Z" fill="darkblue"/></g></g><path class="foreground" aria-hidden="true" d="" display="none"/></g></g><g class="mark-group role-scope concat_1_group" role="graphics-object" aria-roledescription="group mark container"><g transform="translate(0,67)"><path class="background" aria-hidden="true" d="M0,0h300v30h-300Z"/><g><g class="mark-group role-axis" role="graphics-symbol" aria-roledescription="axis" aria-label="X-axis for a linear scale with values from −15 to 15"><g transform="translate(0.5,30.5)"><path class="background" aria-hidden="true" d="M0,0h0v0h0Z" pointer-events="none"/><g><g class="mark-rule role-axis-tick" pointer-events="none"><line transform="translate(0,0)" x2="0" y2="5" stroke="#888" stroke-width="1" opacity="1"/><line transform="translate(50,0)" x2="0" y2="5" stroke="#888" stroke-width="1" opacity="1"/><line transform="translate(100,0)" x2="0" y2="5" stroke="#888" stroke-width="1" opacity="1"/><line transform="translate(150,0)" x2="0" y2="5" stroke="#888" stroke-width="1" opacity="1"/><line transform="translate(200,0)" x2="0" y2="5" stroke="#888" stroke-width="1" opacity="1"/><line transform="translate(250,0)" x2="0" y2="5" stroke="#888" stroke-width="1" opacity="1"/><line transform="translate(300,0)" x2="0" y2="5" stroke="#888" stroke-width="1" opacity="1"/></g><g class="mark-rule role-axis-domain" pointer-events="none"><line transform="translate(0,0)" x2="300" y2="0" stroke="#888" stroke-width="1" opacity="1"/></g></g><path class="foreground" aria-hidden="true" d="" pointer-events="none" display="none"/></g></g><g class="mark-group role-axis" role="graphics-symbol" aria-roledescription="axis" aria-label="Y-axis titled 'density_normalized' for a linear scale with values from 0.0 to 1.0"><g transform="translate(0.5,0.5)"><path class="background" aria-hidden="true" d="M0,0h0v0h0Z" pointer-events="none"/><g><g class="mark-rule role-axis-tick" pointer-events="none"><line transform="translate(0,30)" x2="-5" y2="0" stroke="#888" stroke-width="1" opacity="1"/><line transform="translate(0,0)" x2="-5" y2="0" stroke="#888" stroke-width="1" opacity="1"/></g><g class="mark-text role-axis-label" pointer-events="none"><text text-anchor="end" transform="translate(-7,33)" font-family="sans-serif" font-size="10px" fill="#000" opacity="1">0</text><text text-anchor="end" transform="translate(-7,3)" font-family="sans-serif" font-size="10px" fill="#000" opacity="1">1</text></g><g class="mark-rule role-axis-domain" pointer-events="none"><line transform="translate(0,30)" x2="0" y2="-30" stroke="#888" stroke-width="1" opacity="1"/></g><g class="mark-text role-axis-title" pointer-events="none"><text text-anchor="middle" transform="translate(-16.5615234375,15) rotate(-90) translate(0,-2)" font-family="sans-serif" font-size="11px" font-weight="bold" fill="#000" opacity="1">density_normalized</text></g></g><path class="foreground" aria-hidden="true" d="" pointer-events="none" display="none"/></g></g><g class="mark-area role-mark concat_1_marks" role="graphics-object" aria-roledescription="area mark container"><path aria-label="G401_average_zscore: −21.3209681189; density_normalized: 1.59895887032e-10" role="graphics-symbol" aria-roledescription="area mark" d="M-63.21,30L-62.493,30L-61.777,30L-61.061,30L-60.345,30L-59.629,30L-58.912,30L-58.196,30L-57.48,30L-56.764,30L-56.048,30L-55.331,30L-54.615,30L-53.899,30L-53.183,30L-52.467,30L-51.75,30L-51.034,30L-50.318,30L-49.602,30L-48.886,30L-48.169,30L-47.453,30L-46.737,30L-46.021,30L-45.305,30L-44.588,30L-43.872,30L-43.156,30L-42.44,30L-41.723,30L-41.007,30L-40.291,30L-39.575,30L-38.859,30L-38.142,30L-37.426,30L-36.71,30L-35.994,30L-35.278,30L-34.561,30L-33.845,30L-33.129,30L-32.413,30L-31.697,30L-30.98,30L-30.264,30L-29.548,30L-28.832,30L-28.116,30L-27.399,30L-26.683,30L-25.967,30L-25.251,30L-24.535,30L-23.818,30L-23.102,30L-22.386,30L-21.67,30L-20.953,30L-20.237,30L-19.521,30L-18.805,29.999L-18.089,29.999L-17.372,29.999L-16.656,29.999L-15.94,29.999L-15.224,29.999L-14.508,29.999L-13.791,29.999L-13.075,29.999L-12.359,29.998L-11.643,29.998L-10.927,29.998L-10.21,29.998L-9.494,29.997L-8.778,29.997L-8.062,29.997L-7.346,29.996L-6.629,29.996L-5.913,29.995L-5.197,29.995L-4.481,29.994L-3.765,29.993L-3.048,29.993L-2.332,29.992L-1.616,29.991L-0.9,29.99L-0.183,29.989L0.533,29.988L1.249,29.987L1.965,29.986L2.681,29.985L3.398,29.983L4.114,29.982L4.83,29.98L5.546,29.978L6.262,29.977L6.979,29.975L7.695,29.973L8.411,29.97L9.127,29.968L9.843,29.966L10.56,29.963L11.276,29.961L11.992,29.958L12.708,29.955L13.424,29.952L14.141,29.949L14.857,29.946L15.573,29.942L16.289,29.939L17.005,29.936L17.722,29.932L18.438,29.928L19.154,29.924L19.87,29.921L20.587,29.917L21.303,29.913L22.019,29.909L22.735,29.905L23.451,29.9L24.168,29.896L24.884,29.892L25.6,29.888L26.316,29.884L27.032,29.88L27.749,29.876L28.465,29.872L29.181,29.868L29.897,29.865L30.613,29.861L31.33,29.858L32.046,29.854L32.762,29.851L33.478,29.848L34.194,29.845L34.911,29.842L35.627,29.84L36.343,29.837L37.059,29.835L37.775,29.833L38.492,29.831L39.208,29.829L39.924,29.828L40.64,29.826L41.357,29.825L42.073,29.824L42.789,29.823L43.505,29.822L44.221,29.821L44.938,29.821L45.654,29.82L46.37,29.82L47.086,29.819L47.802,29.819L48.519,29.818L49.235,29.818L49.951,29.817L50.667,29.816L51.383,29.815L52.1,29.814L52.816,29.813L53.532,29.812L54.248,29.81L54.964,29.808L55.681,29.805L56.397,29.802L57.113,29.799L57.829,29.795L58.545,29.791L59.262,29.786L59.978,29.781L60.694,29.775L61.41,29.768L62.127,29.761L62.843,29.753L63.559,29.744L64.275,29.734L64.991,29.723L65.708,29.712L66.424,29.7L67.14,29.686L67.856,29.672L68.572,29.657L69.289,29.64L70.005,29.623L70.721,29.605L71.437,29.585L72.153,29.564L72.87,29.542L73.586,29.519L74.302,29.495L75.018,29.469L75.734,29.442L76.451,29.414L77.167,29.385L77.883,29.354L78.599,29.321L79.315,29.288L80.032,29.252L80.748,29.216L81.464,29.177L82.18,29.138L82.896,29.096L83.613,29.053L84.329,29.009L85.045,28.962L85.761,28.914L86.478,28.864L87.194,28.812L87.91,28.759L88.626,28.703L89.342,28.645L90.059,28.585L90.775,28.524L91.491,28.459L92.207,28.393L92.923,28.324L93.64,28.253L94.356,28.18L95.072,28.104L95.788,28.025L96.504,27.943L97.221,27.859L97.937,27.772L98.653,27.682L99.369,27.589L100.085,27.493L100.802,27.393L101.518,27.29L102.234,27.184L102.95,27.075L103.666,26.962L104.383,26.845L105.099,26.724L105.815,26.6L106.531,26.472L107.248,26.339L107.964,26.203L108.68,26.062L109.396,25.918L110.112,25.768L110.829,25.615L111.545,25.457L112.261,25.294L112.977,25.126L113.693,24.954L114.41,24.777L115.126,24.595L115.842,24.409L116.558,24.217L117.274,24.02L117.991,23.818L118.707,23.61L119.423,23.398L120.139,23.18L120.855,22.957L121.572,22.728L122.288,22.495L123.004,22.255L123.72,22.011L124.436,21.76L125.153,21.505L125.869,21.244L126.585,20.977L127.301,20.705L128.018,20.428L128.734,20.145L129.45,19.857L130.166,19.563L130.882,19.264L131.599,18.96L132.315,18.651L133.031,18.337L133.747,18.018L134.463,17.694L135.18,17.365L135.896,17.032L136.612,16.694L137.328,16.352L138.044,16.006L138.761,15.655L139.477,15.301L140.193,14.943L140.909,14.582L141.625,14.218L142.342,13.851L143.058,13.481L143.774,13.108L144.49,12.734L145.206,12.358L145.923,11.98L146.639,11.601L147.355,11.221L148.071,10.84L148.788,10.46L149.504,10.08L150.22,9.7L150.936,9.321L151.652,8.944L152.369,8.568L153.085,8.195L153.801,7.825L154.517,7.458L155.233,7.094L155.95,6.734L156.666,6.379L157.382,6.029L158.098,5.684L158.814,5.345L159.531,5.013L160.247,4.687L160.963,4.369L161.679,4.059L162.395,3.757L163.112,3.463L163.828,3.179L164.544,2.904L165.26,2.639L165.976,2.385L166.693,2.141L167.409,1.909L168.125,1.689L168.841,1.48L169.558,1.284L170.274,1.101L170.99,0.93L171.706,0.774L172.422,0.63L173.139,0.501L173.855,0.386L174.571,0.286L175.287,0.2L176.003,0.13L176.72,0.074L177.436,0.034L178.152,0.009L178.868,0L179.584,0.006L180.301,0.029L181.017,0.067L181.733,0.121L182.449,0.19L183.165,0.276L183.882,0.377L184.598,0.494L185.314,0.626L186.03,0.774L186.746,0.937L187.463,1.115L188.179,1.308L188.895,1.516L189.611,1.738L190.328,1.974L191.044,2.224L191.76,2.487L192.476,2.764L193.192,3.053L193.909,3.354L194.625,3.667L195.341,3.991L196.057,4.327L196.773,4.672L197.49,5.028L198.206,5.393L198.922,5.766L199.638,6.148L200.354,6.537L201.071,6.934L201.787,7.337L202.503,7.746L203.219,8.16L203.935,8.579L204.652,9.002L205.368,9.428L206.084,9.858L206.8,10.289L207.516,10.723L208.233,11.157L208.949,11.592L209.665,12.028L210.381,12.463L211.098,12.896L211.814,13.328L212.53,13.759L213.246,14.186L213.962,14.611L214.679,15.032L215.395,15.45L216.111,15.863L216.827,16.272L217.543,16.676L218.26,17.075L218.976,17.468L219.692,17.855L220.408,18.236L221.124,18.611L221.841,18.979L222.557,19.34L223.273,19.695L223.989,20.042L224.705,20.382L225.422,20.715L226.138,21.041L226.854,21.359L227.57,21.669L228.286,21.972L229.003,22.267L229.719,22.555L230.435,22.835L231.151,23.107L231.868,23.372L232.584,23.63L233.3,23.88L234.016,24.122L234.732,24.358L235.449,24.586L236.165,24.807L236.881,25.022L237.597,25.229L238.313,25.43L239.03,25.624L239.746,25.811L240.462,25.993L241.178,26.168L241.894,26.337L242.611,26.5L243.327,26.657L244.043,26.809L244.759,26.955L245.475,27.095L246.192,27.231L246.908,27.361L247.624,27.486L248.34,27.607L249.056,27.723L249.773,27.834L250.489,27.941L251.205,28.043L251.921,28.142L252.638,28.236L253.354,28.326L254.07,28.412L254.786,28.495L255.502,28.574L256.219,28.649L256.935,28.721L257.651,28.79L258.367,28.855L259.083,28.918L259.8,28.977L260.516,29.034L261.232,29.087L261.948,29.138L262.664,29.186L263.381,29.232L264.097,29.275L264.813,29.315L265.529,29.354L266.245,29.39L266.962,29.423L267.678,29.455L268.394,29.485L269.11,29.513L269.826,29.539L270.543,29.563L271.259,29.586L271.975,29.607L272.691,29.626L273.408,29.644L274.124,29.661L274.84,29.676L275.556,29.69L276.272,29.703L276.989,29.714L277.705,29.725L278.421,29.734L279.137,29.743L279.853,29.751L280.57,29.758L281.286,29.765L282.002,29.77L282.718,29.776L283.434,29.78L284.151,29.784L284.867,29.788L285.583,29.791L286.299,29.795L287.015,29.797L287.732,29.8L288.448,29.802L289.164,29.804L289.88,29.806L290.596,29.808L291.313,29.81L292.029,29.812L292.745,29.814L293.461,29.816L294.177,29.818L294.177,30L293.461,30L292.745,30L292.029,30L291.313,30L290.596,30L289.88,30L289.164,30L288.448,30L287.732,30L287.015,30L286.299,30L285.583,30L284.867,30L284.151,30L283.434,30L282.718,30L282.002,30L281.286,30L280.57,30L279.853,30L279.137,30L278.421,30L277.705,30L276.989,30L276.272,30L275.556,30L274.84,30L274.124,30L273.408,30L272.691,30L271.975,30L271.259,30L270.543,30L269.826,30L269.11,30L268.394,30L267.678,30L266.962,30L266.245,30L265.529,30L264.813,30L264.097,30L263.381,30L262.664,30L261.948,30L261.232,30L260.516,30L259.8,30L259.083,30L258.367,30L257.651,30L256.935,30L256.219,30L255.502,30L254.786,30L254.07,30L253.354,30L252.638,30L251.921,30L251.205,30L250.489,30L249.773,30L249.056,30L248.34,30L247.624,30L246.908,30L246.192,30L245.475,30L244.759,30L244.043,30L243.327,30L242.611,30L241.894,30L241.178,30L240.462,30L239.746,30L239.03,30L238.313,30L237.597,30L236.881,30L236.165,30L235.449,30L234.732,30L234.016,30L233.3,30L232.584,30L231.868,30L231.151,30L230.435,30L229.719,30L229.003,30L228.286,30L227.57,30L226.854,30L226.138,30L225.422,30L224.705,30L223.989,30L223.273,30L222.557,30L221.841,30L221.124,30L220.408,30L219.692,30L218.976,30L218.26,30L217.543,30L216.827,30L216.111,30L215.395,30L214.679,30L213.962,30L213.246,30L212.53,30L211.814,30L211.098,30L210.381,30L209.665,30L208.949,30L208.233,30L207.516,30L206.8,30L206.084,30L205.368,30L204.652,30L203.935,30L203.219,30L202.503,30L201.787,30L201.071,30L200.354,30L199.638,30L198.922,30L198.206,30L197.49,30L196.773,30L196.057,30L195.341,30L194.625,30L193.909,30L193.192,30L192.476,30L191.76,30L191.044,30L190.328,30L189.611,30L188.895,30L188.179,30L187.463,30L186.746,30L186.03,30L185.314,30L184.598,30L183.882,30L183.165,30L182.449,30L181.733,30L181.017,30L180.301,30L179.584,30L178.868,30L178.152,30L177.436,30L176.72,30L176.003,30L175.287,30L174.571,30L173.855,30L173.139,30L172.422,30L171.706,30L170.99,30L170.274,30L169.558,30L168.841,30L168.125,30L167.409,30L166.693,30L165.976,30L165.26,30L164.544,30L163.828,30L163.112,30L162.395,30L161.679,30L160.963,30L160.247,30L159.531,30L158.814,30L158.098,30L157.382,30L156.666,30L155.95,30L155.233,30L154.517,30L153.801,30L153.085,30L152.369,30L151.652,30L150.936,30L150.22,30L149.504,30L148.788,30L148.071,30L147.355,30L146.639,30L145.923,30L145.206,30L144.49,30L143.774,30L143.058,30L142.342,30L141.625,30L140.909,30L140.193,30L139.477,30L138.761,30L138.044,30L137.328,30L136.612,30L135.896,30L135.18,30L134.463,30L133.747,30L133.031,30L132.315,30L131.599,30L130.882,30L130.166,30L129.45,30L128.734,30L128.018,30L127.301,30L126.585,30L125.869,30L125.153,30L124.436,30L123.72,30L123.004,30L122.288,30L121.572,30L120.855,30L120.139,30L119.423,30L118.707,30L117.991,30L117.274,30L116.558,30L115.842,30L115.126,30L114.41,30L113.693,30L112.977,30L112.261,30L111.545,30L110.829,30L110.112,30L109.396,30L108.68,30L107.964,30L107.248,30L106.531,30L105.815,30L105.099,30L104.383,30L103.666,30L102.95,30L102.234,30L101.518,30L100.802,30L100.085,30L99.369,30L98.653,30L97.937,30L97.221,30L96.504,30L95.788,30L95.072,30L94.356,30L93.64,30L92.923,30L92.207,30L91.491,30L90.775,30L90.059,30L89.342,30L88.626,30L87.91,30L87.194,30L86.478,30L85.761,30L85.045,30L84.329,30L83.613,30L82.896,30L82.18,30L81.464,30L80.748,30L80.032,30L79.315,30L78.599,30L77.883,30L77.167,30L76.451,30L75.734,30L75.018,30L74.302,30L73.586,30L72.87,30L72.153,30L71.437,30L70.721,30L70.005,30L69.289,30L68.572,30L67.856,30L67.14,30L66.424,30L65.708,30L64.991,30L64.275,30L63.559,30L62.843,30L62.127,30L61.41,30L60.694,30L59.978,30L59.262,30L58.545,30L57.829,30L57.113,30L56.397,30L55.681,30L54.964,30L54.248,30L53.532,30L52.816,30L52.1,30L51.383,30L50.667,30L49.951,30L49.235,30L48.519,30L47.802,30L47.086,30L46.37,30L45.654,30L44.938,30L44.221,30L43.505,30L42.789,30L42.073,30L41.357,30L40.64,30L39.924,30L39.208,30L38.492,30L37.775,30L37.059,30L36.343,30L35.627,30L34.911,30L34.194,30L33.478,30L32.762,30L32.046,30L31.33,30L30.613,30L29.897,30L29.181,30L28.465,30L27.749,30L27.032,30L26.316,30L25.6,30L24.884,30L24.168,30L23.451,30L22.735,30L22.019,30L21.303,30L20.587,30L19.87,30L19.154,30L18.438,30L17.722,30L17.005,30L16.289,30L15.573,30L14.857,30L14.141,30L13.424,30L12.708,30L11.992,30L11.276,30L10.56,30L9.843,30L9.127,30L8.411,30L7.695,30L6.979,30L6.262,30L5.546,30L4.83,30L4.114,30L3.398,30L2.681,30L1.965,30L1.249,30L0.533,30L-0.183,30L-0.9,30L-1.616,30L-2.332,30L-3.048,30L-3.765,30L-4.481,30L-5.197,30L-5.913,30L-6.629,30L-7.346,30L-8.062,30L-8.778,30L-9.494,30L-10.21,30L-10.927,30L-11.643,30L-12.359,30L-13.075,30L-13.791,30L-14.508,30L-15.224,30L-15.94,30L-16.656,30L-17.372,30L-18.089,30L-18.805,30L-19.521,30L-20.237,30L-20.953,30L-21.67,30L-22.386,30L-23.102,30L-23.818,30L-24.535,30L-25.251,30L-25.967,30L-26.683,30L-27.399,30L-28.116,30L-28.832,30L-29.548,30L-30.264,30L-30.98,30L-31.697,30L-32.413,30L-33.129,30L-33.845,30L-34.561,30L-35.278,30L-35.994,30L-36.71,30L-37.426,30L-38.142,30L-38.859,30L-39.575,30L-40.291,30L-41.007,30L-41.723,30L-42.44,30L-43.156,30L-43.872,30L-44.588,30L-45.305,30L-46.021,30L-46.737,30L-47.453,30L-48.169,30L-48.886,30L-49.602,30L-50.318,30L-51.034,30L-51.75,30L-52.467,30L-53.183,30L-53.899,30L-54.615,30L-55.331,30L-56.048,30L-56.764,30L-57.48,30L-58.196,30L-58.912,30L-59.629,30L-60.345,30L-61.061,30L-61.777,30L-62.493,30L-63.21,30Z" fill="red"/></g></g><path class="foreground" aria-hidden="true" d="" display="none"/></g></g><g class="mark-group role-scope concat_2_group" role="graphics-object" aria-roledescription="group mark container"><g transform="translate(0,134)"><path class="background" aria-hidden="true" d="M0,0h300v30h-300Z"/><g><g class="mark-group role-axis" role="graphics-symbol" aria-roledescription="axis" aria-label="X-axis for a linear scale with values from −15 to 15"><g transform="translate(0.5,30.5)"><path class="background" aria-hidden="true" d="M0,0h0v0h0Z" pointer-events="none"/><g><g class="mark-rule role-axis-tick" pointer-events="none"><line transform="translate(0,0)" x2="0" y2="5" stroke="#888" stroke-width="1" opacity="1"/><line transform="translate(50,0)" x2="0" y2="5" stroke="#888" stroke-width="1" opacity="1"/><line transform="translate(100,0)" x2="0" y2="5" stroke="#888" stroke-width="1" opacity="1"/><line transform="translate(150,0)" x2="0" y2="5" stroke="#888" stroke-width="1" opacity="1"/><line transform="translate(200,0)" x2="0" y2="5" stroke="#888" stroke-width="1" opacity="1"/><line transform="translate(250,0)" x2="0" y2="5" stroke="#888" stroke-width="1" opacity="1"/><line transform="translate(300,0)" x2="0" y2="5" stroke="#888" stroke-width="1" opacity="1"/></g><g class="mark-rule role-axis-domain" pointer-events="none"><line transform="translate(0,0)" x2="300" y2="0" stroke="#888" stroke-width="1" opacity="1"/></g></g><path class="foreground" aria-hidden="true" d="" pointer-events="none" display="none"/></g></g><g class="mark-group role-axis" role="graphics-symbol" aria-roledescription="axis" aria-label="Y-axis titled 'density_normalized' for a linear scale with values from 0.0 to 1.0"><g transform="translate(0.5,0.5)"><path class="background" aria-hidden="true" d="M0,0h0v0h0Z" pointer-events="none"/><g><g class="mark-rule role-axis-tick" pointer-events="none"><line transform="translate(0,30)" x2="-5" y2="0" stroke="#888" stroke-width="1" opacity="1"/><line transform="translate(0,0)" x2="-5" y2="0" stroke="#888" stroke-width="1" opacity="1"/></g><g class="mark-text role-axis-label" pointer-events="none"><text text-anchor="end" transform="translate(-7,33)" font-family="sans-serif" font-size="10px" fill="#000" opacity="1">0</text><text text-anchor="end" transform="translate(-7,3)" font-family="sans-serif" font-size="10px" fill="#000" opacity="1">1</text></g><g class="mark-rule role-axis-domain" pointer-events="none"><line transform="translate(0,30)" x2="0" y2="-30" stroke="#888" stroke-width="1" opacity="1"/></g><g class="mark-text role-axis-title" pointer-events="none"><text text-anchor="middle" transform="translate(-16.5615234375,15) rotate(-90) translate(0,-2)" font-family="sans-serif" font-size="11px" font-weight="bold" fill="#000" opacity="1">density_normalized</text></g></g><path class="foreground" aria-hidden="true" d="" pointer-events="none" display="none"/></g></g><g class="mark-area role-mark concat_2_marks" role="graphics-object" aria-roledescription="area mark container"><path aria-label="G401_average_zscore: −21.3209681189; density_normalized: 7.43756494586e-28" role="graphics-symbol" aria-roledescription="area mark" d="M-63.21,30L-62.493,30L-61.777,30L-61.061,30L-60.345,30L-59.629,30L-58.912,30L-58.196,30L-57.48,30L-56.764,30L-56.048,30L-55.331,30L-54.615,30L-53.899,30L-53.183,30L-52.467,30L-51.75,30L-51.034,30L-50.318,30L-49.602,30L-48.886,30L-48.169,30L-47.453,30L-46.737,30L-46.021,30L-45.305,30L-44.588,30L-43.872,30L-43.156,30L-42.44,30L-41.723,30L-41.007,30L-40.291,30L-39.575,30L-38.859,30L-38.142,30L-37.426,30L-36.71,30L-35.994,30L-35.278,30L-34.561,30L-33.845,30L-33.129,30L-32.413,30L-31.697,30L-30.98,30L-30.264,30L-29.548,30L-28.832,30L-28.116,30L-27.399,30L-26.683,30L-25.967,30L-25.251,30L-24.535,30L-23.818,30L-23.102,30L-22.386,30L-21.67,30L-20.953,30L-20.237,30L-19.521,30L-18.805,30L-18.089,30L-17.372,30L-16.656,30L-15.94,30L-15.224,30L-14.508,30L-13.791,30L-13.075,30L-12.359,30L-11.643,30L-10.927,30L-10.21,30L-9.494,30L-8.778,30L-8.062,30L-7.346,30L-6.629,30L-5.913,30L-5.197,30L-4.481,30L-3.765,30L-3.048,30L-2.332,30L-1.616,30L-0.9,30L-0.183,30L0.533,30L1.249,30L1.965,30L2.681,29.999L3.398,29.999L4.114,29.999L4.83,29.999L5.546,29.999L6.262,29.998L6.979,29.998L7.695,29.998L8.411,29.997L9.127,29.997L9.843,29.996L10.56,29.996L11.276,29.995L11.992,29.994L12.708,29.993L13.424,29.993L14.141,29.992L14.857,29.991L15.573,29.99L16.289,29.989L17.005,29.988L17.722,29.987L18.438,29.986L19.154,29.985L19.87,29.984L20.587,29.983L21.303,29.982L22.019,29.981L22.735,29.981L23.451,29.98L24.168,29.98L24.884,29.98L25.6,29.98L26.316,29.98L27.032,29.98L27.749,29.981L28.465,29.981L29.181,29.982L29.897,29.982L30.613,29.983L31.33,29.984L32.046,29.985L32.762,29.986L33.478,29.987L34.194,29.988L34.911,29.989L35.627,29.99L36.343,29.991L37.059,29.992L37.775,29.993L38.492,29.993L39.208,29.994L39.924,29.994L40.64,29.995L41.357,29.995L42.073,29.995L42.789,29.995L43.505,29.995L44.221,29.995L44.938,29.994L45.654,29.994L46.37,29.993L47.086,29.992L47.802,29.991L48.519,29.99L49.235,29.989L49.951,29.987L50.667,29.986L51.383,29.984L52.1,29.982L52.816,29.98L53.532,29.977L54.248,29.975L54.964,29.972L55.681,29.969L56.397,29.966L57.113,29.963L57.829,29.96L58.545,29.957L59.262,29.954L59.978,29.951L60.694,29.948L61.41,29.944L62.127,29.941L62.843,29.938L63.559,29.935L64.275,29.931L64.991,29.928L65.708,29.925L66.424,29.922L67.14,29.919L67.856,29.915L68.572,29.912L69.289,29.909L70.005,29.905L70.721,29.901L71.437,29.898L72.153,29.894L72.87,29.89L73.586,29.885L74.302,29.881L75.018,29.876L75.734,29.871L76.451,29.865L77.167,29.859L77.883,29.853L78.599,29.847L79.315,29.84L80.032,29.833L80.748,29.825L81.464,29.817L82.18,29.809L82.896,29.8L83.613,29.79L84.329,29.78L85.045,29.769L85.761,29.758L86.478,29.747L87.194,29.734L87.91,29.721L88.626,29.707L89.342,29.693L90.059,29.678L90.775,29.661L91.491,29.644L92.207,29.626L92.923,29.607L93.64,29.587L94.356,29.566L95.072,29.543L95.788,29.518L96.504,29.492L97.221,29.464L97.937,29.434L98.653,29.401L99.369,29.366L100.085,29.328L100.802,29.286L101.518,29.24L102.234,29.191L102.95,29.136L103.666,29.077L104.383,29.012L105.099,28.94L105.815,28.862L106.531,28.777L107.248,28.683L107.964,28.582L108.68,28.47L109.396,28.349L110.112,28.217L110.829,28.073L111.545,27.917L112.261,27.747L112.977,27.564L113.693,27.365L114.41,27.15L115.126,26.917L115.842,26.666L116.558,26.396L117.274,26.105L117.991,25.792L118.707,25.456L119.423,25.095L120.139,24.71L120.855,24.297L121.572,23.857L122.288,23.389L123.004,22.89L123.72,22.362L124.436,21.802L125.153,21.211L125.869,20.588L126.585,19.934L127.301,19.248L128.018,18.532L128.734,17.786L129.45,17.012L130.166,16.211L130.882,15.385L131.599,14.538L132.315,13.671L133.031,12.789L133.747,11.895L134.463,10.994L135.18,10.09L135.896,9.188L136.612,8.295L137.328,7.415L138.044,6.555L138.761,5.721L139.477,4.919L140.193,4.157L140.909,3.44L141.625,2.775L142.342,2.168L143.058,1.626L143.774,1.153L144.49,0.756L145.206,0.438L145.923,0.205L146.639,0.058L147.355,0L148.071,0.033L148.788,0.159L149.504,0.375L150.22,0.683L150.936,1.078L151.652,1.558L152.369,2.12L153.085,2.758L153.801,3.467L154.517,4.24L155.233,5.071L155.95,5.952L156.666,6.876L157.382,7.835L158.098,8.821L158.814,9.825L159.531,10.841L160.247,11.86L160.963,12.876L161.679,13.882L162.395,14.871L163.112,15.839L163.828,16.78L164.544,17.69L165.26,18.565L165.976,19.404L166.693,20.203L167.409,20.961L168.125,21.677L168.841,22.351L169.558,22.982L170.274,23.572L170.99,24.122L171.706,24.632L172.422,25.103L173.139,25.539L173.855,25.94L174.571,26.308L175.287,26.645L176.003,26.954L176.72,27.236L177.436,27.493L178.152,27.727L178.868,27.94L179.584,28.133L180.301,28.309L181.017,28.468L181.733,28.612L182.449,28.742L183.165,28.86L183.882,28.966L184.598,29.062L185.314,29.149L186.03,29.227L186.746,29.297L187.463,29.36L188.179,29.417L188.895,29.469L189.611,29.515L190.328,29.557L191.044,29.595L191.76,29.629L192.476,29.66L193.192,29.688L193.909,29.714L194.625,29.737L195.341,29.758L196.057,29.777L196.773,29.795L197.49,29.811L198.206,29.826L198.922,29.84L199.638,29.853L200.354,29.865L201.071,29.875L201.787,29.886L202.503,29.895L203.219,29.904L203.935,29.912L204.652,29.919L205.368,29.926L206.084,29.932L206.8,29.938L207.516,29.944L208.233,29.949L208.949,29.953L209.665,29.957L210.381,29.961L211.098,29.964L211.814,29.967L212.53,29.97L213.246,29.972L213.962,29.974L214.679,29.976L215.395,29.978L216.111,29.979L216.827,29.98L217.543,29.981L218.26,29.981L218.976,29.982L219.692,29.982L220.408,29.982L221.124,29.982L221.841,29.981L222.557,29.981L223.273,29.981L223.989,29.98L224.705,29.979L225.422,29.979L226.138,29.978L226.854,29.977L227.57,29.977L228.286,29.976L229.003,29.976L229.719,29.975L230.435,29.975L231.151,29.975L231.868,29.975L232.584,29.975L233.3,29.975L234.016,29.975L234.732,29.976L235.449,29.977L236.165,29.977L236.881,29.978L237.597,29.979L238.313,29.98L239.03,29.981L239.746,29.983L240.462,29.984L241.178,29.985L241.894,29.986L242.611,29.987L243.327,29.989L244.043,29.99L244.759,29.991L245.475,29.992L246.192,29.993L246.908,29.994L247.624,29.994L248.34,29.995L249.056,29.996L249.773,29.996L250.489,29.997L251.205,29.997L251.921,29.998L252.638,29.998L253.354,29.998L254.07,29.998L254.786,29.998L255.502,29.998L256.219,29.998L256.935,29.998L257.651,29.998L258.367,29.998L259.083,29.998L259.8,29.997L260.516,29.997L261.232,29.997L261.948,29.997L262.664,29.996L263.381,29.996L264.097,29.996L264.813,29.995L265.529,29.995L266.245,29.995L266.962,29.994L267.678,29.994L268.394,29.994L269.11,29.993L269.826,29.993L270.543,29.993L271.259,29.993L271.975,29.993L272.691,29.993L273.408,29.993L274.124,29.993L274.84,29.994L275.556,29.994L276.272,29.994L276.989,29.994L277.705,29.995L278.421,29.995L279.137,29.995L279.853,29.996L280.57,29.996L281.286,29.996L282.002,29.997L282.718,29.997L283.434,29.997L284.151,29.998L284.867,29.998L285.583,29.998L286.299,29.998L287.015,29.999L287.732,29.999L288.448,29.999L289.164,29.999L289.88,29.999L290.596,29.999L291.313,30L292.029,30L292.745,30L293.461,30L294.177,30L294.177,30L293.461,30L292.745,30L292.029,30L291.313,30L290.596,30L289.88,30L289.164,30L288.448,30L287.732,30L287.015,30L286.299,30L285.583,30L284.867,30L284.151,30L283.434,30L282.718,30L282.002,30L281.286,30L280.57,30L279.853,30L279.137,30L278.421,30L277.705,30L276.989,30L276.272,30L275.556,30L274.84,30L274.124,30L273.408,30L272.691,30L271.975,30L271.259,30L270.543,30L269.826,30L269.11,30L268.394,30L267.678,30L266.962,30L266.245,30L265.529,30L264.813,30L264.097,30L263.381,30L262.664,30L261.948,30L261.232,30L260.516,30L259.8,30L259.083,30L258.367,30L257.651,30L256.935,30L256.219,30L255.502,30L254.786,30L254.07,30L253.354,30L252.638,30L251.921,30L251.205,30L250.489,30L249.773,30L249.056,30L248.34,30L247.624,30L246.908,30L246.192,30L245.475,30L244.759,30L244.043,30L243.327,30L242.611,30L241.894,30L241.178,30L240.462,30L239.746,30L239.03,30L238.313,30L237.597,30L236.881,30L236.165,30L235.449,30L234.732,30L234.016,30L233.3,30L232.584,30L231.868,30L231.151,30L230.435,30L229.719,30L229.003,30L228.286,30L227.57,30L226.854,30L226.138,30L225.422,30L224.705,30L223.989,30L223.273,30L222.557,30L221.841,30L221.124,30L220.408,30L219.692,30L218.976,30L218.26,30L217.543,30L216.827,30L216.111,30L215.395,30L214.679,30L213.962,30L213.246,30L212.53,30L211.814,30L211.098,30L210.381,30L209.665,30L208.949,30L208.233,30L207.516,30L206.8,30L206.084,30L205.368,30L204.652,30L203.935,30L203.219,30L202.503,30L201.787,30L201.071,30L200.354,30L199.638,30L198.922,30L198.206,30L197.49,30L196.773,30L196.057,30L195.341,30L194.625,30L193.909,30L193.192,30L192.476,30L191.76,30L191.044,30L190.328,30L189.611,30L188.895,30L188.179,30L187.463,30L186.746,30L186.03,30L185.314,30L184.598,30L183.882,30L183.165,30L182.449,30L181.733,30L181.017,30L180.301,30L179.584,30L178.868,30L178.152,30L177.436,30L176.72,30L176.003,30L175.287,30L174.571,30L173.855,30L173.139,30L172.422,30L171.706,30L170.99,30L170.274,30L169.558,30L168.841,30L168.125,30L167.409,30L166.693,30L165.976,30L165.26,30L164.544,30L163.828,30L163.112,30L162.395,30L161.679,30L160.963,30L160.247,30L159.531,30L158.814,30L158.098,30L157.382,30L156.666,30L155.95,30L155.233,30L154.517,30L153.801,30L153.085,30L152.369,30L151.652,30L150.936,30L150.22,30L149.504,30L148.788,30L148.071,30L147.355,30L146.639,30L145.923,30L145.206,30L144.49,30L143.774,30L143.058,30L142.342,30L141.625,30L140.909,30L140.193,30L139.477,30L138.761,30L138.044,30L137.328,30L136.612,30L135.896,30L135.18,30L134.463,30L133.747,30L133.031,30L132.315,30L131.599,30L130.882,30L130.166,30L129.45,30L128.734,30L128.018,30L127.301,30L126.585,30L125.869,30L125.153,30L124.436,30L123.72,30L123.004,30L122.288,30L121.572,30L120.855,30L120.139,30L119.423,30L118.707,30L117.991,30L117.274,30L116.558,30L115.842,30L115.126,30L114.41,30L113.693,30L112.977,30L112.261,30L111.545,30L110.829,30L110.112,30L109.396,30L108.68,30L107.964,30L107.248,30L106.531,30L105.815,30L105.099,30L104.383,30L103.666,30L102.95,30L102.234,30L101.518,30L100.802,30L100.085,30L99.369,30L98.653,30L97.937,30L97.221,30L96.504,30L95.788,30L95.072,30L94.356,30L93.64,30L92.923,30L92.207,30L91.491,30L90.775,30L90.059,30L89.342,30L88.626,30L87.91,30L87.194,30L86.478,30L85.761,30L85.045,30L84.329,30L83.613,30L82.896,30L82.18,30L81.464,30L80.748,30L80.032,30L79.315,30L78.599,30L77.883,30L77.167,30L76.451,30L75.734,30L75.018,30L74.302,30L73.586,30L72.87,30L72.153,30L71.437,30L70.721,30L70.005,30L69.289,30L68.572,30L67.856,30L67.14,30L66.424,30L65.708,30L64.991,30L64.275,30L63.559,30L62.843,30L62.127,30L61.41,30L60.694,30L59.978,30L59.262,30L58.545,30L57.829,30L57.113,30L56.397,30L55.681,30L54.964,30L54.248,30L53.532,30L52.816,30L52.1,30L51.383,30L50.667,30L49.951,30L49.235,30L48.519,30L47.802,30L47.086,30L46.37,30L45.654,30L44.938,30L44.221,30L43.505,30L42.789,30L42.073,30L41.357,30L40.64,30L39.924,30L39.208,30L38.492,30L37.775,30L37.059,30L36.343,30L35.627,30L34.911,30L34.194,30L33.478,30L32.762,30L32.046,30L31.33,30L30.613,30L29.897,30L29.181,30L28.465,30L27.749,30L27.032,30L26.316,30L25.6,30L24.884,30L24.168,30L23.451,30L22.735,30L22.019,30L21.303,30L20.587,30L19.87,30L19.154,30L18.438,30L17.722,30L17.005,30L16.289,30L15.573,30L14.857,30L14.141,30L13.424,30L12.708,30L11.992,30L11.276,30L10.56,30L9.843,30L9.127,30L8.411,30L7.695,30L6.979,30L6.262,30L5.546,30L4.83,30L4.114,30L3.398,30L2.681,30L1.965,30L1.249,30L0.533,30L-0.183,30L-0.9,30L-1.616,30L-2.332,30L-3.048,30L-3.765,30L-4.481,30L-5.197,30L-5.913,30L-6.629,30L-7.346,30L-8.062,30L-8.778,30L-9.494,30L-10.21,30L-10.927,30L-11.643,30L-12.359,30L-13.075,30L-13.791,30L-14.508,30L-15.224,30L-15.94,30L-16.656,30L-17.372,30L-18.089,30L-18.805,30L-19.521,30L-20.237,30L-20.953,30L-21.67,30L-22.386,30L-23.102,30L-23.818,30L-24.535,30L-25.251,30L-25.967,30L-26.683,30L-27.399,30L-28.116,30L-28.832,30L-29.548,30L-30.264,30L-30.98,30L-31.697,30L-32.413,30L-33.129,30L-33.845,30L-34.561,30L-35.278,30L-35.994,30L-36.71,30L-37.426,30L-38.142,30L-38.859,30L-39.575,30L-40.291,30L-41.007,30L-41.723,30L-42.44,30L-43.156,30L-43.872,30L-44.588,30L-45.305,30L-46.021,30L-46.737,30L-47.453,30L-48.169,30L-48.886,30L-49.602,30L-50.318,30L-51.034,30L-51.75,30L-52.467,30L-53.183,30L-53.899,30L-54.615,30L-55.331,30L-56.048,30L-56.764,30L-57.48,30L-58.196,30L-58.912,30L-59.629,30L-60.345,30L-61.061,30L-61.777,30L-62.493,30L-63.21,30Z" fill="gray"/></g></g><path class="foreground" aria-hidden="true" d="" display="none"/></g></g><g class="mark-group role-scope concat_3_group" role="graphics-object" aria-roledescription="group mark container"><g transform="translate(0,201)"><path class="background" aria-hidden="true" d="M0,0h300v30h-300Z"/><g><g class="mark-group role-axis" role="graphics-symbol" aria-roledescription="axis" aria-label="X-axis for a linear scale with values from −15 to 15"><g transform="translate(0.5,30.5)"><path class="background" aria-hidden="true" d="M0,0h0v0h0Z" pointer-events="none"/><g><g class="mark-rule role-axis-tick" pointer-events="none"><line transform="translate(0,0)" x2="0" y2="5" stroke="#888" stroke-width="1" opacity="1"/><line transform="translate(50,0)" x2="0" y2="5" stroke="#888" stroke-width="1" opacity="1"/><line transform="translate(100,0)" x2="0" y2="5" stroke="#888" stroke-width="1" opacity="1"/><line transform="translate(150,0)" x2="0" y2="5" stroke="#888" stroke-width="1" opacity="1"/><line transform="translate(200,0)" x2="0" y2="5" stroke="#888" stroke-width="1" opacity="1"/><line transform="translate(250,0)" x2="0" y2="5" stroke="#888" stroke-width="1" opacity="1"/><line transform="translate(300,0)" x2="0" y2="5" stroke="#888" stroke-width="1" opacity="1"/></g><g class="mark-text role-axis-label" pointer-events="none"><text text-anchor="start" transform="translate(0,15)" font-family="sans-serif" font-size="10px" fill="#000" opacity="1">−15</text><text text-anchor="middle" transform="translate(50,15)" font-family="sans-serif" font-size="10px" fill="#000" opacity="1">−10</text><text text-anchor="middle" transform="translate(100,15)" font-family="sans-serif" font-size="10px" fill="#000" opacity="1">−5</text><text text-anchor="middle" transform="translate(150,15)" font-family="sans-serif" font-size="10px" fill="#000" opacity="1">0</text><text text-anchor="middle" transform="translate(200,15)" font-family="sans-serif" font-size="10px" fill="#000" opacity="1">5</text><text text-anchor="middle" transform="translate(250,15)" font-family="sans-serif" font-size="10px" fill="#000" opacity="1">10</text><text text-anchor="end" transform="translate(300,15)" font-family="sans-serif" font-size="10px" fill="#000" opacity="1">15</text></g><g class="mark-rule role-axis-domain" pointer-events="none"><line transform="translate(0,0)" x2="300" y2="0" stroke="#888" stroke-width="1" opacity="1"/></g></g><path class="foreground" aria-hidden="true" d="" pointer-events="none" display="none"/></g></g><g class="mark-group role-axis" role="graphics-symbol" aria-roledescription="axis" aria-label="Y-axis titled 'density_normalized' for a linear scale with values from 0.0 to 1.0"><g transform="translate(0.5,0.5)"><path class="background" aria-hidden="true" d="M0,0h0v0h0Z" pointer-events="none"/><g><g class="mark-rule role-axis-tick" pointer-events="none"><line transform="translate(0,30)" x2="-5" y2="0" stroke="#888" stroke-width="1" opacity="1"/><line transform="translate(0,0)" x2="-5" y2="0" stroke="#888" stroke-width="1" opacity="1"/></g><g class="mark-text role-axis-label" pointer-events="none"><text text-anchor="end" transform="translate(-7,33)" font-family="sans-serif" font-size="10px" fill="#000" opacity="1">0</text><text text-anchor="end" transform="translate(-7,3)" font-family="sans-serif" font-size="10px" fill="#000" opacity="1">1</text></g><g class="mark-rule role-axis-domain" pointer-events="none"><line transform="translate(0,30)" x2="0" y2="-30" stroke="#888" stroke-width="1" opacity="1"/></g><g class="mark-text role-axis-title" pointer-events="none"><text text-anchor="middle" transform="translate(-16.5615234375,15) rotate(-90) translate(0,-2)" font-family="sans-serif" font-size="11px" font-weight="bold" fill="#000" opacity="1">density_normalized</text></g></g><path class="foreground" aria-hidden="true" d="" pointer-events="none" display="none"/></g></g><g class="mark-area role-mark concat_3_marks" role="graphics-object" aria-roledescription="area mark container"><path aria-label="G401_average_zscore: −21.3209681189; density_normalized: 0" role="graphics-symbol" aria-roledescription="area mark" d="M-63.21,30L-62.493,30L-61.777,30L-61.061,30L-60.345,30L-59.629,30L-58.912,30L-58.196,30L-57.48,30L-56.764,30L-56.048,30L-55.331,30L-54.615,30L-53.899,30L-53.183,30L-52.467,30L-51.75,30L-51.034,30L-50.318,30L-49.602,30L-48.886,30L-48.169,30L-47.453,30L-46.737,30L-46.021,30L-45.305,30L-44.588,30L-43.872,30L-43.156,30L-42.44,30L-41.723,30L-41.007,30L-40.291,30L-39.575,30L-38.859,30L-38.142,30L-37.426,30L-36.71,30L-35.994,30L-35.278,30L-34.561,30L-33.845,30L-33.129,30L-32.413,30L-31.697,30L-30.98,30L-30.264,30L-29.548,30L-28.832,30L-28.116,30L-27.399,30L-26.683,30L-25.967,30L-25.251,30L-24.535,30L-23.818,30L-23.102,30L-22.386,30L-21.67,30L-20.953,30L-20.237,30L-19.521,30L-18.805,30L-18.089,30L-17.372,30L-16.656,30L-15.94,30L-15.224,30L-14.508,30L-13.791,30L-13.075,30L-12.359,30L-11.643,30L-10.927,30L-10.21,30L-9.494,30L-8.778,30L-8.062,30L-7.346,30L-6.629,30L-5.913,30L-5.197,30L-4.481,30L-3.765,30L-3.048,30L-2.332,30L-1.616,30L-0.9,30L-0.183,30L0.533,30L1.249,30L1.965,30L2.681,30L3.398,30L4.114,30L4.83,30L5.546,30L6.262,30L6.979,30L7.695,30L8.411,30L9.127,30L9.843,30L10.56,30L11.276,30L11.992,30L12.708,30L13.424,30L14.141,30L14.857,30L15.573,30L16.289,30L17.005,30L17.722,30L18.438,30L19.154,30L19.87,30L20.587,30L21.303,30L22.019,30L22.735,30L23.451,30L24.168,30L24.884,30L25.6,30L26.316,30L27.032,30L27.749,30L28.465,30L29.181,30L29.897,30L30.613,30L31.33,30L32.046,30L32.762,30L33.478,30L34.194,30L34.911,30L35.627,30L36.343,30L37.059,30L37.775,30L38.492,30L39.208,30L39.924,30L40.64,30L41.357,30L42.073,30L42.789,30L43.505,30L44.221,30L44.938,30L45.654,30L46.37,30L47.086,30L47.802,30L48.519,30L49.235,30L49.951,30L50.667,30L51.383,30L52.1,30L52.816,30L53.532,30L54.248,30L54.964,30L55.681,30L56.397,30L57.113,30L57.829,30L58.545,30L59.262,30L59.978,30L60.694,30L61.41,30L62.127,30L62.843,30L63.559,30L64.275,30L64.991,30L65.708,30L66.424,30L67.14,30L67.856,30L68.572,30L69.289,30L70.005,30L70.721,30L71.437,30L72.153,30L72.87,30L73.586,30L74.302,30L75.018,30L75.734,30L76.451,30L77.167,30L77.883,30L78.599,30L79.315,30L80.032,30L80.748,30L81.464,30L82.18,30L82.896,30L83.613,29.999L84.329,29.999L85.045,29.998L85.761,29.996L86.478,29.994L87.194,29.99L87.91,29.984L88.626,29.976L89.342,29.965L90.059,29.952L90.775,29.936L91.491,29.918L92.207,29.9L92.923,29.882L93.64,29.867L94.356,29.856L95.072,29.851L95.788,29.851L96.504,29.858L97.221,29.869L97.937,29.885L98.653,29.903L99.369,29.921L100.085,29.939L100.802,29.954L101.518,29.967L102.234,29.977L102.95,29.985L103.666,29.991L104.383,29.994L105.099,29.997L105.815,29.998L106.531,29.999L107.248,29.999L107.964,30L108.68,30L109.396,30L110.112,30L110.829,30L111.545,30L112.261,30L112.977,30L113.693,30L114.41,30L115.126,30L115.842,30L116.558,30L117.274,30L117.991,30L118.707,30L119.423,30L120.139,30L120.855,30L121.572,30L122.288,29.999L123.004,29.999L123.72,29.998L124.436,29.996L125.153,29.994L125.869,29.989L126.585,29.982L127.301,29.971L128.018,29.954L128.734,29.93L129.45,29.895L130.166,29.847L130.882,29.781L131.599,29.692L132.315,29.575L133.031,29.422L133.747,29.224L134.463,28.971L135.18,28.651L135.896,28.25L136.612,27.75L137.328,27.131L138.044,26.373L138.761,25.454L139.477,24.352L140.193,23.053L140.909,21.551L141.625,19.852L142.342,17.978L143.058,15.965L143.774,13.866L144.49,11.743L145.206,9.661L145.923,7.686L146.639,5.873L147.355,4.266L148.071,2.894L148.788,1.775L149.504,0.917L150.22,0.329L150.936,0.019L151.652,0L152.369,0.288L153.085,0.901L153.801,1.848L154.517,3.128L155.233,4.719L155.95,6.583L156.666,8.66L157.382,10.878L158.098,13.156L158.814,15.417L159.531,17.591L160.247,19.621L160.963,21.467L161.679,23.105L162.395,24.523L163.112,25.724L163.828,26.719L164.544,27.525L165.26,28.165L165.976,28.663L166.693,29.041L167.409,29.324L168.125,29.53L168.841,29.679L169.558,29.784L170.274,29.857L170.99,29.907L171.706,29.941L172.422,29.963L173.139,29.978L173.855,29.987L174.571,29.992L175.287,29.996L176.003,29.998L176.72,29.999L177.436,29.999L178.152,30L178.868,30L179.584,30L180.301,30L181.017,30L181.733,30L182.449,30L183.165,30L183.882,30L184.598,30L185.314,30L186.03,30L186.746,30L187.463,30L188.179,30L188.895,30L189.611,30L190.328,30L191.044,30L191.76,30L192.476,30L193.192,30L193.909,30L194.625,30L195.341,30L196.057,30L196.773,30L197.49,30L198.206,30L198.922,30L199.638,30L200.354,30L201.071,30L201.787,30L202.503,30L203.219,30L203.935,30L204.652,30L205.368,30L206.084,30L206.8,30L207.516,30L208.233,30L208.949,30L209.665,30L210.381,30L211.098,30L211.814,30L212.53,30L213.246,30L213.962,30L214.679,30L215.395,30L216.111,30L216.827,30L217.543,30L218.26,30L218.976,30L219.692,30L220.408,30L221.124,30L221.841,30L222.557,30L223.273,30L223.989,30L224.705,30L225.422,30L226.138,30L226.854,30L227.57,30L228.286,30L229.003,30L229.719,30L230.435,30L231.151,30L231.868,30L232.584,30L233.3,30L234.016,30L234.732,30L235.449,30L236.165,30L236.881,30L237.597,30L238.313,30L239.03,30L239.746,30L240.462,30L241.178,30L241.894,30L242.611,30L243.327,30L244.043,30L244.759,30L245.475,30L246.192,30L246.908,30L247.624,30L248.34,30L249.056,30L249.773,30L250.489,30L251.205,30L251.921,30L252.638,30L253.354,30L254.07,30L254.786,30L255.502,30L256.219,30L256.935,30L257.651,30L258.367,30L259.083,30L259.8,30L260.516,30L261.232,30L261.948,30L262.664,30L263.381,30L264.097,30L264.813,30L265.529,30L266.245,30L266.962,30L267.678,30L268.394,30L269.11,30L269.826,30L270.543,30L271.259,30L271.975,30L272.691,30L273.408,30L274.124,30L274.84,30L275.556,30L276.272,30L276.989,30L277.705,30L278.421,30L279.137,30L279.853,30L280.57,30L281.286,30L282.002,30L282.718,30L283.434,30L284.151,30L284.867,30L285.583,30L286.299,30L287.015,30L287.732,30L288.448,30L289.164,30L289.88,30L290.596,30L291.313,30L292.029,30L292.745,30L293.461,30L294.177,30L294.177,30L293.461,30L292.745,30L292.029,30L291.313,30L290.596,30L289.88,30L289.164,30L288.448,30L287.732,30L287.015,30L286.299,30L285.583,30L284.867,30L284.151,30L283.434,30L282.718,30L282.002,30L281.286,30L280.57,30L279.853,30L279.137,30L278.421,30L277.705,30L276.989,30L276.272,30L275.556,30L274.84,30L274.124,30L273.408,30L272.691,30L271.975,30L271.259,30L270.543,30L269.826,30L269.11,30L268.394,30L267.678,30L266.962,30L266.245,30L265.529,30L264.813,30L264.097,30L263.381,30L262.664,30L261.948,30L261.232,30L260.516,30L259.8,30L259.083,30L258.367,30L257.651,30L256.935,30L256.219,30L255.502,30L254.786,30L254.07,30L253.354,30L252.638,30L251.921,30L251.205,30L250.489,30L249.773,30L249.056,30L248.34,30L247.624,30L246.908,30L246.192,30L245.475,30L244.759,30L244.043,30L243.327,30L242.611,30L241.894,30L241.178,30L240.462,30L239.746,30L239.03,30L238.313,30L237.597,30L236.881,30L236.165,30L235.449,30L234.732,30L234.016,30L233.3,30L232.584,30L231.868,30L231.151,30L230.435,30L229.719,30L229.003,30L228.286,30L227.57,30L226.854,30L226.138,30L225.422,30L224.705,30L223.989,30L223.273,30L222.557,30L221.841,30L221.124,30L220.408,30L219.692,30L218.976,30L218.26,30L217.543,30L216.827,30L216.111,30L215.395,30L214.679,30L213.962,30L213.246,30L212.53,30L211.814,30L211.098,30L210.381,30L209.665,30L208.949,30L208.233,30L207.516,30L206.8,30L206.084,30L205.368,30L204.652,30L203.935,30L203.219,30L202.503,30L201.787,30L201.071,30L200.354,30L199.638,30L198.922,30L198.206,30L197.49,30L196.773,30L196.057,30L195.341,30L194.625,30L193.909,30L193.192,30L192.476,30L191.76,30L191.044,30L190.328,30L189.611,30L188.895,30L188.179,30L187.463,30L186.746,30L186.03,30L185.314,30L184.598,30L183.882,30L183.165,30L182.449,30L181.733,30L181.017,30L180.301,30L179.584,30L178.868,30L178.152,30L177.436,30L176.72,30L176.003,30L175.287,30L174.571,30L173.855,30L173.139,30L172.422,30L171.706,30L170.99,30L170.274,30L169.558,30L168.841,30L168.125,30L167.409,30L166.693,30L165.976,30L165.26,30L164.544,30L163.828,30L163.112,30L162.395,30L161.679,30L160.963,30L160.247,30L159.531,30L158.814,30L158.098,30L157.382,30L156.666,30L155.95,30L155.233,30L154.517,30L153.801,30L153.085,30L152.369,30L151.652,30L150.936,30L150.22,30L149.504,30L148.788,30L148.071,30L147.355,30L146.639,30L145.923,30L145.206,30L144.49,30L143.774,30L143.058,30L142.342,30L141.625,30L140.909,30L140.193,30L139.477,30L138.761,30L138.044,30L137.328,30L136.612,30L135.896,30L135.18,30L134.463,30L133.747,30L133.031,30L132.315,30L131.599,30L130.882,30L130.166,30L129.45,30L128.734,30L128.018,30L127.301,30L126.585,30L125.869,30L125.153,30L124.436,30L123.72,30L123.004,30L122.288,30L121.572,30L120.855,30L120.139,30L119.423,30L118.707,30L117.991,30L117.274,30L116.558,30L115.842,30L115.126,30L114.41,30L113.693,30L112.977,30L112.261,30L111.545,30L110.829,30L110.112,30L109.396,30L108.68,30L107.964,30L107.248,30L106.531,30L105.815,30L105.099,30L104.383,30L103.666,30L102.95,30L102.234,30L101.518,30L100.802,30L100.085,30L99.369,30L98.653,30L97.937,30L97.221,30L96.504,30L95.788,30L95.072,30L94.356,30L93.64,30L92.923,30L92.207,30L91.491,30L90.775,30L90.059,30L89.342,30L88.626,30L87.91,30L87.194,30L86.478,30L85.761,30L85.045,30L84.329,30L83.613,30L82.896,30L82.18,30L81.464,30L80.748,30L80.032,30L79.315,30L78.599,30L77.883,30L77.167,30L76.451,30L75.734,30L75.018,30L74.302,30L73.586,30L72.87,30L72.153,30L71.437,30L70.721,30L70.005,30L69.289,30L68.572,30L67.856,30L67.14,30L66.424,30L65.708,30L64.991,30L64.275,30L63.559,30L62.843,30L62.127,30L61.41,30L60.694,30L59.978,30L59.262,30L58.545,30L57.829,30L57.113,30L56.397,30L55.681,30L54.964,30L54.248,30L53.532,30L52.816,30L52.1,30L51.383,30L50.667,30L49.951,30L49.235,30L48.519,30L47.802,30L47.086,30L46.37,30L45.654,30L44.938,30L44.221,30L43.505,30L42.789,30L42.073,30L41.357,30L40.64,30L39.924,30L39.208,30L38.492,30L37.775,30L37.059,30L36.343,30L35.627,30L34.911,30L34.194,30L33.478,30L32.762,30L32.046,30L31.33,30L30.613,30L29.897,30L29.181,30L28.465,30L27.749,30L27.032,30L26.316,30L25.6,30L24.884,30L24.168,30L23.451,30L22.735,30L22.019,30L21.303,30L20.587,30L19.87,30L19.154,30L18.438,30L17.722,30L17.005,30L16.289,30L15.573,30L14.857,30L14.141,30L13.424,30L12.708,30L11.992,30L11.276,30L10.56,30L9.843,30L9.127,30L8.411,30L7.695,30L6.979,30L6.262,30L5.546,30L4.83,30L4.114,30L3.398,30L2.681,30L1.965,30L1.249,30L0.533,30L-0.183,30L-0.9,30L-1.616,30L-2.332,30L-3.048,30L-3.765,30L-4.481,30L-5.197,30L-5.913,30L-6.629,30L-7.346,30L-8.062,30L-8.778,30L-9.494,30L-10.21,30L-10.927,30L-11.643,30L-12.359,30L-13.075,30L-13.791,30L-14.508,30L-15.224,30L-15.94,30L-16.656,30L-17.372,30L-18.089,30L-18.805,30L-19.521,30L-20.237,30L-20.953,30L-21.67,30L-22.386,30L-23.102,30L-23.818,30L-24.535,30L-25.251,30L-25.967,30L-26.683,30L-27.399,30L-28.116,30L-28.832,30L-29.548,30L-30.264,30L-30.98,30L-31.697,30L-32.413,30L-33.129,30L-33.845,30L-34.561,30L-35.278,30L-35.994,30L-36.71,30L-37.426,30L-38.142,30L-38.859,30L-39.575,30L-40.291,30L-41.007,30L-41.723,30L-42.44,30L-43.156,30L-43.872,30L-44.588,30L-45.305,30L-46.021,30L-46.737,30L-47.453,30L-48.169,30L-48.886,30L-49.602,30L-50.318,30L-51.034,30L-51.75,30L-52.467,30L-53.183,30L-53.899,30L-54.615,30L-55.331,30L-56.048,30L-56.764,30L-57.48,30L-58.196,30L-58.912,30L-59.629,30L-60.345,30L-61.061,30L-61.777,30L-62.493,30L-63.21,30Z" fill="black"/></g></g><path class="foreground" aria-hidden="true" d="" display="none"/></g></g></g><path class="foreground" aria-hidden="true" d="" display="none"/></g></g></g></svg>